# 3ds Max Wavefront OBJ Exporter v0.97b - (c)2007 guruware
# File Created: 07.04.2016 16:28:31

mtllib shelf.mtl

#
# object Box017
#

v  -25.0000 0.0000 120.7735
v  25.0000 -0.0000 122.1997
v  25.0000 0.0000 119.3474
v  -25.0000 0.0000 90.7882
v  25.0000 0.0000 90.7882
v  25.0000 -30.0000 90.7881
v  -25.0000 -30.0000 90.7881
v  25.0000 -30.0000 120.7735
v  25.0000 -0.0000 150.7881
v  -25.0000 -0.0000 150.7881
v  -25.0000 -30.0000 150.7881
v  25.0000 -30.0000 150.7881
v  21.4478 -5.7547 147.2359
v  -21.4478 -5.7547 147.2359
v  -21.4478 -5.7547 125.7519
v  21.4478 -5.7547 125.7519
v  -21.4478 -5.7547 94.3404
v  21.4478 -5.7547 94.3404
v  21.4478 -5.7547 115.7951
v  -21.4478 -5.7547 115.7951
v  -25.0000 -30.0000 120.7735
v  -21.4478 -30.0000 147.2359
v  21.4478 -30.0000 147.2359
v  -21.4478 -30.0000 125.7519
v  21.4478 -30.0000 125.7519
v  21.4478 -30.0000 94.3404
v  -21.4478 -30.0000 94.3404
v  21.4478 -30.0000 115.7951
v  -21.4478 -30.0000 115.7951
# 29 vertices

vn 0.0000 1.0000 0.0000
vn 0.0000 0.0000 -1.0000
vn 1.0000 0.0000 0.0000
vn 0.0000 -0.0000 1.0000
vn 0.0000 -1.0000 -0.0000
vn -1.0000 0.0000 0.0000
vn -0.0000 -0.0000 1.0000
# 7 vertex normals

vt 1.0000 0.5000 0.0000
vt 0.0000 0.5642 0.0000
vt 0.0000 0.4358 0.0000
vt 0.0000 0.0000 0.0000
vt 1.0000 0.0000 0.0000
vt 1.0000 1.0000 0.0000
vt 0.0000 1.0000 0.0000
vt 0.4358 0.0000 0.0000
vt 0.5642 0.0000 0.0000
vt 0.5000 1.0000 0.0000
vt 1.0000 0.5642 0.0000
vt 1.0000 0.4358 0.0000
vt 0.5000 0.0000 0.0000
vt 0.0000 0.5000 0.0000
# 14 texture coords

g Box017
usemtl Material__25
s 2
f 1/1/1 2/2/1 3/3/1 
s 8
f 4/4/2 5/5/2 6/6/2 7/7/2 
s 16
f 3/8/3 2/9/3 8/10/3 
s 32
f 9/4/4 10/5/4 11/6/4 12/7/4 
s 2
f 10/6/1 9/7/1 2/2/1 1/1/1 
f 5/4/1 4/5/1 1/1/1 3/3/1 
s 4
f 13/6/5 14/7/5 15/2/5 16/11/5 
f 17/4/5 18/5/5 19/12/5 20/3/5 
s 16
f 9/5/3 12/6/3 8/10/3 2/9/3 
f 6/7/3 5/4/3 3/8/3 8/10/3 
s 64
f 4/5/6 7/6/6 21/10/6 1/13/6 
f 11/7/6 10/4/6 1/13/6 21/10/6 
s off
f 12/6/5 11/7/5 22/7/5 23/6/5 
f 11/7/5 21/14/5 24/2/5 22/7/5 
f 21/14/5 8/1/5 25/11/5 24/2/5 
f 8/1/5 12/6/5 23/6/5 25/11/5 
f 7/4/5 6/5/5 26/5/5 27/4/5 
f 6/5/5 8/1/5 28/12/5 26/5/5 
f 8/1/5 21/14/5 29/3/5 28/12/5 
f 21/14/5 7/4/5 27/4/5 29/3/5 
f 23/6/2 22/7/2 14/7/2 13/6/2 
f 22/7/3 24/2/3 15/2/3 14/7/3 
f 24/2/7 25/11/7 16/11/7 15/2/7 
f 25/11/6 23/6/6 13/6/6 16/11/6 
f 27/4/4 26/5/4 18/5/4 17/4/4 
f 26/5/6 28/12/6 19/12/6 18/5/6 
f 28/12/2 29/3/2 20/3/2 19/12/2 
f 29/3/3 27/4/3 17/4/3 20/3/3 
# 26 polygons - 2 triangles

