# 3ds Max Wavefront OBJ Exporter v0.97b - (c)2007 guruware
# File Created: 07.04.2016 16:27:41

mtllib table 03.mtl

#
# object Box016
#

v  15.3000 35.1500 29.5717
v  15.3000 -35.1500 29.5717
v  -15.3000 -35.1500 29.5717
v  -15.3000 35.1500 29.5717
v  -15.3000 35.1500 34.5717
v  -15.3000 -35.1500 34.5717
v  15.3000 -35.1500 34.5717
v  15.3000 35.1500 34.5717
v  15.3000 -40.0000 29.5717
v  15.3000 -40.0000 34.5717
v  -15.3000 -40.0000 34.5717
v  -15.3000 -40.0000 29.5717
v  20.0000 35.1500 29.5717
v  20.0000 35.1500 34.5717
v  20.0000 -35.1500 34.5717
v  20.0000 -35.1500 29.5717
v  -15.3000 40.0000 29.5717
v  -15.3000 40.0000 34.5717
v  15.3000 40.0000 34.5717
v  15.3000 40.0000 29.5717
v  -20.0000 -35.1500 29.5717
v  -20.0000 -35.1500 34.5717
v  -20.0000 35.1500 34.5717
v  -20.0000 35.1500 29.5717
v  20.0000 40.0000 29.5717
v  20.0000 40.0000 34.5717
v  20.0000 -40.0000 34.5717
v  20.0000 -40.0000 29.5717
v  -20.0000 -40.0000 29.5717
v  -20.0000 -40.0000 34.5717
v  -20.0000 40.0000 34.5717
v  -20.0000 40.0000 29.5717
v  20.0000 40.0000 -0.0000
v  20.0000 35.1500 -0.0000
v  15.3000 35.1500 -0.0000
v  15.3000 40.0000 -0.0000
v  -20.0000 35.1500 -0.0000
v  -20.0000 40.0000 -0.0000
v  -15.3000 40.0000 -0.0000
v  -15.3000 35.1500 -0.0000
v  -20.0000 -40.0000 -0.0000
v  -20.0000 -35.1500 -0.0000
v  -15.3000 -35.1500 -0.0000
v  -15.3000 -40.0000 -0.0000
v  20.0000 -35.1500 -0.0000
v  20.0000 -40.0000 -0.0000
v  15.3000 -40.0000 -0.0000
v  15.3000 -35.1500 -0.0000
# 48 vertices

vn 0.0000 0.0000 -1.0000
vn 0.0000 0.0000 1.0000
vn 0.0000 -1.0000 0.0000
vn 1.0000 0.0000 0.0000
vn 0.0000 1.0000 0.0000
vn -1.0000 0.0000 0.0000
# 6 vertex normals

vt 0.1175 0.9394 0.0000
vt 0.1175 0.0606 0.0000
vt 0.8825 0.0606 0.0000
vt 0.8825 0.9394 0.0000
vt 0.8825 0.0000 0.0000
vt 0.8825 1.0000 0.0000
vt 0.1175 1.0000 0.0000
vt 0.1175 0.0000 0.0000
vt 0.9394 0.0000 0.0000
vt 0.9394 1.0000 0.0000
vt 0.0606 1.0000 0.0000
vt 0.0606 0.0000 0.0000
vt 1.0000 0.0000 0.0000
vt 1.0000 1.0000 0.0000
vt 0.0000 1.0000 0.0000
vt 0.0000 0.0000 0.0000
vt 0.0000 0.9394 0.0000
vt 0.0000 0.0606 0.0000
vt 1.0000 0.0606 0.0000
vt 1.0000 0.9394 0.0000
# 20 texture coords

g Box016
usemtl Material__25
s 2
f 1/1/1 2/2/1 3/3/1 4/4/1 
s 4
f 5/1/2 6/2/2 7/3/2 8/4/2 
s 8
f 9/5/3 10/6/3 11/7/3 12/8/3 
s 16
f 13/9/4 14/10/4 15/11/4 16/12/4 
s 32
f 17/5/5 18/6/5 19/7/5 20/8/5 
s 64
f 21/9/6 22/10/6 23/11/6 24/12/6 
s 2
f 20/7/1 1/1/1 4/4/1 17/6/1 
f 12/5/1 3/3/1 2/2/1 9/8/1 
s 4
f 18/7/2 5/1/2 8/4/2 19/6/2 
f 10/5/2 7/3/2 6/2/2 11/8/2 
s 16
f 25/13/4 26/14/4 14/10/4 13/9/4 
f 27/15/4 28/16/4 16/12/4 15/11/4 
s 64
f 29/13/6 30/14/6 22/10/6 21/9/6 
f 31/15/6 32/16/6 24/12/6 23/11/6 
s 2
f 13/17/1 16/18/1 2/2/1 1/1/1 
f 21/19/1 24/20/1 4/4/1 3/3/1 
s 4
f 23/17/2 22/18/2 6/2/2 5/1/2 
f 15/19/2 14/20/2 8/4/2 7/3/2 
s 8
f 28/13/3 27/14/3 10/6/3 9/5/3 
f 30/15/3 29/16/3 12/8/3 11/7/3 
s 32
f 32/13/5 31/14/5 18/6/5 17/5/5 
f 26/15/5 25/16/5 20/8/5 19/7/5 
s 2
f 33/15/1 34/17/1 35/1/1 36/7/1 
f 37/20/1 38/14/1 39/6/1 40/4/1 
f 41/13/1 42/19/1 43/3/1 44/5/1 
f 45/18/1 46/16/1 47/8/1 48/2/1 
s 4
f 31/15/2 23/17/2 5/1/2 18/7/2 
f 14/20/2 26/14/2 19/6/2 8/4/2 
f 27/13/2 15/19/2 7/3/2 10/5/2 
f 22/18/2 30/16/2 11/8/2 6/2/2 
s off
f 25/15/4 13/17/4 34/17/4 33/15/4 
f 13/17/3 1/1/3 35/1/3 34/17/3 
f 1/1/6 20/7/6 36/7/6 35/1/6 
f 20/7/5 25/15/5 33/15/5 36/7/5 
f 32/14/5 17/6/5 39/6/5 38/14/5 
f 17/6/4 4/4/4 40/4/4 39/6/4 
f 4/4/3 24/20/3 37/20/3 40/4/3 
f 24/20/6 32/14/6 38/14/6 37/20/6 
f 29/13/6 21/19/6 42/19/6 41/13/6 
f 21/19/5 3/3/5 43/3/5 42/19/5 
f 3/3/4 12/5/4 44/5/4 43/3/4 
f 12/5/3 29/13/3 41/13/3 44/5/3 
f 28/16/3 9/8/3 47/8/3 46/16/3 
f 9/8/6 2/2/6 48/2/6 47/8/6 
f 2/2/5 16/18/5 45/18/5 48/2/5 
f 16/18/4 28/16/4 46/16/4 45/18/4 
# 46 polygons

