# 3ds Max Wavefront OBJ Exporter v0.97b - (c)2007 guruware
# File Created: 30.05.2016 22:31:58

mtllib big pot.mtl

#
# object Cylinder030
#

v  -64.0445 116.9991 -199.1951
v  -66.0541 116.9991 -206.6951
v  -66.0541 136.9991 -206.6951
v  -64.0445 136.9991 -199.1951
v  -71.5445 116.9991 -212.1855
v  -71.5445 136.9991 -212.1855
v  -79.0445 116.9991 -214.1951
v  -79.0445 136.9991 -214.1951
v  -86.5445 116.9991 -212.1855
v  -86.5445 136.9991 -212.1855
v  -92.0349 116.9991 -206.6951
v  -92.0349 136.9991 -206.6951
v  -94.0445 116.9991 -199.1951
v  -94.0445 136.9991 -199.1951
v  -92.0349 116.9991 -191.6951
v  -92.0349 136.9991 -191.6951
v  -86.5445 116.9991 -186.2047
v  -86.5445 136.9991 -186.2047
v  -79.0445 116.9991 -184.1951
v  -79.0445 136.9991 -184.1951
v  -71.5445 116.9991 -186.2047
v  -71.5445 136.9991 -186.2047
v  -66.0541 116.9991 -191.6951
v  -66.0541 136.9991 -191.6951
v  -79.0445 117.6253 -185.7712
v  -72.3325 117.6253 -187.5697
v  -67.4190 117.6253 -192.4832
v  -85.7564 117.6253 -187.5697
v  -65.6206 117.6253 -199.1951
v  -67.4190 136.9991 -205.9071
v  -65.6206 136.9991 -199.1951
v  -72.3325 136.9991 -210.8206
v  -79.0445 136.9991 -212.6190
v  -85.7564 136.9991 -210.8206
v  -90.6699 136.9991 -205.9071
v  -92.4684 136.9991 -199.1951
v  -90.6699 136.9991 -192.4832
v  -85.7564 136.9991 -187.5697
v  -79.0445 136.9991 -185.7712
v  -72.3325 136.9991 -187.5697
v  -67.4190 136.9991 -192.4832
v  -67.4190 117.6253 -205.9071
v  -72.3325 117.6253 -210.8206
v  -79.0445 117.6253 -212.6190
v  -85.7564 117.6253 -210.8206
v  -90.6699 117.6253 -205.9071
v  -92.4684 117.6253 -199.1951
v  -90.6699 117.6253 -192.4832
# 48 vertices

vn 0.9659 0.0000 -0.2588
vn 0.7071 0.0000 -0.7071
vn 0.2588 0.0000 -0.9659
vn -0.2588 0.0000 -0.9659
vn -0.7071 0.0000 -0.7071
vn -0.9659 0.0000 -0.2588
vn -0.9659 0.0000 0.2588
vn -0.7071 0.0000 0.7071
vn -0.2588 0.0000 0.9659
vn 0.2588 0.0000 0.9659
vn 0.7071 0.0000 0.7071
vn 0.9659 0.0000 0.2588
vn 0.0000 -1.0000 -0.0000
vn 0.0000 1.0000 -0.0000
# 14 vertex normals

vt 0.9418 0.3938 0.0000
vt 0.9414 0.3727 0.0000
vt 0.9970 0.3727 0.0000
vt 0.9966 0.3938 0.0000
vt 0.9414 0.6213 0.0000
vt 0.9418 0.6002 0.0000
vt 0.9966 0.6002 0.0000
vt 0.9970 0.6213 0.0000
vt 0.9418 0.5795 0.0000
vt 0.9966 0.5795 0.0000
vt 0.9418 0.5589 0.0000
vt 0.9966 0.5589 0.0000
vt 0.9418 0.5383 0.0000
vt 0.9966 0.5383 0.0000
vt 0.9418 0.5176 0.0000
vt 0.9966 0.5176 0.0000
vt 0.9418 0.4970 0.0000
vt 0.9966 0.4970 0.0000
vt 0.9418 0.4764 0.0000
vt 0.9966 0.4764 0.0000
vt 0.9418 0.4557 0.0000
vt 0.9966 0.4557 0.0000
vt 0.9418 0.4351 0.0000
vt 0.9966 0.4351 0.0000
vt 0.9418 0.4144 0.0000
vt 0.9966 0.4144 0.0000
vt 0.8409 0.4804 0.0000
vt 0.8133 0.4737 0.0000
vt 0.7889 0.4824 0.0000
vt 0.8639 0.5285 0.0000
vt 0.8591 0.5007 0.0000
vt 0.8126 0.4796 0.0313
vt 0.8376 0.4863 0.0313
vt 0.8559 0.5046 0.0313
vt 0.7884 0.4867 0.0313
vt 0.8619 0.5292 0.0313
vt 0.8803 0.5272 1.0000
vt 0.8717 0.5607 1.0000
vt 0.8657 0.5574 1.0000
vt 0.8734 0.5272 1.0000
vt 0.8704 0.5630 1.0000
vt 0.8456 0.5872 1.0000
vt 0.8422 0.5812 1.0000
vt 0.8646 0.5594 1.0000
vt 0.8111 0.5964 1.0000
vt 0.8111 0.5895 1.0000
vt 0.7765 0.5871 1.0000
vt 0.7800 0.5811 1.0000
vt 0.7512 0.5618 1.0000
vt 0.7572 0.5583 1.0000
vt 0.7419 0.5272 1.0000
vt 0.7488 0.5272 1.0000
vt 0.7512 0.4926 1.0000
vt 0.7572 0.4961 1.0000
vt 0.7765 0.4673 1.0000
vt 0.7800 0.4733 1.0000
vt 0.8111 0.4580 1.0000
vt 0.8111 0.4650 1.0000
vt 0.8457 0.4673 1.0000
vt 0.8422 0.4733 1.0000
vt 0.8710 0.4926 1.0000
vt 0.8650 0.4961 1.0000
vt 0.8831 0.4113 1.0000
vt 0.8827 0.3924 0.0000
vt 0.9365 0.3924 0.0000
vt 0.9362 0.4113 0.0000
vt 0.8827 0.6149 0.0000
vt 0.8830 0.5960 0.0000
vt 0.9362 0.5960 0.0000
vt 0.9365 0.6149 0.0000
vt 0.8831 0.5775 0.0000
vt 0.9362 0.5775 0.0000
vt 0.8831 0.5590 0.0000
vt 0.9362 0.5590 0.0000
vt 0.8831 0.5406 0.0000
vt 0.9362 0.5406 0.0000
vt 0.8831 0.5221 1.0000
vt 0.9362 0.5221 0.0000
vt 0.8831 0.5037 0.0000
vt 0.9362 0.5037 0.0000
vt 0.8831 0.4852 0.0000
vt 0.9362 0.4852 0.0000
vt 0.8831 0.4667 0.0000
vt 0.9362 0.4667 0.0000
vt 0.8831 0.4483 0.0000
vt 0.9362 0.4483 0.0000
vt 0.8831 0.4298 0.0000
vt 0.9362 0.4298 0.0000
vt 0.8368 0.5726 0.0313
vt 0.7633 0.5301 0.0313
vt 0.7702 0.5051 0.0313
vt 0.8550 0.5542 0.0313
vt 0.7876 0.5730 0.0313
vt 0.7693 0.5547 0.0313
vt 0.8125 0.5797 0.0313
vt 0.7613 0.5277 0.0000
vt 0.8362 0.5738 0.0000
vt 0.8592 0.5472 0.0000
vt 0.7660 0.5090 0.0000
vt 0.7843 0.5758 0.0000
vt 0.8118 0.5824 0.0000
vt 0.7661 0.5555 0.0000
# 102 texture coords

g Cylinder030
usemtl Material__27
s 1
f 1/1/1 2/2/1 3/3/1 4/4/1 
s 2
f 2/5/2 5/6/2 6/7/2 3/8/2 
s 1
f 5/6/3 7/9/3 8/10/3 6/7/3 
s 2
f 7/9/4 9/11/4 10/12/4 8/10/4 
s 1
f 9/11/5 11/13/5 12/14/5 10/12/5 
s 2
f 11/13/6 13/15/6 14/16/6 12/14/6 
s 1
f 13/15/7 15/17/7 16/18/7 14/16/7 
s 2
f 15/17/8 17/19/8 18/20/8 16/18/8 
s 1
f 17/19/9 19/21/9 20/22/9 18/20/9 
s 2
f 19/21/10 21/23/10 22/24/10 20/22/10 
s 1
f 21/23/11 23/25/11 24/26/11 22/24/11 
s 2
f 23/25/12 1/1/12 4/4/12 24/26/12 
s 4
f 21/27/13 19/28/13 17/29/13 1/30/13 
f 23/31/13 21/27/13 1/30/13 
s 1
f 25/32/14 26/33/14 27/34/14 28/35/14 
f 29/36/14 28/35/14 27/34/14 
s 4
f 4/37/14 3/38/14 30/39/14 31/40/14 
f 3/41/14 6/42/14 32/43/14 30/44/14 
f 6/42/14 8/45/14 33/46/14 32/43/14 
f 8/45/14 10/47/14 34/48/14 33/46/14 
f 10/47/14 12/49/14 35/50/14 34/48/14 
f 12/49/14 14/51/14 36/52/14 35/50/14 
f 14/51/14 16/53/14 37/54/14 36/52/14 
f 16/53/14 18/55/14 38/56/14 37/54/14 
f 18/55/14 20/57/14 39/58/14 38/56/14 
f 20/57/14 22/59/14 40/60/14 39/58/14 
f 22/59/14 24/61/14 41/62/14 40/60/14 
f 24/61/14 4/37/14 31/40/14 41/62/14 
s 2
f 31/63/7 30/64/7 42/65/7 29/66/7 
s 8
f 30/67/8 32/68/8 43/69/8 42/70/8 
s 2
f 32/68/9 33/71/9 44/72/9 43/69/9 
s 8
f 33/71/10 34/73/10 45/74/10 44/72/10 
s 2
f 34/73/11 35/75/11 46/76/11 45/74/11 
s 8
f 35/75/12 36/77/12 47/78/12 46/76/12 
s 2
f 36/77/1 37/79/1 48/80/1 47/78/1 
s 8
f 37/79/2 38/81/2 28/82/2 48/80/2 
s 2
f 38/81/3 39/83/3 25/84/3 28/82/3 
s 8
f 39/83/4 40/85/4 26/86/4 25/84/4 
s 2
f 40/85/5 41/87/5 27/88/5 26/86/5 
s 8
f 41/87/6 31/63/6 29/66/6 27/88/6 
s 1
f 43/89/14 47/90/14 48/91/14 42/92/14 
f 42/92/14 48/91/14 28/35/14 29/36/14 
f 45/93/14 46/94/14 47/90/14 44/95/14 
f 43/89/14 44/95/14 47/90/14 
s 4
f 13/96/13 5/97/13 2/98/13 15/99/13 
f 15/99/13 2/98/13 1/30/13 17/29/13 
f 9/100/13 7/101/13 5/97/13 11/102/13 
f 13/96/13 11/102/13 5/97/13 
# 44 polygons - 4 triangles

