# 3ds Max Wavefront OBJ Exporter v0.97b - (c)2007 guruware
# File Created: 07.04.2016 16:33:52

mtllib bottle 01.mtl

#
# object Cylinder013
#

v  8.5018 0.0000 -0.0000
v  6.0117 0.0000 -6.0117
v  6.0117 12.4369 -6.0117
v  8.5018 12.4369 -0.0000
v  -0.0000 0.0000 -8.5018
v  -0.0000 12.4369 -8.5018
v  -6.0117 0.0000 -6.0117
v  -6.0117 12.4369 -6.0117
v  -8.5018 0.0000 0.0000
v  -8.5018 12.4369 0.0000
v  -6.0117 0.0000 6.0117
v  -6.0117 12.4369 6.0117
v  0.0000 0.0000 8.5018
v  0.0000 12.4369 8.5018
v  6.0117 0.0000 6.0117
v  6.0117 12.4369 6.0117
v  4.9207 14.8393 -4.9207
v  6.9589 14.8393 -0.0000
v  -0.0000 14.8393 -6.9589
v  -4.9207 14.8393 -4.9207
v  -6.9589 14.8393 0.0000
v  -4.9207 14.8393 4.9207
v  0.0000 14.8393 6.9589
v  4.9207 14.8393 4.9207
v  1.9536 17.2916 -0.0000
v  1.3814 17.2916 -1.3814
v  1.3814 26.0579 -1.3814
v  1.9536 26.0579 -0.0000
v  -0.0000 17.2916 -1.9536
v  -0.0000 26.0579 -1.9536
v  -1.3814 17.2916 -1.3814
v  -1.3814 26.0579 -1.3814
v  -1.9536 17.2916 0.0000
v  -1.9536 26.0579 0.0000
v  -1.3814 17.2916 1.3814
v  -1.3814 26.0579 1.3814
v  0.0000 17.2916 1.9536
v  0.0000 26.0579 1.9536
v  1.3814 17.2916 1.3814
v  1.3814 26.0579 1.3814
# 40 vertices

vn 0.9239 0.0000 -0.3827
vn 0.3827 0.0000 -0.9239
vn -0.3827 0.0000 -0.9239
vn -0.9239 0.0000 -0.3827
vn -0.9239 0.0000 0.3827
vn -0.3827 0.0000 0.9239
vn 0.3827 0.0000 0.9239
vn 0.9239 0.0000 0.3827
vn 0.8827 0.2953 -0.3656
vn 0.3656 0.2953 -0.8827
vn -0.3656 0.2953 -0.8827
vn -0.8827 0.2953 -0.3656
vn -0.8827 0.2953 0.3656
vn -0.3656 0.2953 0.8827
vn 0.3656 0.2953 0.8827
vn 0.8827 0.2953 0.3656
vn 0.0000 -1.0000 -0.0000
vn 0.0000 1.0000 -0.0000
vn 0.6591 0.7008 -0.2730
vn 0.2730 0.7008 -0.6591
vn -0.2730 0.7008 -0.6591
vn -0.6591 0.7008 -0.2730
vn -0.6591 0.7008 0.2730
vn -0.2730 0.7008 0.6591
vn 0.2730 0.7008 0.6591
vn 0.6591 0.7008 0.2730
# 26 vertex normals

vt 0.7500 0.0000 1.0000
vt 0.8750 0.0000 1.0000
vt 0.8750 0.3333 1.0000
vt 0.7500 0.3333 1.0000
vt 1.0000 0.0000 1.0000
vt 1.0000 0.3333 1.0000
vt 0.0000 0.0000 1.0000
vt 0.1250 0.0000 1.0000
vt 0.1250 0.3333 1.0000
vt 0.0000 0.3333 1.0000
vt 0.2500 0.0000 1.0000
vt 0.2500 0.3333 1.0000
vt 0.3750 0.0000 1.0000
vt 0.3750 0.3333 1.0000
vt 0.5000 0.0000 1.0000
vt 0.5000 0.3333 1.0000
vt 0.6250 0.0000 1.0000
vt 0.6250 0.3333 1.0000
vt 0.8750 0.4657 1.0000
vt 0.7500 0.4657 1.0000
vt 1.0000 0.4657 1.0000
vt 0.1250 0.4657 1.0000
vt 0.0000 0.4657 1.0000
vt 0.2500 0.4657 1.0000
vt 0.3750 0.4657 1.0000
vt 0.5000 0.4657 1.0000
vt 0.6250 0.4657 1.0000
vt 0.7500 0.6667 1.0000
vt 0.8750 0.6667 1.0000
vt 0.8750 1.0000 1.0000
vt 0.7500 1.0000 1.0000
vt 1.0000 0.6667 1.0000
vt 1.0000 1.0000 1.0000
vt 0.0000 0.6667 1.0000
vt 0.1250 0.6667 1.0000
vt 0.1250 1.0000 1.0000
vt 0.0000 1.0000 1.0000
vt 0.2500 0.6667 1.0000
vt 0.2500 1.0000 1.0000
vt 0.3750 0.6667 1.0000
vt 0.3750 1.0000 1.0000
vt 0.5000 0.6667 1.0000
vt 0.5000 1.0000 1.0000
vt 0.6250 0.6667 1.0000
vt 0.6250 1.0000 1.0000
vt 1.0000 0.5000 -0.2500
vt 0.8536 0.1464 -0.2500
vt 0.5000 0.0000 -0.2500
vt 0.5000 1.0000 -0.2500
vt 0.1464 0.1464 -0.2500
vt 0.0000 0.5000 -0.2500
vt 0.1464 0.8536 -0.2500
vt 0.8536 0.8536 -0.2500
vt 0.1464 0.8536 0.2500
vt 0.0000 0.5000 0.2500
vt 0.1464 0.1464 0.2500
vt 0.8536 0.8536 0.2500
vt 0.5000 0.0000 0.2500
vt 0.8536 0.1464 0.2500
vt 1.0000 0.5000 0.2500
vt 0.5000 1.0000 0.2500
# 61 texture coords

g Cylinder013
usemtl Material__29
s 1
f 1/1/1 2/2/1 3/3/1 4/4/1 
s 2
f 2/2/2 5/5/2 6/6/2 3/3/2 
s 1
f 5/7/3 7/8/3 8/9/3 6/10/3 
s 2
f 7/8/4 9/11/4 10/12/4 8/9/4 
s 1
f 9/11/5 11/13/5 12/14/5 10/12/5 
s 2
f 11/13/6 13/15/6 14/16/6 12/14/6 
s 1
f 13/15/7 15/17/7 16/18/7 14/16/7 
s 2
f 15/17/8 1/1/8 4/4/8 16/18/8 
s 4
f 3/3/9 17/19/9 18/20/9 4/4/9 
s 8
f 6/6/10 19/21/10 17/19/10 3/3/10 
s 4
f 8/9/11 20/22/11 19/23/11 6/10/11 
s 8
f 10/12/12 21/24/12 20/22/12 8/9/12 
s 4
f 12/14/13 22/25/13 21/24/13 10/12/13 
s 8
f 14/16/14 23/26/14 22/25/14 12/14/14 
s 4
f 16/18/15 24/27/15 23/26/15 14/16/15 
s 8
f 4/4/16 18/20/16 24/27/16 16/18/16 
s 1
f 25/28/1 26/29/1 27/30/1 28/31/1 
s 2
f 26/29/2 29/32/2 30/33/2 27/30/2 
s 1
f 29/34/3 31/35/3 32/36/3 30/37/3 
s 2
f 31/35/4 33/38/4 34/39/4 32/36/4 
s 1
f 33/38/5 35/40/5 36/41/5 34/39/5 
s 2
f 35/40/6 37/42/6 38/43/6 36/41/6 
s 1
f 37/42/7 39/44/7 40/45/7 38/43/7 
s 2
f 39/44/8 25/28/8 28/31/8 40/45/8 
s 4
f 13/46/17 11/47/17 9/48/17 1/49/17 
f 9/48/17 7/50/17 5/51/17 1/49/17 
f 5/51/17 2/52/17 1/49/17 
f 15/53/17 13/46/17 1/49/17 
f 27/54/18 30/55/18 32/56/18 40/57/18 
f 32/56/18 34/58/18 36/59/18 40/57/18 
f 36/59/18 38/60/18 40/57/18 
f 28/61/18 27/54/18 40/57/18 
s 16
f 26/29/19 25/28/19 18/20/19 17/19/19 
s 32
f 29/32/20 26/29/20 17/19/20 19/21/20 
s 16
f 31/35/21 29/34/21 19/23/21 20/22/21 
s 32
f 33/38/22 31/35/22 20/22/22 21/24/22 
s 16
f 35/40/23 33/38/23 21/24/23 22/25/23 
s 32
f 37/42/24 35/40/24 22/25/24 23/26/24 
s 16
f 39/44/25 37/42/25 23/26/25 24/27/25 
s 32
f 25/28/26 39/44/26 24/27/26 18/20/26 
# 36 polygons - 4 triangles

