# 3ds Max Wavefront OBJ Exporter v0.97b - (c)2007 guruware
# File Created: 13.05.2016 20:52:38

mtllib bottle 01.mtl

#
# object Cylinder026
#

v  60.5183 15.9509 -194.2218
v  58.0282 15.9509 -200.2335
v  58.0282 28.3878 -200.2335
v  60.5183 28.3878 -194.2218
v  52.0166 15.9509 -202.7236
v  52.0166 28.3878 -202.7236
v  46.0049 15.9509 -200.2335
v  46.0049 28.3878 -200.2335
v  43.5148 15.9509 -194.2218
v  43.5148 28.3878 -194.2218
v  46.0049 15.9509 -188.2101
v  46.0049 28.3878 -188.2101
v  52.0166 15.9509 -185.7200
v  52.0166 28.3878 -185.7200
v  58.0282 15.9509 -188.2101
v  58.0282 28.3878 -188.2101
v  56.9372 30.7902 -199.1425
v  58.9754 30.7902 -194.2218
v  52.0166 30.7902 -201.1807
v  47.0959 30.7902 -199.1425
v  45.0577 30.7902 -194.2218
v  47.0959 30.7902 -189.3011
v  52.0166 30.7902 -187.2629
v  56.9372 30.7902 -189.3011
v  53.9702 33.2425 -194.2218
v  53.3980 33.2425 -195.6032
v  53.3980 36.4745 -195.6032
v  53.9702 36.4745 -194.2218
v  52.0166 33.2425 -196.1754
v  52.0166 36.4745 -196.1754
v  50.6351 33.2425 -195.6032
v  50.6351 36.4745 -195.6032
v  50.0629 33.2425 -194.2218
v  50.0629 36.4745 -194.2218
v  50.6351 33.2425 -192.8404
v  50.6351 36.4745 -192.8404
v  52.0166 33.2425 -192.2682
v  52.0166 36.4745 -192.2682
v  53.3980 33.2425 -192.8404
v  53.3980 36.4745 -192.8404
# 40 vertices

vn 0.9239 0.0000 -0.3827
vn 0.3827 0.0000 -0.9239
vn -0.3827 0.0000 -0.9239
vn -0.9239 0.0000 -0.3827
vn -0.9239 0.0000 0.3827
vn -0.3827 0.0000 0.9239
vn 0.3827 0.0000 0.9239
vn 0.9239 0.0000 0.3827
vn 0.8827 0.2953 -0.3656
vn 0.3656 0.2953 -0.8827
vn -0.3656 0.2953 -0.8827
vn -0.8827 0.2953 -0.3656
vn -0.8827 0.2953 0.3656
vn -0.3656 0.2953 0.8827
vn 0.3656 0.2953 0.8827
vn 0.8827 0.2953 0.3656
vn 0.0000 -1.0000 -0.0000
vn 0.0000 1.0000 -0.0000
vn 0.6591 0.7008 -0.2730
vn 0.2730 0.7008 -0.6591
vn -0.2730 0.7008 -0.6591
vn -0.6591 0.7008 -0.2730
vn -0.6591 0.7008 0.2730
vn -0.2730 0.7008 0.6591
vn 0.2730 0.7008 0.6591
vn 0.6591 0.7008 0.2730
# 26 vertex normals

vt 0.7117 0.9069 0.0000
vt 0.7309 0.9069 0.0000
vt 0.7309 0.9776 0.0000
vt 0.7117 0.9776 0.0000
vt 0.7502 0.9069 0.0000
vt 0.7502 0.9776 0.0000
vt 0.5961 0.9069 0.0000
vt 0.6154 0.9069 0.0000
vt 0.6154 0.9776 0.0000
vt 0.5961 0.9776 0.0000
vt 0.6346 0.9069 0.0000
vt 0.6347 0.9776 0.0000
vt 0.6539 0.9069 0.0000
vt 0.6539 0.9776 0.0000
vt 0.6732 0.9069 0.0000
vt 0.6732 0.9776 0.0000
vt 0.6924 0.9069 0.0000
vt 0.6924 0.9776 0.0000
vt 0.7020 0.7823 0.0000
vt 0.7003 0.7971 0.0000
vt 0.6827 0.7960 0.0000
vt 0.6834 0.7811 0.0000
vt 0.7214 0.7848 0.0000
vt 0.7172 0.7997 0.0000
vt 0.5909 0.7822 0.0000
vt 0.5928 0.7972 0.0000
vt 0.5758 0.7998 0.0000
vt 0.5715 0.7847 0.0000
vt 0.6095 0.7811 0.0000
vt 0.6105 0.7960 0.0000
vt 0.6280 0.7805 0.0000
vt 0.6285 0.7955 0.0000
vt 0.6465 0.7803 0.0000
vt 0.6466 0.7953 0.0000
vt 0.6649 0.7805 0.0000
vt 0.6647 0.7955 0.0000
vt 0.6265 0.8092 0.8425
vt 0.6311 0.8092 0.0000
vt 0.6311 0.8286 0.0000
vt 0.6265 0.8286 0.0000
vt 0.6358 0.8092 0.0000
vt 0.6358 0.8286 0.0000
vt 0.5988 0.8092 0.0000
vt 0.6034 0.8092 0.0000
vt 0.6034 0.8286 0.0000
vt 0.5988 0.8286 0.0000
vt 0.6080 0.8092 0.8425
vt 0.6080 0.8286 0.0000
vt 0.6127 0.8092 0.0000
vt 0.6127 0.8286 0.0000
vt 0.6173 0.8092 0.0000
vt 0.6173 0.8286 0.0000
vt 0.6219 0.8092 0.0000
vt 0.6219 0.8286 0.0000
vt 0.7145 0.8082 0.0000
vt 0.6872 0.8187 0.0000
vt 0.6753 0.8455 0.0000
vt 0.7518 0.8475 0.0000
vt 0.6858 0.8729 0.0000
vt 0.7125 0.8848 0.0000
vt 0.7399 0.8743 0.0000
vt 0.7413 0.8202 0.0000
vt 0.6710 0.8733 1.0000
vt 0.6646 0.8760 1.0000
vt 0.6582 0.8733 1.0000
vt 0.6710 0.8605 1.0000
vt 0.6556 0.8669 1.0000
vt 0.6582 0.8605 1.0000
vt 0.6646 0.8579 1.0000
vt 0.6736 0.8669 1.0000
vt 0.6230 0.8551 0.0000
vt 0.6269 0.8508 0.0000
vt 0.6499 0.8617 0.7230
vt 0.6367 0.8767 0.0000
vt 0.6174 0.8568 0.0000
vt 0.6174 0.8823 0.0000
vt 0.6118 0.8551 0.0000
vt 0.5982 0.8767 0.0000
vt 0.6080 0.8508 0.0000
vt 0.5849 0.8617 0.7230
vt 0.6071 0.8450 0.0000
vt 0.5817 0.8419 0.0000
vt 0.6092 0.8397 0.0000
vt 0.5896 0.8238 0.0000
vt 0.6278 0.8450 0.0000
vt 0.6256 0.8397 0.0000
vt 0.6453 0.8238 0.0000
vt 0.6531 0.8419 0.0000
# 88 texture coords

g Cylinder026
usemtl Material__27
s 1
f 1/1/1 2/2/1 3/3/1 4/4/1 
s 2
f 2/2/2 5/5/2 6/6/2 3/3/2 
s 1
f 5/7/3 7/8/3 8/9/3 6/10/3 
s 2
f 7/8/4 9/11/4 10/12/4 8/9/4 
s 1
f 9/11/5 11/13/5 12/14/5 10/12/5 
s 2
f 11/13/6 13/15/6 14/16/6 12/14/6 
s 1
f 13/15/7 15/17/7 16/18/7 14/16/7 
s 2
f 15/17/8 1/1/8 4/4/8 16/18/8 
s 4
f 3/19/9 17/20/9 18/21/9 4/22/9 
s 8
f 6/23/10 19/24/10 17/20/10 3/19/10 
s 4
f 8/25/11 20/26/11 19/27/11 6/28/11 
s 8
f 10/29/12 21/30/12 20/26/12 8/25/12 
s 4
f 12/31/13 22/32/13 21/30/13 10/29/13 
s 8
f 14/33/14 23/34/14 22/32/14 12/31/14 
s 4
f 16/35/15 24/36/15 23/34/15 14/33/15 
s 8
f 4/22/16 18/21/16 24/36/16 16/35/16 
s 1
f 25/37/1 26/38/1 27/39/1 28/40/1 
s 2
f 26/38/2 29/41/2 30/42/2 27/39/2 
s 1
f 29/43/3 31/44/3 32/45/3 30/46/3 
s 2
f 31/44/4 33/47/4 34/48/4 32/45/4 
s 1
f 33/47/5 35/49/5 36/50/5 34/48/5 
s 2
f 35/49/6 37/51/6 38/52/6 36/50/6 
s 1
f 37/51/7 39/53/7 40/54/7 38/52/7 
s 2
f 39/53/8 25/37/8 28/40/8 40/54/8 
s 4
f 13/55/17 11/56/17 9/57/17 1/58/17 
f 9/57/17 7/59/17 5/60/17 1/58/17 
f 5/60/17 2/61/17 1/58/17 
f 15/62/17 13/55/17 1/58/17 
f 27/63/18 30/64/18 32/65/18 40/66/18 
f 32/65/18 34/67/18 36/68/18 40/66/18 
f 36/68/18 38/69/18 40/66/18 
f 28/70/18 27/63/18 40/66/18 
s 16
f 26/71/19 25/72/19 18/73/19 17/74/19 
s 32
f 29/75/20 26/71/20 17/74/20 19/76/20 
s 16
f 31/77/21 29/75/21 19/76/21 20/78/21 
s 32
f 33/79/22 31/77/22 20/78/22 21/80/22 
s 16
f 35/81/23 33/79/23 21/80/23 22/82/23 
s 32
f 37/83/24 35/81/24 22/82/24 23/84/24 
s 16
f 39/85/25 37/86/25 23/87/25 24/88/25 
s 32
f 25/72/26 39/85/26 24/88/26 18/73/26 
# 36 polygons - 4 triangles

