# 3ds Max Wavefront OBJ Exporter v0.97b - (c)2007 guruware
# File Created: 07.04.2016 16:34:11

mtllib jar02.mtl

#
# object Cylinder020
#

v  5.5850 0.0000 0.0000
v  3.9492 0.0000 -3.9492
v  3.9492 1.0353 -3.9492
v  5.5850 1.0353 0.0000
v  -0.0000 0.0000 -5.5850
v  -0.0000 1.0353 -5.5850
v  -3.9492 0.0000 -3.9492
v  -3.9492 1.0353 -3.9492
v  -5.5850 0.0000 0.0000
v  -5.5850 1.0353 0.0000
v  -3.9492 0.0000 3.9492
v  -3.9492 1.0353 3.9492
v  0.0000 0.0000 5.5850
v  0.0000 1.0353 5.5850
v  3.9492 0.0000 3.9492
v  3.9492 1.0353 3.9492
v  5.0000 1.0353 -0.0000
v  3.5355 1.0353 -3.5355
v  3.5355 17.0028 -3.5355
v  5.0000 17.0028 -0.0000
v  -0.0000 1.0353 -5.0000
v  -0.0000 17.0028 -5.0000
v  -3.5355 1.0353 -3.5355
v  -3.5355 17.0028 -3.5355
v  -5.0000 1.0353 0.0000
v  -5.0000 17.0028 0.0000
v  -3.5355 1.0353 3.5355
v  -3.5355 17.0028 3.5355
v  0.0000 1.0353 5.0000
v  0.0000 17.0028 5.0000
v  3.5355 1.0353 3.5355
v  3.5355 17.0028 3.5355
v  2.3971 18.0172 -2.3971
v  3.3900 18.0172 -0.0000
v  -0.0000 18.0172 -3.3900
v  -2.3971 18.0172 -2.3971
v  -3.3900 18.0172 0.0000
v  -2.3971 18.0172 2.3971
v  0.0000 18.0172 3.3900
v  2.3971 18.0172 2.3971
# 40 vertices

vn 0.9239 0.0000 -0.3827
vn 0.3827 0.0000 -0.9239
vn -0.3827 0.0000 -0.9239
vn -0.9239 0.0000 -0.3827
vn -0.9239 0.0000 0.3827
vn -0.3827 0.0000 0.9239
vn 0.3827 0.0000 0.9239
vn 0.9239 0.0000 0.3827
vn 0.5206 0.8261 -0.2156
vn 0.2156 0.8261 -0.5206
vn -0.2156 0.8261 -0.5206
vn -0.5206 0.8261 -0.2156
vn -0.5206 0.8261 0.2156
vn -0.2156 0.8261 0.5206
vn 0.2156 0.8261 0.5206
vn 0.5206 0.8261 0.2156
vn 0.0000 1.0000 -0.0000
vn 0.0000 -1.0000 -0.0000
# 18 vertex normals

vt 0.7500 0.0000 1.0000
vt 0.8750 0.0000 1.0000
vt 0.8750 0.3333 1.0000
vt 0.7500 0.3333 1.0000
vt 1.0000 0.0000 1.0000
vt 1.0000 0.3333 1.0000
vt 0.0000 0.0000 1.0000
vt 0.1250 0.0000 1.0000
vt 0.1250 0.3333 1.0000
vt 0.0000 0.3333 1.0000
vt 0.2500 0.0000 1.0000
vt 0.2500 0.3333 1.0000
vt 0.3750 0.0000 1.0000
vt 0.3750 0.3333 1.0000
vt 0.5000 0.0000 1.0000
vt 0.5000 0.3333 1.0000
vt 0.6250 0.0000 1.0000
vt 0.6250 0.3333 1.0000
vt 0.8750 1.0000 1.0000
vt 0.7500 1.0000 1.0000
vt 1.0000 1.0000 1.0000
vt 0.1250 1.0000 1.0000
vt 0.0000 1.0000 1.0000
vt 0.2500 1.0000 1.0000
vt 0.3750 1.0000 1.0000
vt 0.5000 1.0000 1.0000
vt 0.6250 1.0000 1.0000
vt 0.5000 1.0000 0.2500
vt 0.1464 0.8536 0.2500
vt 0.3232 0.6768 0.2500
vt 0.5000 0.7500 0.2500
vt 0.0000 0.5000 0.2500
vt 0.2500 0.5000 0.2500
vt 0.1464 0.1464 0.2500
vt 0.3232 0.3232 0.2500
vt 0.5000 0.0000 0.2500
vt 0.5000 0.2500 0.2500
vt 0.8536 0.1464 0.2500
vt 0.6768 0.3232 0.2500
vt 1.0000 0.5000 0.2500
vt 0.7500 0.5000 0.2500
vt 0.8536 0.8536 0.2500
vt 0.6768 0.6768 0.2500
vt 0.1051 0.1051 -0.2500
vt -0.0585 0.5000 -0.2500
vt 0.1051 0.8949 -0.2500
vt 0.5000 1.0585 -0.2500
vt 1.0585 0.5000 -0.2500
vt 0.8949 0.1051 -0.2500
vt 0.5000 -0.0585 -0.2500
vt 0.8949 0.8949 -0.2500
# 51 texture coords

g Cylinder020
usemtl Material__30
s 1
f 1/1/1 2/2/1 3/3/1 4/4/1 
s 2
f 2/2/2 5/5/2 6/6/2 3/3/2 
s 1
f 5/7/3 7/8/3 8/9/3 6/10/3 
s 2
f 7/8/4 9/11/4 10/12/4 8/9/4 
s 1
f 9/11/5 11/13/5 12/14/5 10/12/5 
s 2
f 11/13/6 13/15/6 14/16/6 12/14/6 
s 1
f 13/15/7 15/17/7 16/18/7 14/16/7 
s 2
f 15/17/8 1/1/8 4/4/8 16/18/8 
s 1
f 17/4/1 18/3/1 19/19/1 20/20/1 
s 2
f 18/3/2 21/6/2 22/21/2 19/19/2 
s 1
f 21/10/3 23/9/3 24/22/3 22/23/3 
s 2
f 23/9/4 25/12/4 26/24/4 24/22/4 
s 1
f 25/12/5 27/14/5 28/25/5 26/24/5 
s 2
f 27/14/6 29/16/6 30/26/6 28/25/6 
s 1
f 29/16/7 31/18/7 32/27/7 30/26/7 
s 2
f 31/18/8 17/4/8 20/20/8 32/27/8 
s 4
f 20/28/9 19/29/9 33/30/9 34/31/9 
s 8
f 19/29/10 22/32/10 35/33/10 33/30/10 
s 4
f 22/32/11 24/34/11 36/35/11 35/33/11 
s 8
f 24/34/12 26/36/12 37/37/12 36/35/12 
s 4
f 26/36/13 28/38/13 38/39/13 37/37/13 
s 8
f 28/38/14 30/40/14 39/41/14 38/39/14 
s 4
f 30/40/15 32/42/15 40/43/15 39/41/15 
s 8
f 32/42/16 20/28/16 34/31/16 40/43/16 
s 1
f 33/30/17 35/33/17 40/43/17 34/31/17 
s 4
f 7/44/18 5/45/18 2/46/18 1/47/18 
f 18/3/17 17/4/17 4/4/17 3/3/17 
f 17/4/17 31/18/17 16/18/17 4/4/17 
f 31/18/17 29/16/17 14/16/17 16/18/17 
f 29/16/17 27/14/17 12/14/17 14/16/17 
f 27/14/17 25/12/17 10/12/17 12/14/17 
f 25/12/17 23/9/17 8/9/17 10/12/17 
f 23/9/17 21/10/17 6/10/17 8/9/17 
f 21/6/17 18/3/17 3/3/17 6/6/17 
f 13/48/18 11/49/18 9/50/18 15/51/18 
f 15/51/18 9/50/18 7/44/18 1/47/18 
s 1
f 37/37/17 38/39/17 39/41/17 36/35/17 
f 36/35/17 39/41/17 40/43/17 35/33/17 
# 38 polygons

