# 3ds Max Wavefront OBJ Exporter v0.97b - (c)2007 guruware
# File Created: 13.05.2016 20:51:22

mtllib small bowl.mtl

#
# object Cone003
#

v  -85.1744 9.0247 -11.9638
v  -88.1034 9.0247 -19.0348
v  -81.0323 19.0247 -26.1059
v  -75.1744 19.0247 -11.9638
v  -95.1744 9.0247 -21.9638
v  -95.1744 19.0247 -31.9638
v  -102.2455 9.0247 -19.0348
v  -109.3166 19.0247 -26.1059
v  -105.1744 9.0247 -11.9638
v  -115.1744 19.0247 -11.9638
v  -102.2455 9.0247 -4.8927
v  -109.3166 19.0247 2.1784
v  -95.1744 9.0247 -1.9638
v  -95.1744 19.0247 8.0362
v  -88.1034 9.0247 -4.8927
v  -81.0323 19.0247 2.1784
v  -101.3544 9.8906 -5.7838
v  -95.1744 9.8906 -3.2239
v  -88.9944 9.8906 -5.7838
v  -86.4346 9.8906 -11.9638
v  -82.1975 19.0247 -24.9407
v  -76.8222 19.0247 -11.9638
v  -95.1744 19.0247 -30.3159
v  -108.1514 19.0247 -24.9407
v  -113.5266 19.0247 -11.9638
v  -108.1514 19.0247 1.0132
v  -95.1744 19.0247 6.3884
v  -82.1975 19.0247 1.0132
v  -88.9944 9.8906 -18.1437
v  -95.1744 9.8906 -20.7036
v  -101.3544 9.8906 -18.1437
v  -103.9142 9.8906 -11.9638
# 32 vertices

vn 0.6786 -0.6786 -0.2811
vn 0.2811 -0.6786 -0.6786
vn -0.2811 -0.6786 -0.6786
vn -0.6786 -0.6786 -0.2811
vn -0.6786 -0.6786 0.2811
vn -0.2811 -0.6786 0.6786
vn 0.2811 -0.6786 0.6786
vn 0.6786 -0.6786 0.2811
vn 0.0000 -1.0000 -0.0000
vn 0.0000 1.0000 -0.0000
vn -0.6624 0.6971 0.2744
vn -0.2744 0.6971 0.6624
vn 0.2744 0.6971 0.6624
vn 0.6624 0.6971 0.2744
vn 0.6624 0.6971 -0.2744
vn 0.2744 0.6971 -0.6624
vn -0.2744 0.6971 -0.6624
vn -0.6624 0.6971 -0.2744
# 18 vertex normals

vt 0.4775 0.7484 0.0000
vt 0.4816 0.7286 0.0000
vt 0.5211 0.7256 0.0000
vt 0.5128 0.7665 1.0000
vt 0.4740 0.7093 0.0000
vt 0.5064 0.6854 0.0000
vt 0.4147 0.7093 0.0000
vt 0.4071 0.7286 0.0000
vt 0.3676 0.7256 0.0000
vt 0.3823 0.6854 0.0000
vt 0.4111 0.7484 0.0000
vt 0.3759 0.7665 1.0000
vt 0.4249 0.7632 0.0000
vt 0.4042 0.7970 0.0000
vt 0.4443 0.7686 0.0000
vt 0.4443 0.8083 0.0000
vt 0.4638 0.7632 0.0000
vt 0.4845 0.7970 0.0000
vt 0.2611 0.7864 0.0000
vt 0.2242 0.7693 0.0000
vt 0.3141 0.7321 0.0000
vt 0.3002 0.7702 0.0000
vt 0.2293 0.6999 0.0000
vt 0.2615 0.6849 0.0866
vt 0.2957 0.6990 0.0000
vt 0.3079 0.7324 0.0000
vt 0.3296 0.7338 1.0000
vt 0.3098 0.7815 0.0000
vt 0.3059 0.7775 0.0000
vt 0.3240 0.7338 0.0000
vt 0.2622 0.8012 0.0000
vt 0.2622 0.7956 0.0000
vt 0.2146 0.7815 0.0000
vt 0.2185 0.7775 0.0000
vt 0.1948 0.7338 1.0000
vt 0.2004 0.7338 0.0000
vt 0.2146 0.6862 0.0000
vt 0.2185 0.6901 0.0000
vt 0.2622 0.6664 0.0000
vt 0.2622 0.6720 0.0000
vt 0.3098 0.6862 0.0000
vt 0.3059 0.6901 0.0000
vt 0.4576 0.6682 1.0000
vt 0.4639 0.7064 0.0000
vt 0.4267 0.7020 0.0000
vt 0.4238 0.6844 0.0000
vt 0.4485 0.7429 0.0000
vt 0.4192 0.7186 0.0000
vt 0.3411 0.7429 0.0000
vt 0.3256 0.7064 0.0000
vt 0.3629 0.7020 0.0000
vt 0.3704 0.7186 0.0000
vt 0.3320 0.6682 1.0000
vt 0.3658 0.6844 0.0000
vt 0.3577 0.6394 0.0000
vt 0.3776 0.6711 0.0000
vt 0.3948 0.6286 0.0000
vt 0.3948 0.6662 0.0000
vt 0.4319 0.6394 0.0000
vt 0.4119 0.6711 0.0000
vt 0.2613 0.7820 0.0866
vt 0.2271 0.7679 0.0000
vt 0.2149 0.7345 0.0000
vt 0.2935 0.7671 0.0000
vt 0.2078 0.7296 0.0000
vt 0.2977 0.6924 0.0000
vt 0.2218 0.6915 0.0000
vt 0.2608 0.6753 0.0000
# 68 texture coords

g Cone003
usemtl Material__27
s 1
f 1/1/1 2/2/1 3/3/1 4/4/1 
s 2
f 2/2/2 5/5/2 6/6/2 3/3/2 
s 1
f 5/7/3 7/8/3 8/9/3 6/10/3 
s 2
f 7/8/4 9/11/4 10/12/4 8/9/4 
s 1
f 9/11/5 11/13/5 12/14/5 10/12/5 
s 2
f 11/13/6 13/15/6 14/16/6 12/14/6 
s 1
f 13/15/7 15/17/7 16/18/7 14/16/7 
s 2
f 15/17/8 1/1/8 4/4/8 16/18/8 
s 4
f 13/19/9 11/20/9 1/21/9 15/22/9 
s 1
f 17/23/10 18/24/10 19/25/10 20/26/10 
s 4
f 4/27/10 3/28/10 21/29/10 22/30/10 
f 3/28/10 6/31/10 23/32/10 21/29/10 
f 6/31/10 8/33/10 24/34/10 23/32/10 
f 8/33/10 10/35/10 25/36/10 24/34/10 
f 10/35/10 12/37/10 26/38/10 25/36/10 
f 12/37/10 14/39/10 27/40/10 26/38/10 
f 14/39/10 16/41/10 28/42/10 27/40/10 
f 16/41/10 4/27/10 22/30/10 28/42/10 
s 2
f 22/43/11 21/44/11 29/45/11 20/46/11 
s 8
f 21/44/12 23/47/12 30/48/12 29/45/12 
s 2
f 23/49/13 24/50/13 31/51/13 30/52/13 
s 8
f 24/50/14 25/53/14 32/54/14 31/51/14 
s 2
f 25/53/15 26/55/15 17/56/15 32/54/15 
s 8
f 26/55/16 27/57/16 18/58/16 17/56/16 
s 2
f 27/57/17 28/59/17 19/60/17 18/58/17 
s 8
f 28/59/18 22/43/18 20/46/18 19/60/18 
s 1
f 30/61/10 31/62/10 32/63/10 29/64/10 
f 29/64/10 32/63/10 17/23/10 20/26/10 
s 4
f 9/65/9 2/66/9 1/21/9 11/20/9 
f 7/67/9 5/68/9 2/66/9 9/65/9 
# 30 polygons

