# 3ds Max Wavefront OBJ Exporter v0.97b - (c)2007 guruware
# File Created: 07.04.2016 16:33:18

mtllib small bowl.mtl

#
# object Cone002
#

v  10.0000 0.0000 -0.0000
v  7.0711 0.0000 -7.0711
v  14.1421 10.0000 -14.1421
v  20.0000 10.0000 -0.0000
v  -0.0000 0.0000 -10.0000
v  -0.0000 10.0000 -20.0000
v  -7.0711 0.0000 -7.0711
v  -14.1421 10.0000 -14.1421
v  -10.0000 0.0000 0.0000
v  -20.0000 10.0000 0.0000
v  -7.0711 0.0000 7.0711
v  -14.1421 10.0000 14.1421
v  0.0000 0.0000 10.0000
v  0.0000 10.0000 20.0000
v  7.0711 0.0000 7.0711
v  14.1421 10.0000 14.1421
v  -6.1800 0.8659 6.1800
v  0.0000 0.8659 8.7398
v  6.1800 0.8659 6.1800
v  8.7398 0.8659 -0.0000
v  12.9770 10.0000 -12.9770
v  18.3522 10.0000 -0.0000
v  -0.0000 10.0000 -18.3522
v  -12.9770 10.0000 -12.9770
v  -18.3522 10.0000 0.0000
v  -12.9770 10.0000 12.9770
v  0.0000 10.0000 18.3522
v  12.9770 10.0000 12.9770
v  6.1800 0.8659 -6.1800
v  -0.0000 0.8659 -8.7398
v  -6.1800 0.8659 -6.1800
v  -8.7398 0.8659 0.0000
# 32 vertices

vn 0.6786 -0.6786 -0.2811
vn 0.2811 -0.6786 -0.6786
vn -0.2811 -0.6786 -0.6786
vn -0.6786 -0.6786 -0.2811
vn -0.6786 -0.6786 0.2811
vn -0.2811 -0.6786 0.6786
vn 0.2811 -0.6786 0.6786
vn 0.6786 -0.6786 0.2811
vn 0.0000 -1.0000 -0.0000
vn 0.0000 1.0000 -0.0000
vn 1.0000 0.0000 -0.0000
vn -0.6624 0.6971 0.2744
vn -0.2744 0.6971 0.6624
vn 0.2744 0.6971 0.6624
vn 0.6624 0.6971 0.2744
vn 0.6624 0.6971 -0.2744
vn 0.2744 0.6971 -0.6624
vn -0.2744 0.6971 -0.6624
vn -0.6624 0.6971 -0.2744
# 19 vertex normals

vt 0.5000 0.7500 -0.2500
vt 0.3232 0.6768 -0.2500
vt 0.1464 0.8536 0.2500
vt 0.5000 1.0000 0.2500
vt 0.2500 0.5000 -0.2500
vt 0.0000 0.5000 0.2500
vt 0.3232 0.3232 -0.2500
vt 0.1464 0.1464 0.2500
vt 0.5000 0.2500 -0.2500
vt 0.5000 0.0000 0.2500
vt 0.6768 0.3232 -0.2500
vt 0.8536 0.1464 0.2500
vt 0.7500 0.5000 -0.2500
vt 1.0000 0.5000 0.2500
vt 0.6768 0.6768 -0.2500
vt 0.8536 0.8536 0.2500
# 16 texture coords

g Cone002
usemtl Material__27
s 1
f 1/1/1 2/2/1 3/3/1 4/4/1 
s 2
f 2/2/2 5/5/2 6/6/2 3/3/2 
s 1
f 5/5/3 7/7/3 8/8/3 6/6/3 
s 2
f 7/7/4 9/9/4 10/10/4 8/8/4 
s 1
f 9/9/5 11/11/5 12/12/5 10/10/5 
s 2
f 11/11/6 13/13/6 14/14/6 12/12/6 
s 1
f 13/13/7 15/15/7 16/16/7 14/14/7 
s 2
f 15/15/8 1/1/8 4/4/8 16/16/8 
s 4
f 13/13/9 11/11/9 1/1/9 15/15/9 
s 1
f 17/12/10 18/14/10 19/16/10 20/4/10 
s 4
f 4/4/11 3/3/11 3/3/10 4/4/10 
f 3/3/11 6/6/11 6/6/10 3/3/10 
f 6/6/11 8/8/11 8/8/10 6/6/10 
f 8/8/11 10/10/11 10/10/10 8/8/10 
f 10/10/11 12/12/11 12/12/10 10/10/10 
f 12/12/11 14/14/11 14/14/10 12/12/10 
f 14/14/11 16/16/11 16/16/10 14/14/10 
f 16/16/11 4/4/11 4/4/10 16/16/10 
f 4/4/10 3/3/10 21/3/10 22/4/10 
f 3/3/10 6/6/10 23/6/10 21/3/10 
f 6/6/10 8/8/10 24/8/10 23/6/10 
f 8/8/10 10/10/10 25/10/10 24/8/10 
f 10/10/10 12/12/10 26/12/10 25/10/10 
f 12/12/10 14/14/10 27/14/10 26/12/10 
f 14/14/10 16/16/10 28/16/10 27/14/10 
f 16/16/10 4/4/10 22/4/10 28/16/10 
s 2
f 22/4/12 21/3/12 29/3/12 20/4/12 
s 8
f 21/3/13 23/6/13 30/6/13 29/3/13 
s 2
f 23/6/14 24/8/14 31/8/14 30/6/14 
s 8
f 24/8/15 25/10/15 32/10/15 31/8/15 
s 2
f 25/10/16 26/12/16 17/12/16 32/10/16 
s 8
f 26/12/17 27/14/17 18/14/17 17/12/17 
s 2
f 27/14/18 28/16/18 19/16/18 18/14/18 
s 8
f 28/16/19 22/4/19 20/4/19 19/16/19 
s 1
f 30/6/10 31/8/10 32/10/10 29/3/10 
f 29/3/10 32/10/10 17/12/10 20/4/10 
s 4
f 9/9/9 2/2/9 1/1/9 11/11/9 
f 7/7/9 5/5/9 2/2/9 9/9/9 
# 38 polygons

