# 3ds Max Wavefront OBJ Exporter v0.97b - (c)2007 guruware
# File Created: 07.04.2016 16:34:53

mtllib spatula.mtl

#
# object Box012
#

v  -3.6739 0.0000 1.1216
v  -3.6739 0.0000 0.4539
v  -1.2246 0.0000 -1.2724
v  -1.2246 0.0000 -0.6048
v  1.2246 0.0000 -1.2724
v  1.2246 0.0000 -0.6048
v  3.6739 0.0000 0.4539
v  3.6739 0.0000 1.1216
v  -3.0000 10.0000 -0.0965
v  -1.0000 10.0000 -0.0965
v  -1.0000 10.0000 -1.0000
v  -3.0000 10.0000 -1.0000
v  -1.0000 35.7423 1.0000
v  1.0000 35.7423 1.0000
v  1.0000 35.7423 -1.0000
v  -1.0000 35.7423 -1.0000
v  1.0000 10.0000 -0.0965
v  3.0000 10.0000 -0.0965
v  3.0000 10.0000 -1.0000
v  1.0000 10.0000 -1.0000
# 20 vertices

vn 0.0000 -1.0000 -0.0000
vn 0.0000 1.0000 -0.0000
vn 0.5120 -0.0324 0.8584
vn 0.5753 -0.0544 0.8162
vn 0.1078 0.0917 0.9899
vn 0.0000 0.1209 0.9927
vn 0.0000 -0.0508 0.9987
vn -0.5144 0.0478 0.8562
vn -0.5751 0.0606 0.8159
vn -0.1037 -0.0321 0.9941
vn 0.9977 0.0672 -0.0000
vn 0.5121 0.0121 -0.8589
vn 0.5758 0.0352 -0.8169
vn 0.1076 -0.1148 -0.9875
vn 0.0000 -0.1439 -0.9896
vn 0.0000 0.0272 -0.9996
vn 0.0000 0.0137 -0.9999
vn -0.5141 -0.0680 -0.8550
vn -0.5743 -0.0798 -0.8148
vn -0.1035 0.0087 -0.9946
vn -0.9977 0.0672 -0.0000
vn -1.0000 0.0000 -0.0000
vn 0.0000 -0.0426 0.9991
vn 1.0000 0.0000 -0.0000
vn 0.0000 0.0000 -1.0000
# 25 vertex normals

vt 1.0000 0.0000 0.0000
vt 1.0000 1.0000 0.0000
vt 0.6667 1.0000 0.0000
vt 0.6667 0.0000 0.0000
vt 0.3333 1.0000 0.0000
vt 0.3333 0.0000 0.0000
vt -0.0000 1.0000 0.0000
vt -0.0000 0.0000 0.0000
vt 0.0000 0.0000 0.0000
vt 0.0000 1.0000 0.0000
# 10 texture coords

g Box012
usemtl Material__28
s 1
f 1/1/1 2/2/1 3/3/1 4/4/1 
f 4/4/1 3/3/1 5/5/1 6/6/1 
f 6/6/1 5/5/1 7/7/1 8/8/1 
f 9/9/2 10/6/2 11/5/2 12/10/2 
f 13/6/2 14/4/2 15/3/2 16/5/2 
f 17/4/2 18/1/2 19/2/2 20/3/2 
s 2
f 1/9/3 4/6/4 10/5/5 9/10/6 
s 4
f 4/6/7 6/4/7 17/3/7 10/5/7 
s 2
f 6/4/8 8/1/9 18/2/10 17/3/7 
s 4
f 8/9/11 7/1/11 19/2/11 18/10/11 
s 2
f 7/9/12 5/6/13 20/5/14 19/10/15 
s 4
f 5/6/16 3/4/16 11/3/17 20/5/17 
s 2
f 3/4/18 2/1/19 12/2/20 11/3/16 
s 4
f 2/9/21 1/1/21 9/2/21 12/10/21 
s 8
f 11/5/22 10/6/22 13/6/22 16/5/22 
s 16
f 10/6/23 17/4/23 14/4/23 13/6/23 
s 8
f 17/4/24 20/3/24 15/3/24 14/4/24 
s 4
f 20/3/17 11/5/17 16/5/25 15/3/25 
# 18 polygons

