# 3ds Max Wavefront OBJ Exporter v0.97b - (c)2007 guruware
# File Created: 13.05.2016 20:52:45

mtllib bottle 02.mtl

#
# object Cylinder025
#

v  82.7495 15.9509 -194.2218
v  80.2594 15.9509 -200.2335
v  80.2594 28.3878 -200.2335
v  82.7495 28.3878 -194.2218
v  74.2477 15.9509 -202.7236
v  74.2477 28.3878 -202.7236
v  68.2360 15.9509 -200.2335
v  68.2360 28.3878 -200.2335
v  65.7459 15.9509 -194.2218
v  65.7459 28.3878 -194.2218
v  68.2360 15.9509 -188.2101
v  68.2360 28.3878 -188.2101
v  74.2477 15.9509 -185.7200
v  74.2477 28.3878 -185.7200
v  80.2594 15.9509 -188.2101
v  80.2594 28.3878 -188.2101
v  79.1684 30.7902 -199.1425
v  81.2066 30.7902 -194.2218
v  74.2477 30.7902 -201.1807
v  69.3270 30.7902 -199.1425
v  67.2888 30.7902 -194.2218
v  69.3270 30.7902 -189.3011
v  74.2477 30.7902 -187.2629
v  79.1684 30.7902 -189.3011
v  76.2013 33.2425 -194.2218
v  75.6291 33.2425 -195.6032
v  75.6291 42.0089 -195.6032
v  76.2013 42.0089 -194.2218
v  74.2477 33.2425 -196.1754
v  74.2477 42.0089 -196.1754
v  72.8663 33.2425 -195.6032
v  72.8663 42.0089 -195.6032
v  72.2941 33.2425 -194.2218
v  72.2941 42.0089 -194.2218
v  72.8663 33.2425 -192.8404
v  72.8663 42.0089 -192.8404
v  74.2477 33.2425 -192.2682
v  74.2477 42.0089 -192.2682
v  75.6291 33.2425 -192.8404
v  75.6291 42.0089 -192.8404
# 40 vertices

vn 0.9239 0.0000 -0.3827
vn 0.3827 0.0000 -0.9239
vn -0.3827 0.0000 -0.9239
vn -0.9239 0.0000 -0.3827
vn -0.9239 0.0000 0.3827
vn -0.3827 0.0000 0.9239
vn 0.3827 0.0000 0.9239
vn 0.9239 0.0000 0.3827
vn 0.8827 0.2953 -0.3656
vn 0.3656 0.2953 -0.8827
vn -0.3656 0.2953 -0.8827
vn -0.8827 0.2953 -0.3656
vn -0.8827 0.2953 0.3656
vn -0.3656 0.2953 0.8827
vn 0.3656 0.2953 0.8827
vn 0.8827 0.2953 0.3656
vn 0.0000 -1.0000 -0.0000
vn 0.0000 1.0000 -0.0000
vn 0.6591 0.7008 -0.2730
vn 0.2730 0.7008 -0.6591
vn -0.2730 0.7008 -0.6591
vn -0.6591 0.7008 -0.2730
vn -0.6591 0.7008 0.2730
vn -0.2730 0.7008 0.6591
vn 0.2730 0.7008 0.6591
vn 0.6591 0.7008 0.2730
# 26 vertex normals

vt 0.9707 0.8883 0.0000
vt 0.9956 0.8883 0.0000
vt 0.9955 0.9795 0.0000
vt 0.9707 0.9795 0.0000
vt 0.7965 0.8883 0.0000
vt 0.8214 0.8883 0.0000
vt 0.8214 0.9795 0.0000
vt 0.7965 0.9795 0.0000
vt 0.8463 0.8882 0.0000
vt 0.8463 0.9795 0.0000
vt 0.8711 0.8882 0.0000
vt 0.8712 0.9795 0.0000
vt 0.8960 0.8882 0.0000
vt 0.8960 0.9795 0.0000
vt 0.9209 0.8882 0.0000
vt 0.9209 0.9795 0.0000
vt 0.9458 0.8882 0.0000
vt 0.9458 0.9795 0.0000
vt 0.7793 0.9954 0.0000
vt 0.7604 0.9901 0.0000
vt 0.7637 0.9683 0.0000
vt 0.7825 0.9706 0.0000
vt 0.7826 0.8265 0.0000
vt 0.7636 0.8290 0.0000
vt 0.7603 0.8071 0.0000
vt 0.7794 0.8017 0.0000
vt 0.7841 0.8507 0.0000
vt 0.7651 0.8520 0.0000
vt 0.7849 0.8747 0.0000
vt 0.7658 0.8753 0.0000
vt 0.7852 0.8986 0.0000
vt 0.7660 0.8988 0.0000
vt 0.7849 0.9225 0.0000
vt 0.7658 0.9222 0.0000
vt 0.7841 0.9464 0.0000
vt 0.7651 0.9455 0.0000
vt 0.8326 0.7994 0.8305
vt 0.8383 0.7994 0.0000
vt 0.8383 0.8644 0.0000
vt 0.8326 0.8644 0.0000
vt 0.7921 0.7994 0.0000
vt 0.7979 0.7994 0.0000
vt 0.7979 0.8644 0.0000
vt 0.7921 0.8644 0.0000
vt 0.8037 0.7994 0.0000
vt 0.8037 0.8644 0.0000
vt 0.8095 0.7994 0.8305
vt 0.8095 0.8644 0.0000
vt 0.8152 0.7994 0.0000
vt 0.8152 0.8644 0.0000
vt 0.8210 0.7994 0.0000
vt 0.8210 0.8644 0.0000
vt 0.8268 0.7994 0.0000
vt 0.8268 0.8644 0.0000
vt 0.9554 0.8615 0.0000
vt 0.9322 0.8518 0.0000
vt 0.9226 0.8286 -0.0000
vt 0.9882 0.8286 -0.0000
vt 0.9322 0.8054 0.0000
vt 0.9554 0.7958 0.0000
vt 0.9786 0.8054 0.0000
vt 0.9786 0.8518 0.0000
vt 0.8995 0.8470 0.0000
vt 0.8941 0.8492 0.0000
vt 0.8888 0.8470 0.0000
vt 0.8995 0.8363 0.0000
vt 0.8866 0.8416 0.8176
vt 0.8888 0.8363 0.0000
vt 0.8941 0.8341 0.0000
vt 0.9017 0.8416 0.8176
vt 0.8928 0.8281 0.0000
vt 0.8919 0.8224 0.0000
vt 0.9159 0.8110 0.5781
vt 0.9192 0.8314 0.0000
vt 0.8746 0.8334 0.0000
vt 0.8793 0.8366 0.0000
vt 0.8711 0.8618 0.0000
vt 0.8541 0.8502 0.0000
vt 0.8723 0.8281 0.0000
vt 0.8459 0.8313 0.0000
vt 0.8732 0.8224 0.0000
vt 0.8492 0.8110 0.5781
vt 0.8770 0.8180 0.0000
vt 0.8628 0.7956 0.0000
vt 0.8826 0.8164 0.0000
vt 0.8826 0.7899 0.0000
vt 0.8881 0.8180 0.0000
vt 0.9023 0.7956 0.0000
# 88 texture coords

g Cylinder025
usemtl Material__27
s 1
f 1/1/1 2/2/1 3/3/1 4/4/1 
s 2
f 2/5/2 5/6/2 6/7/2 3/8/2 
s 1
f 5/6/3 7/9/3 8/10/3 6/7/3 
s 2
f 7/9/4 9/11/4 10/12/4 8/10/4 
s 1
f 9/11/5 11/13/5 12/14/5 10/12/5 
s 2
f 11/13/6 13/15/6 14/16/6 12/14/6 
s 1
f 13/15/7 15/17/7 16/18/7 14/16/7 
s 2
f 15/17/8 1/1/8 4/4/8 16/18/8 
s 4
f 3/19/9 17/20/9 18/21/9 4/22/9 
s 8
f 6/23/10 19/24/10 17/25/10 3/26/10 
s 4
f 8/27/11 20/28/11 19/24/11 6/23/11 
s 8
f 10/29/12 21/30/12 20/28/12 8/27/12 
s 4
f 12/31/13 22/32/13 21/30/13 10/29/13 
s 8
f 14/33/14 23/34/14 22/32/14 12/31/14 
s 4
f 16/35/15 24/36/15 23/34/15 14/33/15 
s 8
f 4/22/16 18/21/16 24/36/16 16/35/16 
s 1
f 25/37/1 26/38/1 27/39/1 28/40/1 
s 2
f 26/41/2 29/42/2 30/43/2 27/44/2 
s 1
f 29/42/3 31/45/3 32/46/3 30/43/3 
s 2
f 31/45/4 33/47/4 34/48/4 32/46/4 
s 1
f 33/47/5 35/49/5 36/50/5 34/48/5 
s 2
f 35/49/6 37/51/6 38/52/6 36/50/6 
s 1
f 37/51/7 39/53/7 40/54/7 38/52/7 
s 2
f 39/53/8 25/37/8 28/40/8 40/54/8 
s 4
f 13/55/17 11/56/17 9/57/17 1/58/17 
f 9/57/17 7/59/17 5/60/17 1/58/17 
f 5/60/17 2/61/17 1/58/17 
f 15/62/17 13/55/17 1/58/17 
f 27/63/18 30/64/18 32/65/18 40/66/18 
f 32/65/18 34/67/18 36/68/18 40/66/18 
f 36/68/18 38/69/18 40/66/18 
f 28/70/18 27/63/18 40/66/18 
s 16
f 26/71/19 25/72/19 18/73/19 17/74/19 
s 32
f 29/75/20 26/76/20 17/77/20 19/78/20 
s 16
f 31/79/21 29/75/21 19/78/21 20/80/21 
s 32
f 33/81/22 31/79/22 20/80/22 21/82/22 
s 16
f 35/83/23 33/81/23 21/82/23 22/84/23 
s 32
f 37/85/24 35/83/24 22/84/24 23/86/24 
s 16
f 39/87/25 37/85/25 23/86/25 24/88/25 
s 32
f 25/72/26 39/87/26 24/88/26 18/73/26 
# 36 polygons - 4 triangles

