# 3ds Max Wavefront OBJ Exporter v0.97b - (c)2007 guruware
# File Created: 13.05.2016 20:53:06

mtllib bottle04.mtl

#
# object Cylinder023
#

v  104.2195 15.9509 -194.2218
v  103.2648 15.9509 -196.5265
v  103.2648 29.2557 -196.5265
v  104.2195 29.2557 -194.2218
v  100.9601 15.9509 -197.4812
v  100.9601 29.2557 -197.4812
v  98.6554 15.9509 -196.5265
v  98.6554 29.2557 -196.5265
v  97.7007 15.9509 -194.2218
v  97.7007 29.2557 -194.2218
v  98.6554 15.9509 -191.9171
v  98.6554 29.2557 -191.9171
v  100.9601 15.9509 -190.9624
v  100.9601 29.2557 -190.9624
v  103.2648 15.9509 -191.9171
v  103.2648 29.2557 -191.9171
v  102.8466 31.8258 -196.1083
v  103.6280 31.8258 -194.2218
v  100.9601 31.8258 -196.8897
v  99.0736 31.8258 -196.1083
v  98.2922 31.8258 -194.2218
v  99.0736 31.8258 -192.3354
v  100.9601 31.8258 -191.5540
v  102.8466 31.8258 -192.3354
v  101.9699 34.9871 -194.2218
v  101.6742 34.9871 -194.9359
v  101.6742 43.4688 -194.9359
v  101.9699 43.4688 -194.2218
v  100.9601 34.9871 -195.2317
v  100.9601 43.4688 -195.2317
v  100.2460 34.9871 -194.9359
v  100.2460 43.4688 -194.9359
v  99.9503 34.9871 -194.2218
v  99.9503 43.4688 -194.2218
v  100.2460 34.9871 -193.5078
v  100.2460 43.4688 -193.5078
v  100.9601 34.9871 -193.2120
v  100.9601 43.4688 -193.2120
v  101.6742 34.9871 -193.5078
v  101.6742 43.4688 -193.5078
# 40 vertices

vn 0.9239 0.0000 -0.3827
vn 0.3827 0.0000 -0.9239
vn -0.3827 0.0000 -0.9239
vn -0.9239 0.0000 -0.3827
vn -0.9239 0.0000 0.3827
vn -0.3827 0.0000 0.9239
vn 0.3827 0.0000 0.9239
vn 0.9239 0.0000 0.3827
vn 0.8827 0.2953 -0.3656
vn 0.3656 0.2953 -0.8827
vn -0.3656 0.2953 -0.8827
vn -0.8827 0.2953 -0.3656
vn -0.8827 0.2953 0.3656
vn -0.3656 0.2953 0.8827
vn 0.3656 0.2953 0.8827
vn 0.8827 0.2953 0.3656
vn 0.0000 -1.0000 -0.0000
vn 0.0000 1.0000 -0.0000
vn 0.7553 0.5759 -0.3129
vn 0.3129 0.5759 -0.7553
vn -0.3129 0.5759 -0.7553
vn -0.7553 0.5759 -0.3129
vn -0.7553 0.5759 0.3129
vn -0.3129 0.5759 0.7553
vn 0.3129 0.5759 0.7553
vn 0.7553 0.5759 0.3129
# 26 vertex normals

vt 0.8249 0.7204 0.0000
vt 0.8425 0.7204 0.0000
vt 0.8425 0.7851 0.0000
vt 0.8249 0.7851 0.0000
vt 0.8602 0.7204 0.0000
vt 0.8602 0.7851 0.0000
vt 0.8778 0.7204 0.0000
vt 0.8778 0.7851 0.0000
vt 0.7367 0.7205 0.0000
vt 0.7543 0.7205 0.0000
vt 0.7544 0.7852 0.0000
vt 0.7367 0.7852 0.0000
vt 0.7720 0.7205 0.0000
vt 0.7720 0.7852 0.0000
vt 0.7896 0.7204 0.0000
vt 0.7897 0.7852 0.0000
vt 0.8072 0.7204 0.0000
vt 0.8073 0.7851 0.0000
vt 0.9816 0.7307 0.0000
vt 0.9702 0.7269 0.0000
vt 0.9732 0.7141 0.0000
vt 0.9846 0.7160 0.0000
vt 0.9762 0.7461 0.0000
vt 0.9646 0.7397 0.0000
vt 0.9681 0.7625 0.0000
vt 0.9550 0.7521 0.0000
vt 0.9765 0.6568 0.0000
vt 0.9648 0.6628 0.0000
vt 0.9552 0.6506 0.0000
vt 0.9680 0.6401 0.0000
vt 0.9816 0.6722 0.0000
vt 0.9703 0.6757 0.0000
vt 0.9846 0.6869 0.0000
vt 0.9732 0.6885 0.0000
vt 0.9856 0.7015 0.0000
vt 0.9741 0.7013 0.0000
vt 0.8446 0.6037 0.0000
vt 0.8502 0.6037 0.0000
vt 0.8502 0.6468 0.0000
vt 0.8446 0.6468 0.9083
vt 0.8559 0.6037 0.0000
vt 0.8559 0.6468 0.0000
vt 0.8615 0.6036 0.0000
vt 0.8615 0.6469 0.0000
vt 0.8163 0.6036 0.0000
vt 0.8220 0.6037 0.0000
vt 0.8220 0.6468 0.9083
vt 0.8163 0.6469 0.0000
vt 0.8276 0.6037 0.0000
vt 0.8276 0.6468 0.0000
vt 0.8333 0.6037 0.0000
vt 0.8333 0.6468 0.0000
vt 0.8389 0.6037 0.0000
vt 0.8389 0.6468 0.0000
vt 0.7714 0.7120 0.0000
vt 0.7437 0.7006 0.0000
vt 0.7323 0.6729 0.0000
vt 0.8105 0.6729 0.0000
vt 0.7437 0.6453 0.0000
vt 0.7714 0.6338 0.0000
vt 0.7990 0.6453 0.0000
vt 0.7990 0.7006 0.0000
vt 0.8607 0.6870 0.0000
vt 0.8521 0.6905 0.0000
vt 0.8436 0.6870 0.0000
vt 0.8607 0.6698 0.0000
vt 0.8400 0.6784 1.0000
vt 0.8436 0.6698 0.0000
vt 0.8521 0.6663 0.0000
vt 0.8643 0.6784 1.0000
vt 0.9516 0.7186 0.0000
vt 0.9538 0.7098 0.0000
vt 0.9479 0.7264 0.0000
vt 0.9427 0.7322 0.0000
vt 0.9475 0.6755 0.0000
vt 0.9429 0.6706 0.0000
vt 0.9512 0.6828 0.0000
vt 0.9535 0.6913 0.0000
vt 0.9544 0.7005 0.0000
# 79 texture coords

g Cylinder023
usemtl Material__27
s 1
f 1/1/1 2/2/1 3/3/1 4/4/1 
s 2
f 2/2/2 5/5/2 6/6/2 3/3/2 
s 1
f 5/5/3 7/7/3 8/8/3 6/6/3 
s 2
f 7/9/4 9/10/4 10/11/4 8/12/4 
s 1
f 9/10/5 11/13/5 12/14/5 10/11/5 
s 2
f 11/13/6 13/15/6 14/16/6 12/14/6 
s 1
f 13/15/7 15/17/7 16/18/7 14/16/7 
s 2
f 15/17/8 1/1/8 4/4/8 16/18/8 
s 4
f 3/19/9 17/20/9 18/21/9 4/22/9 
s 8
f 6/23/10 19/24/10 17/20/10 3/19/10 
s 4
f 8/25/11 20/26/11 19/24/11 6/23/11 
s 8
f 10/27/12 21/28/12 20/29/12 8/30/12 
s 4
f 12/31/13 22/32/13 21/28/13 10/27/13 
s 8
f 14/33/14 23/34/14 22/32/14 12/31/14 
s 4
f 16/35/15 24/36/15 23/34/15 14/33/15 
s 8
f 4/22/16 18/21/16 24/36/16 16/35/16 
s 1
f 25/37/1 26/38/1 27/39/1 28/40/1 
s 2
f 26/38/2 29/41/2 30/42/2 27/39/2 
s 1
f 29/41/3 31/43/3 32/44/3 30/42/3 
s 2
f 31/45/4 33/46/4 34/47/4 32/48/4 
s 1
f 33/46/5 35/49/5 36/50/5 34/47/5 
s 2
f 35/49/6 37/51/6 38/52/6 36/50/6 
s 1
f 37/51/7 39/53/7 40/54/7 38/52/7 
s 2
f 39/53/8 25/37/8 28/40/8 40/54/8 
s 4
f 13/55/17 11/56/17 9/57/17 1/58/17 
f 9/57/17 7/59/17 5/60/17 1/58/17 
f 5/60/17 2/61/17 1/58/17 
f 15/62/17 13/55/17 1/58/17 
f 27/63/18 30/64/18 32/65/18 40/66/18 
f 32/65/18 34/67/18 36/68/18 40/66/18 
f 36/68/18 38/69/18 40/66/18 
f 28/70/18 27/63/18 40/66/18 
s 16
f 26/71/19 25/72/19 18/21/19 17/20/19 
s 32
f 29/73/20 26/71/20 17/20/20 19/24/20 
s 16
f 31/74/21 29/73/21 19/24/21 20/26/21 
s 32
f 33/75/22 31/76/22 20/29/22 21/28/22 
s 16
f 35/77/23 33/75/23 21/28/23 22/32/23 
s 32
f 37/78/24 35/77/24 22/32/24 23/34/24 
s 16
f 39/79/25 37/78/25 23/34/25 24/36/25 
s 32
f 25/72/26 39/79/26 24/36/26 18/21/26 
# 36 polygons - 4 triangles

