# 3ds Max Wavefront OBJ Exporter v0.97b - (c)2007 guruware
# File Created: 28.01.2016 15:46:20

#
# object Cylinder001
#

v  -0.0000 59.0551 -0.0000
v  3.0403 56.6342 -0.0000
v  3.0403 53.2187 -19.3700
v  -0.0000 55.4937 -20.1980
v  3.0403 43.3843 -36.4038
v  -0.0000 45.2388 -37.9599
v  3.0403 28.3171 -49.0466
v  -0.0000 29.5276 -51.1432
v  3.0403 9.8344 -55.7738
v  -0.0000 10.2548 -58.1579
v  3.0403 -9.8344 -55.7738
v  0.0000 -10.2548 -58.1579
v  3.0403 -28.3171 -49.0466
v  0.0000 -29.5276 -51.1432
v  3.0403 -43.3843 -36.4038
v  0.0000 -45.2388 -37.9599
v  3.0403 -53.2187 -19.3700
v  0.0000 -55.4937 -20.1980
v  3.0403 -56.6342 -0.0000
v  0.0000 -59.0551 -0.0000
v  3.0403 -53.2187 19.3700
v  0.0000 -55.4937 20.1980
v  3.0403 -43.3843 36.4037
v  0.0000 -45.2389 37.9599
v  3.0403 -28.3171 49.0466
v  0.0000 -29.5276 51.1432
v  3.0403 -9.8344 55.7738
v  0.0000 -10.2548 58.1579
v  3.0403 9.8344 55.7738
v  -0.0000 10.2548 58.1579
v  3.0403 28.3171 49.0467
v  -0.0000 29.5275 51.1432
v  3.0403 43.3843 36.4038
v  -0.0000 45.2388 37.9599
v  3.0403 53.2187 19.3701
v  -0.0000 55.4936 20.1981
v  3.0403 43.1710 -0.0000
v  3.0403 40.5675 -14.7654
v  3.0403 33.0709 -27.7498
v  3.0403 21.5855 -37.3872
v  3.0403 7.4966 -42.5152
v  3.0403 -7.4966 -42.5152
v  3.0403 -21.5855 -37.3872
v  3.0403 -33.0709 -27.7498
v  3.0403 -40.5675 -14.7654
v  3.0403 -43.1710 -0.0000
v  3.0403 -40.5675 14.7654
v  3.0403 -33.0709 27.7498
v  3.0403 -21.5855 37.3872
v  3.0403 -7.4966 42.5152
v  3.0403 7.4966 42.5152
v  3.0403 21.5855 37.3872
v  3.0403 33.0709 27.7498
v  3.0403 40.5675 14.7654
v  -0.0000 40.0772 -0.0000
v  -0.0000 37.6602 -13.7072
v  -0.0000 30.7009 -25.7611
v  -0.0000 20.0386 -34.7078
v  -0.0000 6.9593 -39.4683
v  0.0000 -6.9593 -39.4683
v  0.0000 -20.0386 -34.7078
v  0.0000 -30.7009 -25.7611
v  0.0000 -37.6602 -13.7072
v  0.0000 -40.0772 -0.0000
v  0.0000 -37.6602 13.7072
v  0.0000 -30.7009 25.7611
v  0.0000 -20.0386 34.7078
v  0.0000 -6.9593 39.4683
v  -0.0000 6.9593 39.4683
v  -0.0000 20.0386 34.7079
v  -0.0000 30.7009 25.7611
v  -0.0000 37.6602 13.7072
# 72 vertices

vn 0.6171 0.7750 -0.1366
vn 0.6171 0.6815 -0.3935
vn 0.6171 0.5058 -0.6028
vn 0.6171 0.2691 -0.7395
vn 0.6171 -0.0000 -0.7869
vn 0.6171 -0.2691 -0.7395
vn 0.6171 -0.5058 -0.6028
vn 0.6171 -0.6815 -0.3935
vn 0.6171 -0.7750 -0.1366
vn 0.6171 -0.7750 0.1366
vn 0.6171 -0.6815 0.3935
vn 0.6171 -0.5058 0.6028
vn 0.6171 -0.2691 0.7395
vn 0.6171 -0.0000 0.7869
vn 0.6171 0.2691 0.7395
vn 0.6171 0.5058 0.6028
vn 0.6171 0.6815 0.3935
vn 0.6171 0.7750 0.1366
vn 1.0000 0.0000 -0.0000
vn 0.7133 -0.7009 -0.0000
vn 0.7133 -0.6586 0.2397
vn 0.7133 -0.5369 0.4505
vn 0.7133 -0.3505 0.6070
vn 0.7133 -0.1217 0.6903
vn 0.7133 0.1217 0.6903
vn 0.7133 0.3505 0.6070
vn 0.7133 0.5369 0.4505
vn 0.7133 0.6586 0.2397
vn 0.7133 0.7009 0.0000
vn 0.7133 0.6586 -0.2397
vn 0.7133 0.5369 -0.4505
vn 0.7133 0.3505 -0.6070
vn 0.7133 0.1217 -0.6903
vn 0.7133 -0.1217 -0.6903
vn 0.7133 -0.3505 -0.6070
vn 0.7133 -0.5369 -0.4505
vn 0.7133 -0.6586 -0.2397
# 37 vertex normals

vt 0.5000 1.0000 -0.2500
vt 0.5000 0.9660 -0.2500
vt 0.3406 0.9379 -0.2500
vt 0.3290 0.9698 -0.2500
vt 0.2004 0.8570 -0.2500
vt 0.1786 0.8830 -0.2500
vt 0.0964 0.7330 -0.2500
vt 0.0670 0.7500 -0.2500
vt 0.0411 0.5809 -0.2500
vt 0.0076 0.5868 -0.2500
vt 0.0411 0.4191 -0.2500
vt 0.0076 0.4132 -0.2500
vt 0.0964 0.2670 -0.2500
vt 0.0670 0.2500 -0.2500
vt 0.2004 0.1430 -0.2500
vt 0.1786 0.1170 -0.2500
vt 0.3406 0.0621 -0.2500
vt 0.3290 0.0302 -0.2500
vt 0.5000 0.0340 -0.2500
vt 0.5000 0.0000 -0.2500
vt 0.6594 0.0621 -0.2500
vt 0.6710 0.0302 -0.2500
vt 0.7996 0.1430 -0.2500
vt 0.8214 0.1170 -0.2500
vt 0.9036 0.2670 -0.2500
vt 0.9330 0.2500 -0.2500
vt 0.9589 0.4191 -0.2500
vt 0.9924 0.4132 -0.2500
vt 0.9589 0.5809 -0.2500
vt 0.9924 0.5868 -0.2500
vt 0.9036 0.7330 -0.2500
vt 0.9330 0.7500 -0.2500
vt 0.7996 0.8570 -0.2500
vt 0.8214 0.8830 -0.2500
vt 0.6594 0.9379 -0.2500
vt 0.6710 0.9698 -0.2500
vt 0.5000 0.7771 -0.2500
vt 0.4052 0.7604 -0.2500
vt 0.3219 0.7123 -0.2500
vt 0.2600 0.6385 -0.2500
vt 0.2271 0.5481 -0.2500
vt 0.2271 0.4519 -0.2500
vt 0.2600 0.3615 -0.2500
vt 0.3219 0.2877 -0.2500
vt 0.4052 0.2396 -0.2500
vt 0.5000 0.2229 -0.2500
vt 0.5948 0.2396 -0.2500
vt 0.6781 0.2877 -0.2500
vt 0.7400 0.3615 -0.2500
vt 0.7729 0.4519 -0.2500
vt 0.7729 0.5481 -0.2500
vt 0.7400 0.6385 -0.2500
vt 0.6781 0.7123 -0.2500
vt 0.5948 0.7604 -0.2500
vt 0.5000 0.7500 -0.2500
vt 0.4145 0.7349 -0.2500
vt 0.3393 0.6915 -0.2500
vt 0.2835 0.6250 -0.2500
vt 0.2538 0.5434 -0.2500
vt 0.2538 0.4566 -0.2500
vt 0.2835 0.3750 -0.2500
vt 0.3393 0.3085 -0.2500
vt 0.4145 0.2651 -0.2500
vt 0.5000 0.2500 -0.2500
vt 0.5855 0.2651 -0.2500
vt 0.6607 0.3085 -0.2500
vt 0.7165 0.3750 -0.2500
vt 0.7462 0.4566 -0.2500
vt 0.7462 0.5434 -0.2500
vt 0.7165 0.6250 -0.2500
vt 0.6607 0.6915 -0.2500
vt 0.5855 0.7349 -0.2500
# 72 texture coords

g Cylinder001
s 1
f 1/1/1 2/2/1 3/3/1 4/4/1 
s 2
f 4/4/2 3/3/2 5/5/2 6/6/2 
s 1
f 6/6/3 5/5/3 7/7/3 8/8/3 
s 2
f 8/8/4 7/7/4 9/9/4 10/10/4 
s 1
f 10/10/5 9/9/5 11/11/5 12/12/5 
s 2
f 12/12/6 11/11/6 13/13/6 14/14/6 
s 1
f 14/14/7 13/13/7 15/15/7 16/16/7 
s 2
f 16/16/8 15/15/8 17/17/8 18/18/8 
s 1
f 18/18/9 17/17/9 19/19/9 20/20/9 
s 2
f 20/20/10 19/19/10 21/21/10 22/22/10 
s 1
f 22/22/11 21/21/11 23/23/11 24/24/11 
s 2
f 24/24/12 23/23/12 25/25/12 26/26/12 
s 1
f 26/26/13 25/25/13 27/27/13 28/28/13 
s 2
f 28/28/14 27/27/14 29/29/14 30/30/14 
s 1
f 30/30/15 29/29/15 31/31/15 32/32/15 
s 2
f 32/32/16 31/31/16 33/33/16 34/34/16 
s 1
f 34/34/17 33/33/17 35/35/17 36/36/17 
s 2
f 36/36/18 35/35/18 2/2/18 1/1/18 
s 4
f 37/37/19 38/38/19 3/3/19 2/2/19 
f 38/38/19 39/39/19 5/5/19 3/3/19 
f 39/39/19 40/40/19 7/7/19 5/5/19 
f 40/40/19 41/41/19 9/9/19 7/7/19 
f 41/41/19 42/42/19 11/11/19 9/9/19 
f 42/42/19 43/43/19 13/13/19 11/11/19 
f 43/43/19 44/44/19 15/15/19 13/13/19 
f 44/44/19 45/45/19 17/17/19 15/15/19 
f 45/45/19 46/46/19 19/19/19 17/17/19 
f 46/46/19 47/47/19 21/21/19 19/19/19 
f 47/47/19 48/48/19 23/23/19 21/21/19 
f 48/48/19 49/49/19 25/25/19 23/23/19 
f 49/49/19 50/50/19 27/27/19 25/25/19 
f 50/50/19 51/51/19 29/29/19 27/27/19 
f 51/51/19 52/52/19 31/31/19 29/29/19 
f 52/52/19 53/53/19 33/33/19 31/31/19 
f 53/53/19 54/54/19 35/35/19 33/33/19 
f 54/54/19 37/37/19 2/2/19 35/35/19 
s 1
f 55/55/20 56/56/21 38/38/21 37/37/20 
f 56/56/21 57/57/22 39/39/22 38/38/21 
f 57/57/22 58/58/23 40/40/23 39/39/22 
f 58/58/23 59/59/24 41/41/24 40/40/23 
f 59/59/24 60/60/25 42/42/25 41/41/24 
f 60/60/25 61/61/26 43/43/26 42/42/25 
f 61/61/26 62/62/27 44/44/27 43/43/26 
f 62/62/27 63/63/28 45/45/28 44/44/27 
f 63/63/28 64/64/29 46/46/29 45/45/28 
f 64/64/29 65/65/30 47/47/30 46/46/29 
f 65/65/30 66/66/31 48/48/31 47/47/30 
f 66/66/31 67/67/32 49/49/32 48/48/31 
f 67/67/32 68/68/33 50/50/33 49/49/32 
f 68/68/33 69/69/34 51/51/34 50/50/33 
f 69/69/34 70/70/35 52/52/35 51/51/34 
f 70/70/35 71/71/36 53/53/36 52/52/35 
f 71/71/36 72/72/37 54/54/37 53/53/36 
f 72/72/37 55/55/20 37/37/20 54/54/37 
# 54 polygons

