# 3ds Max Wavefront OBJ Exporter v0.97b - (c)2007 guruware
# File Created: 13.05.2016 20:51:30

mtllib big bowl.mtl

#
# object Cylinder027
#

v  55.2836 9.0247 -13.9688
v  51.7976 9.0247 -22.8546
v  54.8498 14.2391 -24.0581
v  58.8080 14.2391 -13.9688
v  42.2737 9.0247 -29.3594
v  44.0359 14.2391 -31.4440
v  29.2637 9.0247 -31.7403
v  29.2637 14.2391 -34.1474
v  16.2538 9.0247 -29.3594
v  14.4916 14.2391 -31.4440
v  6.7299 9.0247 -22.8546
v  3.6777 14.2391 -24.0582
v  3.2439 9.0247 -13.9689
v  -0.2805 14.2391 -13.9689
v  6.7299 9.0247 -5.0831
v  3.6777 14.2391 -3.8796
v  16.2538 9.0247 1.4217
v  14.4916 14.2391 3.5063
v  29.2637 9.0247 3.8026
v  29.2637 14.2391 6.2098
v  42.2737 9.0247 1.4217
v  44.0359 14.2391 3.5063
v  51.7976 9.0247 -5.0831
v  54.8498 14.2391 -3.8795
v  54.8498 24.6677 -24.0582
v  58.8080 24.6677 -13.9688
v  44.0359 24.6677 -31.4440
v  29.2637 24.6677 -34.1475
v  14.4916 24.6677 -31.4440
v  3.6777 24.6677 -24.0582
v  -0.2805 24.6677 -13.9689
v  3.6777 24.6677 -3.8796
v  14.4916 24.6677 3.5063
v  29.2637 24.6677 6.2098
v  44.0359 24.6677 3.5063
v  54.8498 24.6677 -3.8795
v  42.2091 11.8544 -29.2829
v  42.2090 11.8544 1.3453
v  51.6857 11.8544 -5.1272
v  51.6857 11.8544 -22.8104
v  55.1544 11.8544 -13.9688
v  52.8514 24.6677 -23.2701
v  56.5005 24.6677 -13.9688
v  42.8821 24.6677 -30.0792
v  29.2637 24.6677 -32.5714
v  15.6454 24.6677 -30.0792
v  5.6761 24.6677 -23.2701
v  2.0270 24.6677 -13.9689
v  5.6761 24.6677 -4.6676
v  15.6454 24.6677 2.1415
v  29.2637 24.6677 4.6337
v  42.8821 24.6677 2.1415
v  52.8514 24.6677 -4.6675
v  29.2637 11.8544 -31.6520
v  16.3184 11.8544 -29.2829
v  6.8418 11.8544 -22.8104
v  3.3731 11.8544 -13.9689
v  7.0246 11.8544 -5.0024
v  16.1357 11.8544 1.2204
v  29.2637 11.8544 3.7143
# 60 vertices

vn 0.8822 -0.4073 -0.2364
vn 0.6458 -0.4073 -0.6458
vn 0.2364 -0.4073 -0.8822
vn -0.2364 -0.4073 -0.8822
vn -0.6458 -0.4073 -0.6458
vn -0.8822 -0.4073 -0.2364
vn -0.8822 -0.4073 0.2364
vn -0.6458 -0.4073 0.6458
vn -0.2364 -0.4073 0.8822
vn 0.2364 -0.4073 0.8822
vn 0.6458 -0.4073 0.6458
vn 0.8822 -0.4073 0.2364
vn 0.9659 -0.0000 -0.2588
vn 0.7071 -0.0000 -0.7071
vn 0.2588 -0.0000 -0.9659
vn -0.2588 -0.0000 -0.9659
vn -0.7071 -0.0000 -0.7071
vn -0.9659 -0.0000 -0.2588
vn -0.9659 -0.0000 0.2588
vn -0.7071 -0.0000 0.7071
vn -0.2588 -0.0000 0.9659
vn 0.2588 -0.0000 0.9659
vn 0.7071 -0.0000 0.7071
vn 0.9659 -0.0000 0.2588
vn 0.0000 -1.0000 -0.0000
vn 0.0000 1.0000 -0.0000
vn -0.9636 0.0691 0.2582
vn -0.7054 0.0691 0.7054
vn -0.2582 0.0691 0.9636
vn 0.2582 0.0691 0.9636
vn 0.7054 0.0691 0.7054
vn 0.9636 0.0691 0.2582
vn 0.9624 0.0732 -0.2618
vn 0.9631 0.0760 -0.2581
vn 0.9620 0.0718 -0.2635
vn 0.9611 0.0690 -0.2673
vn 0.7054 0.0691 -0.7054
vn 0.2618 0.0719 -0.9624
vn 0.2582 0.0691 -0.9636
vn 0.2635 0.0732 -0.9619
vn 0.2672 0.0760 -0.9606
vn -0.2582 0.0691 -0.9636
vn -0.7054 0.0691 -0.7054
vn -0.9636 0.0691 -0.2582
# 44 vertex normals

vt 0.0087 0.9051 0.0000
vt 0.0554 0.9051 0.0000
vt 0.0554 0.9380 0.0000
vt 0.0087 0.9380 0.0000
vt 0.1026 0.9051 0.0000
vt 0.1026 0.9380 0.0000
vt 0.1497 0.9051 0.0000
vt 0.1497 0.9380 0.0000
vt 0.1968 0.9051 0.0000
vt 0.1968 0.9380 0.0000
vt 0.2438 0.9051 0.0000
vt 0.2438 0.9380 0.0000
vt 0.2907 0.9051 0.0000
vt 0.2907 0.9380 0.0000
vt 0.3377 0.9051 0.0000
vt 0.3377 0.9380 0.0000
vt 0.3847 0.9051 0.0000
vt 0.3847 0.9380 0.0000
vt 0.4316 0.9051 0.0000
vt 0.4316 0.9380 0.0000
vt 0.4784 0.9051 0.0000
vt 0.4784 0.9380 0.0000
vt 0.5250 0.9051 0.0000
vt 0.5250 0.9380 0.0000
vt 0.5743 0.9051 0.0000
vt 0.5743 0.9380 0.0000
vt 0.0554 0.9874 0.0000
vt 0.0087 0.9874 0.0000
vt 0.1026 0.9874 0.0000
vt 0.1497 0.9874 0.0000
vt 0.1968 0.9874 0.0000
vt 0.2438 0.9874 0.0000
vt 0.2907 0.9874 0.0000
vt 0.3377 0.9874 0.0000
vt 0.3847 0.9874 0.0000
vt 0.4316 0.9874 0.0000
vt 0.4784 0.9874 0.0000
vt 0.5250 0.9874 0.0000
vt 0.5743 0.9874 0.0000
vt 0.1760 0.7350 0.0000
vt 0.1460 0.7651 0.0000
vt 0.1049 0.7760 0.0000
vt 0.0339 0.7350 0.0000
vt 0.0639 0.7651 0.0000
vt 0.0336 0.7342 0.0000
vt 0.1750 0.7342 0.0000
vt 0.1451 0.7641 0.0000
vt 0.0635 0.7641 0.0000
vt 0.1043 0.7750 0.0000
vt 0.1056 0.7855 0.0000
vt 0.0590 0.7730 0.0000
vt 0.0627 0.7667 0.0000
vt 0.1056 0.7782 0.0000
vt 0.0250 0.7389 0.0000
vt 0.0313 0.7353 0.0000
vt 0.0125 0.6924 0.0000
vt 0.0198 0.6924 0.0000
vt 0.0250 0.6459 0.0000
vt 0.0313 0.6495 0.0000
vt 0.0591 0.6118 0.0000
vt 0.0627 0.6181 0.0000
vt 0.1056 0.5993 0.0000
vt 0.1056 0.6066 0.0000
vt 0.1522 0.6117 0.0000
vt 0.1485 0.6180 0.0000
vt 0.1863 0.6458 0.0000
vt 0.1800 0.6494 0.0000
vt 0.1988 0.6923 0.0000
vt 0.1915 0.6923 0.0000
vt 0.1863 0.7389 0.0000
vt 0.1800 0.7353 0.0000
vt 0.1522 0.7730 0.0000
vt 0.1485 0.7667 0.0000
vt 0.5427 0.8891 0.0000
vt 0.4994 0.8891 0.0000
vt 0.4994 0.8298 0.0000
vt 0.5427 0.8298 0.0000
vt 0.4561 0.8891 0.0000
vt 0.4561 0.8298 0.0000
vt 0.4127 0.8891 0.0000
vt 0.4127 0.8298 0.0000
vt 0.3694 0.8891 0.0000
vt 0.3694 0.8298 0.0000
vt 0.3261 0.8891 0.0000
vt 0.3261 0.8298 0.0000
vt 0.2827 0.8891 0.0000
vt 0.2827 0.8298 0.0000
vt 0.2394 0.8891 0.0000
vt 0.2394 0.8298 0.0000
vt 0.1957 0.8891 0.0000
vt 0.1957 0.8298 0.0000
vt 0.1532 0.8891 0.0000
vt 0.1532 0.8298 0.0000
vt 0.1095 0.8891 0.0000
vt 0.1095 0.8298 0.0000
vt 0.0662 0.8891 0.0000
vt 0.0662 0.8298 0.0000
vt 0.0232 0.8891 0.0000
vt 0.0232 0.8298 0.0000
vt 0.1043 0.6118 0.0000
vt 0.1457 0.6233 0.0000
vt 0.1744 0.6521 0.0000
vt 0.0635 0.6228 0.0000
vt 0.0336 0.6526 0.0000
vt 0.0227 0.6934 0.0000
vt 0.1859 0.6934 0.0000
vt 0.0639 0.6230 0.0000
vt 0.1050 0.6120 0.0000
vt 0.1460 0.6230 0.0000
vt 0.0339 0.6531 0.0000
vt 0.1760 0.6530 0.0000
vt 0.0229 0.6941 0.0000
vt 0.1870 0.6940 0.0000
# 113 texture coords

g Cylinder027
usemtl Material__27
s 1
f 1/1/1 2/2/1 3/3/1 4/4/1 
s 2
f 2/2/2 5/5/2 6/6/2 3/3/2 
s 1
f 5/5/3 7/7/3 8/8/3 6/6/3 
s 2
f 7/7/4 9/9/4 10/10/4 8/8/4 
s 1
f 9/9/5 11/11/5 12/12/5 10/10/5 
s 2
f 11/11/6 13/13/6 14/14/6 12/12/6 
s 1
f 13/13/7 15/15/7 16/16/7 14/14/7 
s 2
f 15/15/8 17/17/8 18/18/8 16/16/8 
s 1
f 17/17/9 19/19/9 20/20/9 18/18/9 
s 2
f 19/19/10 21/21/10 22/22/10 20/20/10 
s 1
f 21/21/11 23/23/11 24/24/11 22/22/11 
s 2
f 23/23/12 1/25/12 4/26/12 24/24/12 
s 4
f 4/4/13 3/3/13 25/27/13 26/28/13 
s 8
f 3/3/14 6/6/14 27/29/14 25/27/14 
s 4
f 6/6/15 8/8/15 28/30/15 27/29/15 
s 8
f 8/8/16 10/10/16 29/31/16 28/30/16 
s 4
f 10/10/17 12/12/17 30/32/17 29/31/17 
s 8
f 12/12/18 14/14/18 31/33/18 30/32/18 
s 4
f 14/14/19 16/16/19 32/34/19 31/33/19 
s 8
f 16/16/20 18/18/20 33/35/20 32/34/20 
s 4
f 18/18/21 20/20/21 34/36/21 33/35/21 
s 8
f 20/20/22 22/22/22 35/37/22 34/36/22 
s 4
f 22/22/23 24/24/23 36/38/23 35/37/23 
s 8
f 24/24/24 4/26/24 26/39/24 36/38/24 
s 4
f 5/40/25 2/41/25 1/42/25 21/43/25 
f 23/44/25 21/43/25 1/42/25 
s 1
f 37/45/26 38/46/26 39/47/26 40/48/26 
f 41/49/26 40/48/26 39/47/26 
f 26/50/26 25/51/26 42/52/26 43/53/26 
f 25/51/26 27/54/26 44/55/26 42/52/26 
f 27/54/26 28/56/26 45/57/26 44/55/26 
f 28/56/26 29/58/26 46/59/26 45/57/26 
f 29/58/26 30/60/26 47/61/26 46/59/26 
f 30/60/26 31/62/26 48/63/26 47/61/26 
f 31/62/26 32/64/26 49/65/26 48/63/26 
f 32/64/26 33/66/26 50/67/26 49/65/26 
f 33/66/26 34/68/26 51/69/26 50/67/26 
f 34/68/26 35/70/26 52/71/26 51/69/26 
f 35/70/26 36/72/26 53/73/26 52/71/26 
f 36/72/26 26/50/26 43/53/26 53/73/26 
s 2
f 43/74/27 42/75/27 40/76/27 41/77/27 
s 4
f 42/75/28 44/78/28 37/79/28 40/76/28 
s 2
f 44/78/29 45/80/29 54/81/29 37/79/29 
s 4
f 45/80/30 46/82/30 55/83/30 54/81/30 
s 2
f 46/82/31 47/84/31 56/85/31 55/83/31 
s 4
f 47/84/32 48/86/32 57/87/32 56/85/32 
s 2
f 48/86/33 49/88/34 58/89/35 57/87/36 
s 4
f 49/88/37 50/90/37 59/91/37 58/89/37 
s 2
f 50/90/38 51/92/39 60/93/40 59/91/41 
s 4
f 51/92/42 52/94/42 38/95/42 60/93/42 
s 2
f 52/94/43 53/96/43 39/97/43 38/95/43 
s 4
f 53/96/44 43/98/44 41/99/44 39/97/44 
s 1
f 57/100/26 58/101/26 59/102/26 56/103/26 
f 55/104/26 56/103/26 59/102/26 
f 54/105/26 60/106/26 38/46/26 37/45/26 
f 55/104/26 59/102/26 60/106/26 54/105/26 
s 4
f 15/107/25 13/108/25 11/109/25 17/110/25 
f 17/110/25 11/109/25 9/111/25 19/112/25 
f 9/111/25 7/113/25 5/40/25 19/112/25 
f 21/43/25 19/112/25 5/40/25 
# 56 polygons - 4 triangles

