# 3ds Max Wavefront OBJ Exporter v0.97b - (c)2007 guruware
# File Created: 30.05.2016 22:32:12

mtllib small pot.mtl

#
# object Cylinder031
#

v  -28.7434 116.9991 -199.1951
v  -30.3491 116.9991 -205.1877
v  -30.3491 129.2733 -205.1877
v  -28.7434 129.2733 -199.1951
v  -34.7359 116.9991 -209.5746
v  -34.7359 129.2733 -209.5746
v  -40.7285 116.9991 -211.1803
v  -40.7285 129.2733 -211.1803
v  -46.7211 116.9991 -209.5746
v  -46.7211 129.2733 -209.5746
v  -51.1079 116.9991 -205.1877
v  -51.1079 129.2733 -205.1877
v  -52.7136 116.9991 -199.1951
v  -52.7136 129.2733 -199.1951
v  -51.1079 116.9991 -193.2025
v  -51.1079 129.2733 -193.2025
v  -46.7211 116.9991 -188.8157
v  -46.7211 129.2733 -188.8157
v  -40.7285 116.9991 -187.2100
v  -40.7285 129.2733 -187.2100
v  -34.7359 116.9991 -188.8157
v  -34.7359 129.2733 -188.8157
v  -30.3491 116.9991 -193.2025
v  -30.3491 129.2733 -193.2025
v  -40.7285 117.3834 -188.4693
v  -35.3656 117.3834 -189.9063
v  -31.4397 117.3834 -193.8322
v  -46.0914 117.3834 -189.9063
v  -30.0027 117.3834 -199.1951
v  -31.4397 129.2733 -204.5580
v  -30.0027 129.2733 -199.1951
v  -35.3656 129.2733 -208.4840
v  -40.7285 129.2733 -209.9209
v  -46.0914 129.2733 -208.4840
v  -50.0173 129.2733 -204.5580
v  -51.4543 129.2733 -199.1951
v  -50.0173 129.2733 -193.8322
v  -46.0914 129.2733 -189.9063
v  -40.7285 129.2733 -188.4693
v  -35.3656 129.2733 -189.9063
v  -31.4397 129.2733 -193.8322
v  -31.4397 117.3834 -204.5580
v  -35.3656 117.3834 -208.4840
v  -40.7285 117.3834 -209.9209
v  -46.0914 117.3834 -208.4840
v  -50.0173 117.3834 -204.5580
v  -51.4543 117.3834 -199.1951
v  -50.0173 117.3834 -193.8322
# 48 vertices

vn 0.9659 0.0000 -0.2588
vn 0.7071 0.0000 -0.7071
vn 0.2588 0.0000 -0.9659
vn -0.2588 0.0000 -0.9659
vn -0.7071 0.0000 -0.7071
vn -0.9659 0.0000 -0.2588
vn -0.9659 0.0000 0.2588
vn -0.7071 0.0000 0.7071
vn -0.2588 0.0000 0.9659
vn 0.2588 0.0000 0.9659
vn 0.7071 0.0000 0.7071
vn 0.9659 0.0000 0.2588
vn 0.0000 -1.0000 -0.0000
vn 0.0000 1.0000 -0.0000
# 14 vertex normals

vt 0.6156 0.3986 0.0000
vt 0.6017 0.3986 0.0000
vt 0.6017 0.3618 0.0000
vt 0.6156 0.3618 0.0000
vt 0.5877 0.3986 0.0000
vt 0.5877 0.3618 0.0000
vt 0.5738 0.3986 0.0000
vt 0.5738 0.3618 0.0000
vt 0.5599 0.3986 0.0000
vt 0.5599 0.3618 0.0000
vt 0.5460 0.3986 0.0000
vt 0.5460 0.3618 0.0000
vt 0.5320 0.3986 0.0000
vt 0.5320 0.3618 0.0000
vt 0.5178 0.3988 0.0000
vt 0.5178 0.3616 0.0000
vt 0.6855 0.3988 0.0000
vt 0.6713 0.3986 0.0000
vt 0.6713 0.3618 0.0000
vt 0.6855 0.3616 0.0000
vt 0.6574 0.3986 0.0000
vt 0.6574 0.3618 0.0000
vt 0.6434 0.3986 0.0000
vt 0.6434 0.3618 0.0000
vt 0.6295 0.3986 0.0000
vt 0.6295 0.3618 0.0000
vt 0.4778 0.3718 0.0000
vt 0.4605 0.3677 0.0000
vt 0.4451 0.3730 0.0000
vt 0.4923 0.4021 0.0000
vt 0.4892 0.3846 0.0000
vt 0.4601 0.3703 0.0000
vt 0.4758 0.3745 0.0000
vt 0.4873 0.3860 0.0000
vt 0.4447 0.3747 0.0000
vt 0.4912 0.4016 0.0000
vt 0.5057 0.4014 0.0000
vt 0.4996 0.4240 0.0000
vt 0.4957 0.4217 0.0000
vt 0.5011 0.4014 0.0000
vt 0.4830 0.4406 0.0000
vt 0.4808 0.4367 0.0000
vt 0.4604 0.4467 0.0000
vt 0.4604 0.4421 0.0000
vt 0.4378 0.4406 0.0000
vt 0.4400 0.4367 0.0000
vt 0.4212 0.4240 0.0000
vt 0.4251 0.4217 0.0000
vt 0.4151 0.4014 0.0000
vt 0.4197 0.4014 0.0000
vt 0.4207 0.3794 0.0000
vt 0.4246 0.3816 0.0000
vt 0.4216 0.3780 0.0000
vt 0.4378 0.3622 0.0000
vt 0.4400 0.3661 0.0000
vt 0.4254 0.3803 0.0000
vt 0.4604 0.3561 0.0000
vt 0.4604 0.3607 0.0000
vt 0.4830 0.3622 0.0000
vt 0.4807 0.3661 0.0000
vt 0.4996 0.3787 0.0000
vt 0.4957 0.3810 0.0000
vt 0.6015 0.4425 0.0000
vt 0.5891 0.4425 0.0000
vt 0.5891 0.4069 0.0000
vt 0.6015 0.4069 0.0000
vt 0.5766 0.4425 0.0000
vt 0.5766 0.4069 0.0000
vt 0.5642 0.4425 0.0000
vt 0.5642 0.4069 0.0000
vt 0.5517 0.4425 0.0000
vt 0.5517 0.4069 0.0000
vt 0.5392 0.4425 0.0000
vt 0.5392 0.4069 0.0000
vt 0.5268 0.4426 0.0000
vt 0.5268 0.4069 0.0000
vt 0.5140 0.4427 0.0000
vt 0.5140 0.4067 0.0000
vt 0.6641 0.4427 0.0000
vt 0.6514 0.4426 0.0000
vt 0.6514 0.4069 0.0000
vt 0.6641 0.4067 0.0000
vt 0.6389 0.4425 0.0000
vt 0.6389 0.4069 0.0000
vt 0.6265 0.4425 0.0000
vt 0.6265 0.4069 0.0000
vt 0.6140 0.4425 0.0000
vt 0.6140 0.4069 0.0000
vt 0.4754 0.4288 0.0000
vt 0.4289 0.4020 0.0000
vt 0.4332 0.3863 0.0000
vt 0.4869 0.4173 0.0000
vt 0.4443 0.4290 0.0000
vt 0.4328 0.4175 0.0000
vt 0.4600 0.4332 0.0000
vt 0.4278 0.4014 0.0000
vt 0.4750 0.4305 0.0000
vt 0.4895 0.4136 0.0000
vt 0.4306 0.3899 0.0000
vt 0.4422 0.4318 0.0000
vt 0.4595 0.4359 0.0000
vt 0.4309 0.4190 0.0000
# 102 texture coords

g Cylinder031
usemtl Material__27
s 1
f 1/1/1 2/2/1 3/3/1 4/4/1 
s 2
f 2/2/2 5/5/2 6/6/2 3/3/2 
s 1
f 5/5/3 7/7/3 8/8/3 6/6/3 
s 2
f 7/7/4 9/9/4 10/10/4 8/8/4 
s 1
f 9/9/5 11/11/5 12/12/5 10/10/5 
s 2
f 11/11/6 13/13/6 14/14/6 12/12/6 
s 1
f 13/13/7 15/15/7 16/16/7 14/14/7 
s 2
f 15/17/8 17/18/8 18/19/8 16/20/8 
s 1
f 17/18/9 19/21/9 20/22/9 18/19/9 
s 2
f 19/21/10 21/23/10 22/24/10 20/22/10 
s 1
f 21/23/11 23/25/11 24/26/11 22/24/11 
s 2
f 23/25/12 1/1/12 4/4/12 24/26/12 
s 4
f 21/27/13 19/28/13 17/29/13 1/30/13 
f 23/31/13 21/27/13 1/30/13 
s 1
f 25/32/14 26/33/14 27/34/14 28/35/14 
f 29/36/14 28/35/14 27/34/14 
s 4
f 4/37/14 3/38/14 30/39/14 31/40/14 
f 3/38/14 6/41/14 32/42/14 30/39/14 
f 6/41/14 8/43/14 33/44/14 32/42/14 
f 8/43/14 10/45/14 34/46/14 33/44/14 
f 10/45/14 12/47/14 35/48/14 34/46/14 
f 12/47/14 14/49/14 36/50/14 35/48/14 
f 14/49/14 16/51/14 37/52/14 36/50/14 
f 16/53/14 18/54/14 38/55/14 37/56/14 
f 18/54/14 20/57/14 39/58/14 38/55/14 
f 20/57/14 22/59/14 40/60/14 39/58/14 
f 22/59/14 24/61/14 41/62/14 40/60/14 
f 24/61/14 4/37/14 31/40/14 41/62/14 
s 2
f 31/63/7 30/64/7 42/65/7 29/66/7 
s 8
f 30/64/8 32/67/8 43/68/8 42/65/8 
s 2
f 32/67/9 33/69/9 44/70/9 43/68/9 
s 8
f 33/69/10 34/71/10 45/72/10 44/70/10 
s 2
f 34/71/11 35/73/11 46/74/11 45/72/11 
s 8
f 35/73/12 36/75/12 47/76/12 46/74/12 
s 2
f 36/75/1 37/77/1 48/78/1 47/76/1 
s 8
f 37/79/2 38/80/2 28/81/2 48/82/2 
s 2
f 38/80/3 39/83/3 25/84/3 28/81/3 
s 8
f 39/83/4 40/85/4 26/86/4 25/84/4 
s 2
f 40/85/5 41/87/5 27/88/5 26/86/5 
s 8
f 41/87/6 31/63/6 29/66/6 27/88/6 
s 1
f 43/89/14 47/90/14 48/91/14 42/92/14 
f 42/92/14 48/91/14 28/35/14 29/36/14 
f 45/93/14 46/94/14 47/90/14 44/95/14 
f 43/89/14 44/95/14 47/90/14 
s 4
f 13/96/13 5/97/13 2/98/13 15/99/13 
f 15/99/13 2/98/13 1/30/13 17/29/13 
f 9/100/13 7/101/13 5/97/13 11/102/13 
f 13/96/13 11/102/13 5/97/13 
# 44 polygons - 4 triangles

