# 3ds Max Wavefront OBJ Exporter v0.97b - (c)2007 guruware
# File Created: 18.07.2016 21:56:45

mtllib hazard bottle 02.mtl

#
# object Cylinder025
#

v  6.0117 -0.5921 -6.0117
v  8.5018 -0.5921 -0.0000
v  8.5018 -13.0290 -0.0000
v  6.0117 -13.0290 -6.0117
v  0.0000 -0.5921 -8.5018
v  0.0000 -13.0290 -8.5018
v  -6.0117 -0.5921 -6.0117
v  -6.0117 -13.0290 -6.0117
v  -8.5018 -0.5921 -0.0000
v  -8.5018 -13.0290 -0.0000
v  -6.0117 -0.5921 6.0117
v  -6.0117 -13.0290 6.0117
v  0.0000 -0.5921 8.5018
v  0.0000 -13.0290 8.5018
v  6.0117 -0.5921 6.0117
v  6.0117 -13.0290 6.0117
v  6.9589 1.8103 -0.0000
v  4.9207 1.8103 -4.9207
v  0.0000 1.8103 -6.9589
v  -4.9207 1.8103 -4.9207
v  -6.9589 1.8103 -0.0000
v  -4.9207 1.8103 4.9207
v  0.0000 1.8103 6.9589
v  4.9207 1.8103 4.9207
v  1.3814 13.0290 -1.3814
v  1.9536 13.0290 -0.0000
v  1.9536 4.2626 -0.0000
v  1.3814 4.2626 -1.3814
v  0.0000 13.0290 -1.9536
v  0.0000 4.2626 -1.9536
v  -1.3814 13.0290 -1.3814
v  -1.3814 4.2626 -1.3814
v  -1.9536 13.0290 -0.0000
v  -1.9536 4.2626 -0.0000
v  -1.3814 13.0290 1.3814
v  -1.3814 4.2626 1.3814
v  0.0000 13.0290 1.9536
v  0.0000 4.2626 1.9536
v  1.3814 13.0290 1.3814
v  1.3814 4.2626 1.3814
# 40 vertices

vn 0.6819 0.2646 -0.6819
vn 0.9644 0.2646 -0.0000
vn 1.0000 0.0000 -0.0000
vn 0.7071 0.0000 -0.7071
vn 0.0000 0.2646 -0.9644
vn 0.0000 0.0000 -1.0000
vn -0.6819 0.2646 -0.6819
vn -0.7071 0.0000 -0.7071
vn -0.9644 0.2646 -0.0000
vn -1.0000 0.0000 0.0000
vn -0.6819 0.2646 0.6819
vn -0.7071 0.0000 0.7071
vn -0.0000 0.2646 0.9644
vn 0.0000 0.0000 1.0000
vn 0.6819 0.2646 0.6819
vn 0.7071 0.0000 0.7071
vn 0.6991 0.7150 -0.0000
vn 0.4944 0.7150 -0.4944
vn -0.0000 0.7150 -0.6991
vn -0.4944 0.7150 -0.4944
vn -0.6991 0.7150 -0.0000
vn -0.4944 0.7150 0.4944
vn -0.0000 0.7150 0.6991
vn 0.4944 0.7150 0.4944
vn -1.0000 0.0000 -0.0000
vn 0.0000 -1.0000 -0.0000
vn 0.0000 1.0000 -0.0000
vn 0.3111 0.8980 -0.3111
vn 0.4400 0.8980 -0.0000
vn -0.0000 0.8980 -0.4400
vn -0.3111 0.8980 -0.3111
vn -0.4400 0.8980 0.0000
vn -0.3111 0.8980 0.3111
vn 0.0000 0.8980 0.4400
vn 0.3111 0.8980 0.3111
# 35 vertex normals

vt 0.9955 0.9795 0.0000
vt 0.9707 0.9795 0.0000
vt 0.9707 0.8883 0.0000
vt 0.9956 0.8883 0.0000
vt 0.8214 0.9795 0.0000
vt 0.7965 0.9795 0.0000
vt 0.7965 0.8883 0.0000
vt 0.8214 0.8883 0.0000
vt 0.8463 0.9795 0.0000
vt 0.8463 0.8882 0.0000
vt 0.8712 0.9795 0.0000
vt 0.8711 0.8882 0.0000
vt 0.8960 0.9795 0.0000
vt 0.8960 0.8882 0.0000
vt 0.9209 0.9795 0.0000
vt 0.9209 0.8882 0.0000
vt 0.9458 0.9795 0.0000
vt 0.9458 0.8882 0.0000
vt 0.7637 0.9683 0.0000
vt 0.7825 0.9706 0.0000
vt 0.7793 0.9954 0.0000
vt 0.7604 0.9901 0.0000
vt 0.7603 0.8071 0.0000
vt 0.7794 0.8017 0.0000
vt 0.7826 0.8265 0.0000
vt 0.7636 0.8290 0.0000
vt 0.7841 0.8507 0.0000
vt 0.7651 0.8520 0.0000
vt 0.7849 0.8747 0.0000
vt 0.7658 0.8753 0.0000
vt 0.7852 0.8986 0.0000
vt 0.7660 0.8988 0.0000
vt 0.7849 0.9225 0.0000
vt 0.7658 0.9222 0.0000
vt 0.7841 0.9464 0.0000
vt 0.7651 0.9455 0.0000
vt 0.8383 0.8644 0.0000
vt 0.8326 0.8644 0.0000
vt 0.8326 0.7994 0.8305
vt 0.8383 0.7994 0.0000
vt 0.7979 0.8644 0.0000
vt 0.7921 0.8644 0.0000
vt 0.7921 0.7994 0.0000
vt 0.7979 0.7994 0.0000
vt 0.8037 0.8644 0.0000
vt 0.8037 0.7994 0.0000
vt 0.8095 0.8644 0.0000
vt 0.8095 0.7994 0.8305
vt 0.8152 0.8644 0.0000
vt 0.8152 0.7994 0.0000
vt 0.8210 0.8644 0.0000
vt 0.8210 0.7994 0.0000
vt 0.8268 0.8644 0.0000
vt 0.8268 0.7994 0.0000
vt 0.9226 0.8286 -0.0000
vt 0.9882 0.8286 -0.0000
vt 0.9554 0.8615 0.0000
vt 0.9322 0.8518 0.0000
vt 0.9554 0.7958 0.0000
vt 0.9322 0.8054 0.0000
vt 0.9786 0.8054 0.0000
vt 0.9786 0.8518 0.0000
vt 0.8888 0.8470 0.0000
vt 0.8995 0.8363 0.0000
vt 0.8995 0.8470 0.0000
vt 0.8941 0.8492 0.0000
vt 0.8888 0.8363 0.0000
vt 0.8866 0.8416 0.8176
vt 0.8941 0.8341 0.0000
vt 0.9017 0.8416 0.8176
vt 0.9159 0.8110 0.5781
vt 0.9192 0.8314 0.0000
vt 0.8928 0.8281 0.0000
vt 0.8919 0.8224 0.0000
vt 0.8711 0.8618 0.0000
vt 0.8541 0.8502 0.0000
vt 0.8746 0.8334 0.0000
vt 0.8793 0.8366 0.0000
vt 0.8459 0.8313 0.0000
vt 0.8723 0.8281 0.0000
vt 0.8492 0.8110 0.5781
vt 0.8732 0.8224 0.0000
vt 0.8628 0.7956 0.0000
vt 0.8770 0.8180 0.0000
vt 0.8826 0.7899 0.0000
vt 0.8826 0.8164 0.0000
vt 0.9023 0.7956 0.0000
vt 0.8881 0.8180 0.0000
# 88 texture coords

g Cylinder025
usemtl wire_087224198
s 1
f 1/1/1 2/2/2 3/3/3 4/4/4 
f 5/5/5 1/6/1 4/7/4 6/8/6 
f 7/9/7 5/5/5 6/8/6 8/10/8 
f 9/11/9 7/9/7 8/10/8 10/12/10 
f 11/13/11 9/11/9 10/12/10 12/14/12 
f 13/15/13 11/13/11 12/14/12 14/16/14 
f 15/17/15 13/15/13 14/16/14 16/18/16 
f 2/2/2 15/17/15 16/18/16 3/3/3 
f 17/19/17 2/20/2 1/21/1 18/22/18 
f 18/23/18 1/24/1 5/25/5 19/26/19 
f 19/26/19 5/25/5 7/27/7 20/28/20 
f 20/28/20 7/27/7 9/29/9 21/30/21 
f 21/30/21 9/29/9 11/31/11 22/32/22 
f 22/32/22 11/31/11 13/33/13 23/34/23 
f 23/34/23 13/33/13 15/35/15 24/36/24 
f 24/36/24 15/35/15 2/20/2 17/19/17 
s 2
f 25/37/4 26/38/3 27/39/3 28/40/4 
f 29/41/6 25/42/4 28/43/4 30/44/6 
f 31/45/8 29/41/6 30/44/6 32/46/8 
f 33/47/25 31/45/8 32/46/8 34/48/25 
f 35/49/12 33/47/25 34/48/25 36/50/12 
f 37/51/14 35/49/12 36/50/12 38/52/14 
f 39/53/16 37/51/14 38/52/14 40/54/16 
f 26/38/3 39/53/16 40/54/16 27/39/3 
f 10/55/26 3/56/26 14/57/26 12/58/26 
f 6/59/26 3/56/26 10/55/26 8/60/26 
f 6/59/26 4/61/26 3/56/26 
f 16/62/26 14/57/26 3/56/26 
s 1
f 31/63/27 39/64/27 25/65/27 29/66/27 
f 35/67/27 39/64/27 31/63/27 33/68/27 
f 35/67/27 37/69/27 39/64/27 
f 26/70/27 25/65/27 39/64/27 
f 17/71/17 18/72/18 28/73/28 27/74/29 
f 18/75/18 19/76/19 30/77/30 28/78/28 
f 19/76/19 20/79/20 32/80/31 30/77/30 
f 20/79/20 21/81/21 34/82/32 32/80/31 
f 21/81/21 22/83/22 36/84/33 34/82/32 
f 22/83/22 23/85/23 38/86/34 36/84/33 
f 23/85/23 24/87/24 40/88/35 38/86/34 
f 24/87/24 17/71/17 27/74/29 40/88/35 
# 36 polygons - 4 triangles

