# 3ds Max Wavefront OBJ Exporter v0.97b - (c)2007 guruware
# File Created: 18.07.2016 21:54:33

mtllib hazard big bowl.mtl

#
# object Cylinder027
#

v  25.5861 -2.6071 -10.0893
v  29.5442 -2.6071 0.0000
v  26.0198 -7.8215 0.0000
v  22.5338 -7.8215 -8.8858
v  14.7722 -2.6071 -17.4752
v  13.0100 -7.8215 -15.3906
v  -0.0000 -2.6071 -20.1786
v  -0.0000 -7.8215 -17.7715
v  -14.7722 -2.6071 -17.4752
v  -13.0100 -7.8215 -15.3906
v  -25.5861 -2.6071 -10.0894
v  -22.5338 -7.8215 -8.8858
v  -29.5443 -2.6071 -0.0001
v  -26.0198 -7.8215 -0.0001
v  -25.5861 -2.6071 10.0892
v  -22.5338 -7.8215 8.8857
v  -14.7722 -2.6071 17.4751
v  -13.0100 -7.8215 15.3905
v  -0.0000 -2.6071 20.1786
v  -0.0000 -7.8215 17.7715
v  14.7722 -2.6071 17.4751
v  13.0100 -7.8215 15.3905
v  25.5861 -2.6071 10.0893
v  22.5338 -7.8215 8.8857
v  25.5861 7.8215 -10.0894
v  29.5442 7.8215 0.0000
v  14.7722 7.8215 -17.4752
v  -0.0000 7.8215 -20.1786
v  -14.7722 7.8215 -17.4752
v  -25.5861 7.8215 -10.0894
v  -29.5443 7.8215 -0.0001
v  -25.5861 7.8215 10.0892
v  -14.7722 7.8215 17.4751
v  -0.0000 7.8215 20.1786
v  14.7722 7.8215 17.4751
v  25.5861 7.8215 10.0893
v  22.4219 -4.9918 8.8416
v  22.4219 -4.9918 -8.8416
v  12.9453 -4.9918 -15.3141
v  12.9452 -4.9918 15.3141
v  25.8906 -4.9918 0.0000
v  23.5876 7.8215 -9.3013
v  27.2367 7.8215 0.0000
v  13.6183 7.8215 -16.1104
v  -0.0000 7.8215 -18.6026
v  -13.6184 7.8215 -16.1104
v  -23.5877 7.8215 -9.3013
v  -27.2367 7.8215 -0.0001
v  -23.5877 7.8215 9.3012
v  -13.6184 7.8215 16.1103
v  -0.0000 7.8215 18.6025
v  13.6183 7.8215 16.1103
v  23.5876 7.8215 9.3013
v  -0.0000 -4.9918 -17.6832
v  -12.9454 -4.9918 -15.3141
v  -22.4219 -4.9918 -8.8416
v  -25.8906 -4.9918 -0.0001
v  -22.2392 -4.9918 8.9664
v  -13.1280 -4.9918 15.1892
v  -0.0000 -4.9918 17.6831
# 60 vertices

vn 0.7626 -0.2569 -0.5936
vn 0.9613 -0.2754 0.0000
vn 0.5469 -0.8372 0.0000
vn 0.4249 -0.8293 -0.3630
vn 0.3778 -0.2236 -0.8985
vn 0.3237 -0.4435 -0.8358
vn -0.0000 -0.2096 -0.9778
vn -0.0000 -0.4191 -0.9079
vn -0.3778 -0.2236 -0.8985
vn -0.3237 -0.4435 -0.8358
vn -0.7626 -0.2569 -0.5936
vn -0.4249 -0.8293 -0.3630
vn -0.9613 -0.2754 0.0000
vn -0.5469 -0.8372 -0.0000
vn -0.7626 -0.2569 0.5936
vn -0.4249 -0.8293 0.3630
vn -0.3778 -0.2236 0.8985
vn -0.3237 -0.4435 0.8358
vn 0.0000 -0.2096 0.9778
vn 0.0000 -0.4191 0.9079
vn 0.3778 -0.2236 0.8985
vn 0.3237 -0.4435 0.8358
vn 0.7626 -0.2569 0.5936
vn 0.4249 -0.8293 0.3630
vn 0.7821 -0.0000 -0.6231
vn 1.0000 0.0000 0.0000
vn 0.3803 -0.0000 -0.9249
vn -0.0000 -0.0000 -1.0000
vn -0.3803 -0.0000 -0.9249
vn -0.7821 0.0000 -0.6231
vn -1.0000 0.0000 0.0000
vn -0.7821 0.0000 0.6231
vn -0.3803 0.0000 0.9249
vn -0.0000 0.0000 1.0000
vn 0.3803 0.0000 0.9249
vn 0.7821 0.0000 0.6231
vn 0.0000 -1.0000 -0.0000
vn 0.0000 1.0000 -0.0000
vn -0.7753 0.0929 0.6247
vn -0.9945 0.1045 -0.0000
vn -0.7819 0.0933 0.6163
vn -0.3761 0.0771 0.9234
vn -0.3821 0.0773 0.9209
vn 0.0000 0.0716 0.9974
vn 0.3761 0.0771 0.9234
vn 0.3821 0.0773 0.9209
vn 0.7753 0.0929 0.6247
vn 0.7819 0.0933 0.6163
vn 0.9945 0.1045 -0.0066
vn 0.9942 0.1075 -0.0025
vn 0.7709 0.0947 -0.6299
vn 0.7834 0.0985 -0.6137
vn 0.3812 0.0808 -0.9210
vn 0.3816 0.0791 -0.9209
vn 0.0016 0.0733 -0.9973
vn 0.0000 0.0716 -0.9974
vn -0.3761 0.0771 -0.9234
vn -0.3821 0.0773 -0.9209
vn -0.7753 0.0929 -0.6247
vn -0.7819 0.0933 -0.6163
# 60 vertex normals

vt 0.0554 0.9380 0.0000
vt 0.0087 0.9380 0.0000
vt 0.0087 0.9051 0.0000
vt 0.0554 0.9051 0.0000
vt 0.1026 0.9380 0.0000
vt 0.1026 0.9051 0.0000
vt 0.1497 0.9380 0.0000
vt 0.1497 0.9051 0.0000
vt 0.1968 0.9380 0.0000
vt 0.1968 0.9051 0.0000
vt 0.2438 0.9380 0.0000
vt 0.2438 0.9051 0.0000
vt 0.2907 0.9380 0.0000
vt 0.2907 0.9051 0.0000
vt 0.3377 0.9380 0.0000
vt 0.3377 0.9051 0.0000
vt 0.3847 0.9380 0.0000
vt 0.3847 0.9051 0.0000
vt 0.4316 0.9380 0.0000
vt 0.4316 0.9051 0.0000
vt 0.4784 0.9380 0.0000
vt 0.4784 0.9051 0.0000
vt 0.5250 0.9380 0.0000
vt 0.5250 0.9051 0.0000
vt 0.5743 0.9380 0.0000
vt 0.5743 0.9051 0.0000
vt 0.0554 0.9874 0.0000
vt 0.0087 0.9874 0.0000
vt 0.1026 0.9874 0.0000
vt 0.1497 0.9874 0.0000
vt 0.1968 0.9874 0.0000
vt 0.2438 0.9874 0.0000
vt 0.2907 0.9874 0.0000
vt 0.3377 0.9874 0.0000
vt 0.3847 0.9874 0.0000
vt 0.4316 0.9874 0.0000
vt 0.4784 0.9874 0.0000
vt 0.5250 0.9874 0.0000
vt 0.5743 0.9874 0.0000
vt 0.1049 0.7760 0.0000
vt 0.0339 0.7350 0.0000
vt 0.1760 0.7350 0.0000
vt 0.1460 0.7651 0.0000
vt 0.0639 0.7651 0.0000
vt 0.1451 0.7641 0.0000
vt 0.0635 0.7641 0.0000
vt 0.0336 0.7342 0.0000
vt 0.1750 0.7342 0.0000
vt 0.1043 0.7750 0.0000
vt 0.0627 0.7667 0.0000
vt 0.1056 0.7782 0.0000
vt 0.1056 0.7855 0.0000
vt 0.0590 0.7730 0.0000
vt 0.0313 0.7353 0.0000
vt 0.0250 0.7389 0.0000
vt 0.0198 0.6924 0.0000
vt 0.0125 0.6924 0.0000
vt 0.0313 0.6495 0.0000
vt 0.0250 0.6459 0.0000
vt 0.0627 0.6181 0.0000
vt 0.0591 0.6118 0.0000
vt 0.1056 0.6066 0.0000
vt 0.1056 0.5993 0.0000
vt 0.1485 0.6180 0.0000
vt 0.1522 0.6117 0.0000
vt 0.1800 0.6494 0.0000
vt 0.1863 0.6458 0.0000
vt 0.1915 0.6923 0.0000
vt 0.1988 0.6923 0.0000
vt 0.1800 0.7353 0.0000
vt 0.1863 0.7389 0.0000
vt 0.1485 0.7667 0.0000
vt 0.1522 0.7730 0.0000
vt 0.4994 0.8298 0.0000
vt 0.5427 0.8298 0.0000
vt 0.5427 0.8891 0.0000
vt 0.4994 0.8891 0.0000
vt 0.4561 0.8298 0.0000
vt 0.4561 0.8891 0.0000
vt 0.4127 0.8298 0.0000
vt 0.4127 0.8891 0.0000
vt 0.3694 0.8298 0.0000
vt 0.3694 0.8891 0.0000
vt 0.3261 0.8298 0.0000
vt 0.3261 0.8891 0.0000
vt 0.2827 0.8298 0.0000
vt 0.2827 0.8891 0.0000
vt 0.2394 0.8298 0.0000
vt 0.2394 0.8891 0.0000
vt 0.1957 0.8298 0.0000
vt 0.1957 0.8891 0.0000
vt 0.1532 0.8298 0.0000
vt 0.1532 0.8891 0.0000
vt 0.1095 0.8298 0.0000
vt 0.1095 0.8891 0.0000
vt 0.0662 0.8298 0.0000
vt 0.0662 0.8891 0.0000
vt 0.0232 0.8298 0.0000
vt 0.0232 0.8891 0.0000
vt 0.1744 0.6521 0.0000
vt 0.0635 0.6228 0.0000
vt 0.1043 0.6118 0.0000
vt 0.1457 0.6233 0.0000
vt 0.0336 0.6526 0.0000
vt 0.0227 0.6934 0.0000
vt 0.1859 0.6934 0.0000
vt 0.1460 0.6230 0.0000
vt 0.0339 0.6531 0.0000
vt 0.0639 0.6230 0.0000
vt 0.1050 0.6120 0.0000
vt 0.1760 0.6530 0.0000
vt 0.0229 0.6941 0.0000
vt 0.1870 0.6940 0.0000
# 113 texture coords

g Cylinder027
usemtl wire_134110008
s 5
f 1/1/1 2/2/2 3/3/3 4/4/4 
s 4
f 5/5/5 1/1/1 4/4/4 6/6/6 
f 7/7/7 5/5/5 6/6/6 8/8/8 
f 9/9/9 7/7/7 8/8/8 10/10/10 
f 11/11/11 9/9/9 10/10/10 12/12/12 
s 5
f 13/13/13 11/11/11 12/12/12 14/14/14 
f 15/15/15 13/13/13 14/14/14 16/16/16 
s 4
f 17/17/17 15/15/15 16/16/16 18/18/18 
f 19/19/19 17/17/17 18/18/18 20/20/20 
f 21/21/21 19/19/19 20/20/20 22/22/22 
f 23/23/23 21/21/21 22/22/22 24/24/24 
s 5
f 2/25/2 23/23/23 24/24/24 3/26/3 
f 25/27/25 26/28/26 2/2/2 1/1/1 
f 27/29/27 25/27/25 1/1/1 5/5/5 
f 28/30/28 27/29/27 5/5/5 7/7/7 
f 29/31/29 28/30/28 7/7/7 9/9/9 
f 30/32/30 29/31/29 9/9/9 11/11/11 
f 31/33/31 30/32/30 11/11/11 13/13/13 
f 32/34/32 31/33/31 13/13/13 15/15/15 
f 33/35/33 32/34/32 15/15/15 17/17/17 
f 34/36/34 33/35/33 17/17/17 19/19/19 
f 35/37/35 34/36/34 19/19/19 21/21/21 
f 36/38/36 35/37/35 21/21/21 23/23/23 
f 26/39/26 36/38/36 23/23/23 2/25/2 
s 1
f 3/40/3 22/41/37 6/42/37 4/43/4 
f 24/44/24 22/41/37 3/40/3 
f 37/45/38 38/46/38 39/47/38 40/48/38 
f 41/49/38 38/46/38 37/45/38 
s 2
f 42/50/38 43/51/38 26/52/38 25/53/38 
f 44/54/38 42/50/38 25/53/38 27/55/38 
f 45/56/38 44/54/38 27/55/38 28/57/38 
f 46/58/38 45/56/38 28/57/38 29/59/38 
f 47/60/38 46/58/38 29/59/38 30/61/38 
f 48/62/38 47/60/38 30/61/38 31/63/38 
f 49/64/38 48/62/38 31/63/38 32/65/38 
f 50/66/38 49/64/38 32/65/38 33/67/38 
f 51/68/38 50/66/38 33/67/38 34/69/38 
f 52/70/38 51/68/38 34/69/38 35/71/38 
f 53/72/38 52/70/38 35/71/38 36/73/38 
f 43/51/38 53/72/38 36/73/38 26/52/38 
s 4
f 38/74/39 41/75/40 43/76/40 42/77/41 
f 39/78/42 38/74/39 42/77/41 44/79/43 
f 54/80/44 39/78/42 44/79/43 45/81/44 
f 55/82/45 54/80/44 45/81/44 46/83/46 
f 56/84/47 55/82/45 46/83/46 47/85/48 
f 57/86/49 56/84/47 47/85/48 48/87/50 
f 58/88/51 57/86/49 48/87/50 49/89/52 
f 59/90/53 58/88/51 49/89/52 50/91/54 
f 60/92/55 59/90/53 50/91/54 51/93/56 
f 40/94/57 60/92/55 51/93/56 52/95/58 
f 37/96/59 40/94/57 52/95/58 53/97/60 
f 41/98/40 37/96/59 53/97/60 43/99/40 
s 1
f 59/100/38 56/101/38 57/102/38 58/103/38 
f 55/104/38 56/101/38 59/100/38 
f 40/48/38 39/47/38 54/105/38 60/106/38 
f 60/106/38 54/105/38 55/104/38 59/100/38 
f 12/107/12 18/108/37 16/109/16 14/110/14 
f 10/111/37 20/112/37 18/108/37 12/107/12 
f 6/42/37 20/112/37 10/111/37 8/113/37 
f 22/41/37 20/112/37 6/42/37 
# 56 polygons - 4 triangles

