# 3ds Max Wavefront OBJ Exporter v0.97b - (c)2007 guruware
# File Created: 18.07.2016 21:59:54

mtllib hazard small bowl.mtl

#
# object Cone003
#

v  14.1421 5.0000 -14.1421
v  20.0000 5.0000 -0.0000
v  10.0000 -5.0000 -0.0000
v  7.0710 -5.0000 -7.0710
v  0.0000 5.0000 -20.0000
v  0.0000 -5.0000 -10.0000
v  -14.1422 5.0000 -14.1421
v  -7.0711 -5.0000 -7.0710
v  -20.0000 5.0000 -0.0000
v  -10.0000 -5.0000 -0.0000
v  -14.1422 5.0000 14.1422
v  -7.0711 -5.0000 7.0711
v  0.0000 5.0000 20.0000
v  0.0000 -5.0000 10.0000
v  14.1421 5.0000 14.1422
v  7.0710 -5.0000 7.0711
v  6.1800 -4.1341 6.1800
v  8.7398 -4.1341 -0.0000
v  -6.1800 -4.1341 6.1800
v  0.0000 -4.1341 8.7399
v  12.9769 5.0000 -12.9769
v  18.3522 5.0000 -0.0000
v  0.0000 5.0000 -18.3521
v  -12.9770 5.0000 -12.9769
v  -18.3522 5.0000 -0.0000
v  -12.9770 5.0000 12.9770
v  0.0000 5.0000 18.3522
v  12.9769 5.0000 12.9770
v  6.1800 -4.1341 -6.1799
v  0.0000 -4.1341 -8.7398
v  -6.1800 -4.1341 -6.1799
v  -8.7398 -4.1341 -0.0000
# 32 vertices

vn 0.5000 -0.7071 -0.5000
vn 0.7071 -0.7071 -0.0000
vn 0.4580 -0.8890 -0.0000
vn 0.3238 -0.8890 -0.3238
vn 0.0000 -0.7071 -0.7071
vn 0.0000 -0.8890 -0.4580
vn -0.5000 -0.7071 -0.5000
vn -0.3238 -0.8890 -0.3238
vn -0.7071 -0.7071 -0.0000
vn -0.4580 -0.8890 -0.0000
vn -0.5000 -0.7071 0.5000
vn -0.3238 -0.8890 0.3238
vn 0.0000 -0.7071 0.7071
vn 0.0000 -0.8890 0.4580
vn 0.5000 -0.7071 0.5000
vn 0.3238 -0.8890 0.3238
vn -0.3146 0.8956 -0.3146
vn -0.4449 0.8956 0.0000
vn 0.3146 0.8956 -0.3146
vn -0.0000 0.8956 -0.4449
vn -0.2022 0.9582 0.2022
vn -0.2860 0.9582 0.0000
vn 0.0000 1.0000 -0.0000
vn 0.0000 0.9582 0.2860
vn 0.2022 0.9582 0.2022
vn 0.2860 0.9582 0.0000
vn 0.2022 0.9582 -0.2022
vn -0.0000 0.9582 -0.2860
vn -0.2022 0.9582 -0.2022
vn -0.3146 0.8956 0.3146
vn 0.0000 0.8956 0.4449
vn 0.3146 0.8956 0.3146
vn 0.4449 0.8956 0.0000
# 33 vertex normals

vt 0.5211 0.7256 0.0000
vt 0.5128 0.7665 1.0000
vt 0.4775 0.7484 0.0000
vt 0.4816 0.7286 0.0000
vt 0.5064 0.6854 0.0000
vt 0.4740 0.7093 0.0000
vt 0.3676 0.7256 0.0000
vt 0.3823 0.6854 0.0000
vt 0.4147 0.7093 0.0000
vt 0.4071 0.7286 0.0000
vt 0.3759 0.7665 1.0000
vt 0.4111 0.7484 0.0000
vt 0.4042 0.7970 0.0000
vt 0.4249 0.7632 0.0000
vt 0.4443 0.8083 0.0000
vt 0.4443 0.7686 0.0000
vt 0.4845 0.7970 0.0000
vt 0.4638 0.7632 0.0000
vt 0.3141 0.7321 0.0000
vt 0.3002 0.7702 0.0000
vt 0.2611 0.7864 0.0000
vt 0.2242 0.7693 0.0000
vt 0.2957 0.6990 0.0000
vt 0.3079 0.7324 0.0000
vt 0.2293 0.6999 0.0000
vt 0.2615 0.6849 0.0866
vt 0.3059 0.7775 0.0000
vt 0.3240 0.7338 0.0000
vt 0.3296 0.7338 1.0000
vt 0.3098 0.7815 0.0000
vt 0.2622 0.7956 0.0000
vt 0.2622 0.8012 0.0000
vt 0.2185 0.7775 0.0000
vt 0.2146 0.7815 0.0000
vt 0.2004 0.7338 0.0000
vt 0.1948 0.7338 1.0000
vt 0.2185 0.6901 0.0000
vt 0.2146 0.6862 0.0000
vt 0.2622 0.6720 0.0000
vt 0.2622 0.6664 0.0000
vt 0.3059 0.6901 0.0000
vt 0.3098 0.6862 0.0000
vt 0.4267 0.7020 0.0000
vt 0.4238 0.6844 0.0000
vt 0.4576 0.6682 1.0000
vt 0.4639 0.7064 0.0000
vt 0.4192 0.7186 0.0000
vt 0.4485 0.7429 0.0000
vt 0.3629 0.7020 0.0000
vt 0.3704 0.7186 0.0000
vt 0.3411 0.7429 0.0000
vt 0.3256 0.7064 0.0000
vt 0.3658 0.6844 0.0000
vt 0.3320 0.6682 1.0000
vt 0.3776 0.6711 0.0000
vt 0.3577 0.6394 0.0000
vt 0.3948 0.6662 0.0000
vt 0.3948 0.6286 0.0000
vt 0.4119 0.6711 0.0000
vt 0.4319 0.6394 0.0000
vt 0.2149 0.7345 0.0000
vt 0.2935 0.7671 0.0000
vt 0.2613 0.7820 0.0866
vt 0.2271 0.7679 0.0000
vt 0.2078 0.7296 0.0000
vt 0.2977 0.6924 0.0000
vt 0.2218 0.6915 0.0000
vt 0.2608 0.6753 0.0000
# 68 texture coords

g Cone003
usemtl wire_028089177
s 1
f 1/1/1 2/2/2 3/3/3 4/4/4 
f 5/5/5 1/1/1 4/4/4 6/6/6 
f 7/7/7 5/8/5 6/9/6 8/10/8 
f 9/11/9 7/7/7 8/10/8 10/12/10 
f 11/13/11 9/11/9 10/12/10 12/14/12 
f 13/15/13 11/13/11 12/14/12 14/16/14 
f 15/17/15 13/15/13 14/16/14 16/18/16 
f 2/2/2 15/17/15 16/18/16 3/3/3 
f 3/19/3 16/20/16 14/21/14 12/22/12 
s 2
f 17/23/17 18/24/18 19/25/19 20/26/20 
f 21/27/21 22/28/22 2/29/23 1/30/23 
f 23/31/24 21/27/21 1/30/23 5/32/23 
f 24/33/25 23/31/24 5/32/23 7/34/23 
f 25/35/26 24/33/25 7/34/23 9/36/23 
f 26/37/27 25/35/26 9/36/23 11/38/23 
f 27/39/28 26/37/27 11/38/23 13/40/23 
f 28/41/29 27/39/28 13/40/23 15/42/23 
f 22/28/22 28/41/29 15/42/23 2/29/23 
f 29/43/30 18/44/18 22/45/22 21/46/21 
f 30/47/31 29/43/30 21/46/21 23/48/24 
f 31/49/32 30/50/31 23/51/24 24/52/25 
f 32/53/33 31/49/32 24/52/25 25/54/26 
f 19/55/19 32/53/33 25/54/26 26/56/27 
f 20/57/20 19/55/19 26/56/27 27/58/28 
f 17/59/17 20/57/20 27/58/28 28/60/29 
f 18/44/18 17/59/17 28/60/29 22/45/22 
f 32/61/33 29/62/30 30/63/31 31/64/32 
f 19/25/19 18/24/18 29/62/30 32/61/33 
s 1
f 3/19/3 12/22/12 10/65/10 4/66/4 
f 4/66/4 10/65/10 8/67/8 6/68/6 
# 30 polygons

