# 3ds Max Wavefront OBJ Exporter v0.97b - (c)2007 guruware
# File Created: 18.07.2016 21:55:31

mtllib hazard big pot.mtl

#
# object Cylinder030
#

v  12.9904 10.0000 -7.5000
v  15.0000 10.0000 -0.0000
v  15.0000 -10.0000 -0.0000
v  12.9904 -10.0000 -7.5000
v  7.5000 10.0000 -12.9904
v  7.5000 -10.0000 -12.9904
v  0.0000 10.0000 -15.0000
v  0.0000 -10.0000 -15.0000
v  -7.5000 10.0000 -12.9904
v  -7.5000 -10.0000 -12.9904
v  -12.9904 10.0000 -7.5000
v  -12.9904 -10.0000 -7.5000
v  -15.0000 10.0000 -0.0000
v  -15.0000 -10.0000 -0.0000
v  -12.9904 10.0000 7.5000
v  -12.9904 -10.0000 7.5000
v  -7.5000 10.0000 12.9904
v  -7.5000 -10.0000 12.9904
v  0.0000 10.0000 15.0000
v  0.0000 -10.0000 15.0000
v  7.5000 10.0000 12.9904
v  7.5000 -10.0000 12.9904
v  12.9904 10.0000 7.5000
v  12.9904 -10.0000 7.5000
v  11.6255 -9.3738 6.7119
v  -6.7119 -9.3738 11.6254
v  0.0000 -9.3738 13.4239
v  6.7120 -9.3738 11.6254
v  13.4239 -9.3738 -0.0000
v  11.6255 10.0000 -6.7120
v  13.4239 10.0000 -0.0000
v  6.7120 10.0000 -11.6255
v  0.0000 10.0000 -13.4239
v  -6.7119 10.0000 -11.6255
v  -11.6254 10.0000 -6.7120
v  -13.4239 10.0000 -0.0000
v  -11.6254 10.0000 6.7119
v  -6.7119 10.0000 11.6254
v  0.0000 10.0000 13.4239
v  6.7120 10.0000 11.6254
v  11.6255 10.0000 6.7119
v  11.6255 -9.3738 -6.7120
v  6.7120 -9.3738 -11.6255
v  0.0000 -9.3738 -13.4239
v  -6.7119 -9.3738 -11.6255
v  -11.6254 -9.3738 -6.7120
v  -13.4239 -9.3738 -0.0000
v  -11.6254 -9.3738 6.7119
# 48 vertices

vn 0.8660 0.0000 -0.5000
vn 1.0000 0.0000 -0.0000
vn 0.5000 0.0000 -0.8660
vn 0.0000 0.0000 -1.0000
vn -0.5000 0.0000 -0.8660
vn -0.8660 0.0000 -0.5000
vn -1.0000 0.0000 0.0000
vn -1.0000 0.0000 -0.0000
vn -0.8660 0.0000 0.5000
vn -0.5000 0.0000 0.8660
vn 0.0000 0.0000 1.0000
vn -0.0000 0.0000 1.0000
vn 0.5000 0.0000 0.8660
vn 0.8660 0.0000 0.5000
vn 0.0000 -1.0000 -0.0000
vn 0.0000 1.0000 -0.0000
# 16 vertex normals

vt 0.9970 0.3727 0.0000
vt 0.9966 0.3938 0.0000
vt 0.9418 0.3938 0.0000
vt 0.9414 0.3727 0.0000
vt 0.9966 0.6002 0.0000
vt 0.9970 0.6213 0.0000
vt 0.9414 0.6213 0.0000
vt 0.9418 0.6002 0.0000
vt 0.9966 0.5795 0.0000
vt 0.9418 0.5795 0.0000
vt 0.9966 0.5589 0.0000
vt 0.9418 0.5589 0.0000
vt 0.9966 0.5383 0.0000
vt 0.9418 0.5383 0.0000
vt 0.9966 0.5176 0.0000
vt 0.9418 0.5176 0.0000
vt 0.9966 0.4970 0.0000
vt 0.9418 0.4970 0.0000
vt 0.9966 0.4764 0.0000
vt 0.9418 0.4764 0.0000
vt 0.9966 0.4557 0.0000
vt 0.9418 0.4557 0.0000
vt 0.9966 0.4351 0.0000
vt 0.9418 0.4351 0.0000
vt 0.9966 0.4144 0.0000
vt 0.9418 0.4144 0.0000
vt 0.7889 0.4824 0.0000
vt 0.8639 0.5285 0.0000
vt 0.8409 0.4804 0.0000
vt 0.8133 0.4737 0.0000
vt 0.8591 0.5007 0.0000
vt 0.8559 0.5046 0.0313
vt 0.7884 0.4867 0.0313
vt 0.8126 0.4796 0.0313
vt 0.8376 0.4863 0.0313
vt 0.8619 0.5292 0.0313
vt 0.8657 0.5574 1.0000
vt 0.8734 0.5272 1.0000
vt 0.8803 0.5272 1.0000
vt 0.8717 0.5607 1.0000
vt 0.8422 0.5812 1.0000
vt 0.8646 0.5594 1.0000
vt 0.8704 0.5630 1.0000
vt 0.8456 0.5872 1.0000
vt 0.8111 0.5895 1.0000
vt 0.8111 0.5964 1.0000
vt 0.7800 0.5811 1.0000
vt 0.7765 0.5871 1.0000
vt 0.7572 0.5583 1.0000
vt 0.7512 0.5618 1.0000
vt 0.7488 0.5272 1.0000
vt 0.7419 0.5272 1.0000
vt 0.7572 0.4961 1.0000
vt 0.7512 0.4926 1.0000
vt 0.7800 0.4733 1.0000
vt 0.7765 0.4673 1.0000
vt 0.8111 0.4650 1.0000
vt 0.8111 0.4580 1.0000
vt 0.8422 0.4733 1.0000
vt 0.8457 0.4673 1.0000
vt 0.8650 0.4961 1.0000
vt 0.8710 0.4926 1.0000
vt 0.9365 0.3924 0.0000
vt 0.9362 0.4113 0.0000
vt 0.8831 0.4113 1.0000
vt 0.8827 0.3924 0.0000
vt 0.9362 0.5960 0.0000
vt 0.9365 0.6149 0.0000
vt 0.8827 0.6149 0.0000
vt 0.8830 0.5960 0.0000
vt 0.9362 0.5775 0.0000
vt 0.8831 0.5775 0.0000
vt 0.9362 0.5590 0.0000
vt 0.8831 0.5590 0.0000
vt 0.9362 0.5406 0.0000
vt 0.8831 0.5406 0.0000
vt 0.9362 0.5221 0.0000
vt 0.8831 0.5221 1.0000
vt 0.9362 0.5037 0.0000
vt 0.8831 0.5037 0.0000
vt 0.9362 0.4852 0.0000
vt 0.8831 0.4852 0.0000
vt 0.9362 0.4667 0.0000
vt 0.8831 0.4667 0.0000
vt 0.9362 0.4483 0.0000
vt 0.8831 0.4483 0.0000
vt 0.9362 0.4298 0.0000
vt 0.8831 0.4298 0.0000
vt 0.7702 0.5051 0.0313
vt 0.8550 0.5542 0.0313
vt 0.8368 0.5726 0.0313
vt 0.7633 0.5301 0.0313
vt 0.8125 0.5797 0.0313
vt 0.7876 0.5730 0.0313
vt 0.7693 0.5547 0.0313
vt 0.8592 0.5472 0.0000
vt 0.7660 0.5090 0.0000
vt 0.7613 0.5277 0.0000
vt 0.8362 0.5738 0.0000
vt 0.7661 0.5555 0.0000
vt 0.7843 0.5758 0.0000
vt 0.8118 0.5824 0.0000
# 102 texture coords

g Cylinder030
usemtl wire_028089177
s 1
f 1/1/1 2/2/2 3/3/2 4/4/1 
f 5/5/3 1/6/1 4/7/1 6/8/3 
f 7/9/4 5/5/3 6/8/3 8/10/4 
f 9/11/5 7/9/4 8/10/4 10/12/5 
f 11/13/6 9/11/5 10/12/5 12/14/6 
f 13/15/7 11/13/6 12/14/6 14/16/8 
f 15/17/9 13/15/7 14/16/8 16/18/9 
f 17/19/10 15/17/9 16/18/9 18/20/10 
f 19/21/11 17/19/10 18/20/10 20/22/12 
f 21/23/13 19/21/11 20/22/12 22/24/13 
f 23/25/14 21/23/13 22/24/13 24/26/14 
f 2/2/2 23/25/14 24/26/14 3/3/2 
s 2
f 18/27/15 3/28/15 22/29/15 20/30/15 
f 24/31/15 22/29/15 3/28/15 
s 1
f 25/32/16 26/33/16 27/34/16 28/35/16 
f 29/36/16 26/33/16 25/32/16 
s 2
f 30/37/16 31/38/16 2/39/16 1/40/16 
f 32/41/16 30/42/16 1/43/16 5/44/16 
f 33/45/16 32/41/16 5/44/16 7/46/16 
f 34/47/16 33/45/16 7/46/16 9/48/16 
f 35/49/16 34/47/16 9/48/16 11/50/16 
f 36/51/16 35/49/16 11/50/16 13/52/16 
f 37/53/16 36/51/16 13/52/16 15/54/16 
f 38/55/16 37/53/16 15/54/16 17/56/16 
f 39/57/16 38/55/16 17/56/16 19/58/16 
f 40/59/16 39/57/16 19/58/16 21/60/16 
f 41/61/16 40/59/16 21/60/16 23/62/16 
f 31/38/16 41/61/16 23/62/16 2/39/16 
s 4
f 42/63/9 29/64/8 31/65/8 30/66/9 
f 43/67/10 42/68/9 30/69/9 32/70/10 
f 44/71/11 43/67/10 32/70/10 33/72/11 
f 45/73/13 44/71/11 33/72/11 34/74/13 
f 46/75/14 45/73/13 34/74/13 35/76/14 
f 47/77/2 46/75/14 35/76/14 36/78/2 
f 48/79/1 47/77/2 36/78/2 37/80/1 
f 26/81/3 48/79/1 37/80/1 38/82/3 
f 27/83/4 26/81/3 38/82/3 39/84/4 
f 28/85/5 27/83/4 39/84/4 40/86/5 
f 25/87/6 28/85/5 40/86/5 41/88/6 
f 29/64/8 25/87/6 41/88/6 31/65/8 
s 1
f 48/89/16 42/90/16 43/91/16 47/92/16 
f 26/33/16 29/36/16 42/90/16 48/89/16 
f 47/92/16 44/93/16 45/94/16 46/95/16 
f 43/91/16 44/93/16 47/92/16 
s 2
f 4/96/15 16/97/15 14/98/15 6/99/15 
f 3/28/15 18/27/15 16/97/15 4/96/15 
f 6/99/15 12/100/15 10/101/15 8/102/15 
f 14/98/15 12/100/15 6/99/15 
# 44 polygons - 4 triangles

