# 3ds Max Wavefront OBJ Exporter v0.97b - (c)2007 guruware
# File Created: 18.07.2016 21:54:00

mtllib hazard barrel.mtl

#
# object Cylinder022
#

v  15.2526 -7.8277 -8.8062
v  17.6122 -7.8277 -0.0001
v  11.3018 -20.3351 0.1209
v  9.6822 -20.3351 -5.9236
v  8.8060 -7.8277 -15.2527
v  5.2574 -20.3351 -10.3484
v  -0.0001 -7.8277 -17.6123
v  -0.7871 -20.3351 -11.9680
v  -8.8062 -7.8277 -15.2527
v  -6.8315 -20.3351 -10.3484
v  -15.2527 -7.8277 -8.8062
v  -11.2563 -20.3351 -5.9236
v  -17.6123 -7.8277 -0.0001
v  -12.8759 -20.3351 0.1209
v  -15.2527 -7.8277 8.8060
v  -11.2563 -20.3351 6.1654
v  -8.8062 -7.8277 15.2526
v  -6.8315 -20.3351 10.5902
v  -0.0001 -7.8277 17.6123
v  -0.7871 -20.3351 12.2098
v  8.8060 -7.8277 15.2526
v  5.2574 -20.3351 10.5902
v  15.2526 -7.8277 8.8060
v  9.6822 -20.3351 6.1654
v  15.2526 7.8277 -8.8062
v  17.6122 7.8277 -0.0001
v  8.8060 7.8277 -15.2527
v  -0.0001 7.8277 -17.6123
v  -8.8062 7.8277 -15.2527
v  -15.2527 7.8277 -8.8062
v  -17.6123 7.8277 -0.0001
v  -15.2527 7.8277 8.8060
v  -8.8062 7.8277 15.2526
v  -0.0001 7.8277 17.6123
v  8.8060 7.8277 15.2526
v  15.2526 7.8277 8.8060
v  9.6822 20.3352 -5.9236
v  11.3018 20.3352 0.1209
v  5.2574 20.3352 -10.3484
v  -0.7871 20.3352 -11.9680
v  -6.8315 20.3352 -10.3484
v  -11.2563 20.3352 -5.9236
v  -12.8759 20.3352 0.1209
v  -11.2563 20.3352 6.1654
v  -6.8315 20.3352 10.5902
v  -0.7871 20.3352 12.2098
v  5.2574 20.3352 10.5902
v  9.6822 20.3352 6.1654
# 48 vertices

vn 0.8451 -0.2221 -0.4863
vn 0.9747 -0.2234 -0.0006
vn 0.8928 -0.4504 0.0014
vn 0.7726 -0.4478 -0.4500
vn 0.4909 -0.2150 -0.8443
vn 0.4441 -0.4335 -0.7841
vn 0.0039 -0.2038 -0.9790
vn -0.0096 -0.4108 -0.9117
vn -0.4875 -0.1911 -0.8519
vn -0.4693 -0.3856 -0.7944
vn -0.8505 -0.1804 -0.4940
vn -0.8095 -0.3647 -0.4601
vn -0.9846 -0.1750 -0.0006
vn -0.9352 -0.3541 0.0015
vn -0.8517 -0.1765 0.4935
vn -0.8108 -0.3570 0.4639
vn -0.4887 -0.1844 0.8528
vn -0.4707 -0.3725 0.7998
vn 0.0039 -0.1963 0.9805
vn -0.0097 -0.3960 0.9182
vn 0.4921 -0.2088 0.8451
vn 0.4458 -0.4210 0.7900
vn 0.8463 -0.2186 0.4859
vn 0.7744 -0.4407 0.4539
vn 0.8451 0.2221 -0.4863
vn 0.9747 0.2234 -0.0006
vn 0.4909 0.2150 -0.8443
vn 0.0039 0.2038 -0.9790
vn -0.4875 0.1911 -0.8519
vn -0.8505 0.1804 -0.4940
vn -0.9846 0.1750 -0.0006
vn -0.8517 0.1765 0.4935
vn -0.4887 0.1844 0.8528
vn 0.0039 0.1963 0.9805
vn 0.4921 0.2088 0.8451
vn 0.8463 0.2186 0.4859
vn 0.7726 0.4478 -0.4500
vn 0.8928 0.4504 0.0014
vn 0.4441 0.4335 -0.7841
vn -0.0096 0.4108 -0.9117
vn -0.4693 0.3856 -0.7944
vn -0.8095 0.3647 -0.4601
vn -0.9352 0.3541 0.0015
vn -0.8108 0.3570 0.4639
vn -0.4707 0.3725 0.7998
vn -0.0097 0.3960 0.9182
vn 0.4458 0.4210 0.7900
vn 0.7744 0.4407 0.4539
vn 0.0000 -1.0000 -0.0000
vn 0.0000 1.0000 -0.0000
# 50 vertex normals

vt 0.8363 0.1227 0.0000
vt 0.7817 0.1227 0.0000
vt 0.7817 0.0170 0.0000
vt 0.8363 0.0170 0.0000
vt 0.8875 0.1227 0.0000
vt 0.8875 0.0170 0.0000
vt 0.9359 0.1227 0.0000
vt 0.9359 0.0170 0.0000
vt 0.3422 0.1227 0.0000
vt 0.2931 0.1227 0.0000
vt 0.2931 0.0170 0.0000
vt 0.3422 0.0170 0.0000
vt 0.3945 0.1227 0.0000
vt 0.3945 0.0170 0.0000
vt 0.4481 0.1227 0.0000
vt 0.4481 0.0170 0.0000
vt 0.5024 0.1227 0.0000
vt 0.5024 0.0170 0.0000
vt 0.5574 0.1227 0.0000
vt 0.5574 0.0170 0.0000
vt 0.6130 0.1227 0.0000
vt 0.6130 0.0170 0.0000
vt 0.6693 0.1227 0.0000
vt 0.6693 0.0170 0.0000
vt 0.7261 0.1227 0.0000
vt 0.7261 0.0170 0.0000
vt 0.8363 0.2313 0.0000
vt 0.7817 0.2313 0.0000
vt 0.8875 0.2313 0.0000
vt 0.9359 0.2313 0.0000
vt 0.3422 0.2313 0.0000
vt 0.2931 0.2313 0.0000
vt 0.3945 0.2313 0.0000
vt 0.4481 0.2313 0.0000
vt 0.5024 0.2313 0.0000
vt 0.5574 0.2313 0.0000
vt 0.6130 0.2313 0.0000
vt 0.6693 0.2313 0.0000
vt 0.7261 0.2313 0.0000
vt 0.8363 0.3320 0.0000
vt 0.7817 0.3320 0.0000
vt 0.8875 0.3320 0.0000
vt 0.9359 0.3320 0.0000
vt 0.3422 0.3320 0.0000
vt 0.2931 0.3320 0.0000
vt 0.3945 0.3320 0.0000
vt 0.4481 0.3320 0.0000
vt 0.5024 0.3320 0.0000
vt 0.5574 0.3320 0.0000
vt 0.6130 0.3320 0.0000
vt 0.6693 0.3320 0.0000
vt 0.7261 0.3320 0.0000
vt 0.0650 0.1694 0.0000
vt 0.1894 0.0976 0.0000
vt 0.1480 0.1694 0.0000
vt 0.1065 0.1805 0.0000
vt 0.0235 0.0976 0.0000
vt 0.0650 0.0257 0.0000
vt 0.0346 0.1391 0.0000
vt 0.0346 0.0561 0.0000
vt 0.1480 0.0257 0.0000
vt 0.1065 0.0146 0.0000
vt 0.1783 0.0561 0.0000
vt 0.1783 0.1391 0.0000
# 64 texture coords

g Cylinder022
usemtl wire_143224087
s 1
f 1/1/1 2/2/2 3/3/3 4/4/4 
f 5/5/5 1/1/1 4/4/4 6/6/6 
f 7/7/7 5/5/5 6/6/6 8/8/8 
f 9/9/9 7/10/7 8/11/8 10/12/10 
f 11/13/11 9/9/9 10/12/10 12/14/12 
f 13/15/13 11/13/11 12/14/12 14/16/14 
f 15/17/15 13/15/13 14/16/14 16/18/16 
f 17/19/17 15/17/15 16/18/16 18/20/18 
f 19/21/19 17/19/17 18/20/18 20/22/20 
f 21/23/21 19/21/19 20/22/20 22/24/22 
f 23/25/23 21/23/21 22/24/22 24/26/24 
f 2/2/2 23/25/23 24/26/24 3/3/3 
f 25/27/25 26/28/26 2/2/2 1/1/1 
f 27/29/27 25/27/25 1/1/1 5/5/5 
f 28/30/28 27/29/27 5/5/5 7/7/7 
f 29/31/29 28/32/28 7/10/7 9/9/9 
f 30/33/30 29/31/29 9/9/9 11/13/11 
f 31/34/31 30/33/30 11/13/11 13/15/13 
f 32/35/32 31/34/31 13/15/13 15/17/15 
f 33/36/33 32/35/32 15/17/15 17/19/17 
f 34/37/34 33/36/33 17/19/17 19/21/19 
f 35/38/35 34/37/34 19/21/19 21/23/21 
f 36/39/36 35/38/35 21/23/21 23/25/23 
f 26/28/26 36/39/36 23/25/23 2/2/2 
f 37/40/37 38/41/38 26/28/26 25/27/25 
f 39/42/39 37/40/37 25/27/25 27/29/27 
f 40/43/40 39/42/39 27/29/27 28/30/28 
f 41/44/41 40/45/40 28/32/28 29/31/29 
f 42/46/42 41/44/41 29/31/29 30/33/30 
f 43/47/43 42/46/42 30/33/30 31/34/31 
f 44/48/44 43/47/43 31/34/31 32/35/32 
f 45/49/45 44/48/44 32/35/32 33/36/33 
f 46/50/46 45/49/45 33/36/33 34/37/34 
f 47/51/47 46/50/46 34/37/34 35/38/35 
f 48/52/48 47/51/47 35/38/35 36/39/36 
f 38/41/38 48/52/48 36/39/36 26/28/26 
s 2
f 18/53/49 3/54/49 22/55/49 20/56/49 
f 14/57/49 10/58/49 18/53/49 16/59/49 
f 14/57/49 12/60/49 10/58/49 
f 6/61/49 3/54/49 10/58/49 8/62/49 
f 6/61/49 4/63/49 3/54/49 
f 18/53/49 10/58/49 3/54/49 
f 24/64/49 22/55/49 3/54/49 
f 40/56/50 48/63/50 37/64/50 39/55/50 
f 42/59/50 44/60/50 40/56/50 41/53/50 
f 42/59/50 43/57/50 44/60/50 
f 46/62/50 48/63/50 44/60/50 45/58/50 
f 46/62/50 47/61/50 48/63/50 
f 40/56/50 44/60/50 48/63/50 
f 38/54/50 37/64/50 48/63/50 
# 42 polygons - 8 triangles

