# 3ds Max Wavefront OBJ Exporter v0.97b - (c)2007 guruware
# File Created: 18.07.2016 21:56:12

mtllib hazard bottle 01.mtl

#
# object Cylinder026
#

v  6.0117 2.1751 -6.0117
v  8.5018 2.1751 -0.0000
v  8.5018 -10.2618 -0.0000
v  6.0117 -10.2618 -6.0117
v  0.0001 2.1751 -8.5018
v  0.0001 -10.2618 -8.5018
v  -6.0116 2.1751 -6.0117
v  -6.0116 -10.2618 -6.0117
v  -8.5017 2.1751 -0.0000
v  -8.5017 -10.2618 -0.0000
v  -6.0116 2.1751 6.0117
v  -6.0116 -10.2618 6.0117
v  0.0001 2.1751 8.5018
v  0.0001 -10.2618 8.5018
v  6.0117 2.1751 6.0117
v  6.0117 -10.2618 6.0117
v  6.9589 4.5775 -0.0000
v  4.9207 4.5775 -4.9207
v  0.0001 4.5775 -6.9589
v  -4.9206 4.5775 -4.9207
v  -6.9588 4.5775 -0.0000
v  -4.9206 4.5775 4.9207
v  0.0001 4.5775 6.9589
v  4.9207 4.5775 4.9207
v  1.3815 10.2618 -1.3814
v  1.9537 10.2618 -0.0000
v  1.9537 7.0298 -0.0000
v  1.3815 7.0298 -1.3814
v  0.0001 10.2618 -1.9536
v  0.0001 7.0298 -1.9536
v  -1.3814 10.2618 -1.3814
v  -1.3814 7.0298 -1.3814
v  -1.9536 10.2618 -0.0000
v  -1.9536 7.0298 -0.0000
v  -1.3814 10.2618 1.3814
v  -1.3814 7.0298 1.3814
v  0.0001 10.2618 1.9536
v  0.0001 7.0298 1.9536
v  1.3815 10.2618 1.3814
v  1.3815 7.0298 1.3814
# 40 vertices

vn 0.6819 0.2646 -0.6819
vn 0.9644 0.2646 0.0000
vn 1.0000 0.0000 -0.0000
vn 0.7071 0.0000 -0.7071
vn 0.0000 0.2646 -0.9644
vn 0.0000 0.0000 -1.0000
vn -0.6819 0.2646 -0.6819
vn -0.7071 0.0000 -0.7071
vn -0.9644 0.2646 -0.0000
vn -1.0000 0.0000 -0.0000
vn -0.6819 0.2646 0.6819
vn -0.7071 0.0000 0.7071
vn 0.0000 0.2646 0.9644
vn 0.0000 0.0000 1.0000
vn 0.6819 0.2646 0.6819
vn 0.7071 0.0000 0.7071
vn 0.6991 0.7150 -0.0000
vn 0.4944 0.7150 -0.4944
vn 0.0000 0.7150 -0.6991
vn -0.4944 0.7150 -0.4944
vn -0.6991 0.7150 -0.0000
vn -0.4944 0.7150 0.4944
vn 0.0000 0.7150 0.6991
vn 0.4944 0.7150 0.4944
vn 0.0000 -1.0000 -0.0000
vn 0.0000 1.0000 -0.0000
vn 0.3111 0.8980 -0.3111
vn 0.4400 0.8980 -0.0000
vn 0.0000 0.8980 -0.4400
vn -0.3111 0.8980 -0.3111
vn -0.4400 0.8980 0.0000
vn -0.3111 0.8980 0.3111
vn 0.0000 0.8980 0.4400
vn 0.3111 0.8980 0.3111
# 34 vertex normals

vt 0.7309 0.9776 0.0000
vt 0.7117 0.9776 0.0000
vt 0.7117 0.9069 0.0000
vt 0.7309 0.9069 0.0000
vt 0.7502 0.9776 0.0000
vt 0.7502 0.9069 0.0000
vt 0.6154 0.9776 0.0000
vt 0.5961 0.9776 0.0000
vt 0.5961 0.9069 0.0000
vt 0.6154 0.9069 0.0000
vt 0.6347 0.9776 0.0000
vt 0.6346 0.9069 0.0000
vt 0.6539 0.9776 0.0000
vt 0.6539 0.9069 0.0000
vt 0.6732 0.9776 0.0000
vt 0.6732 0.9069 0.0000
vt 0.6924 0.9776 0.0000
vt 0.6924 0.9069 0.0000
vt 0.6827 0.7960 0.0000
vt 0.6834 0.7811 0.0000
vt 0.7020 0.7823 0.0000
vt 0.7003 0.7971 0.0000
vt 0.7214 0.7848 0.0000
vt 0.7172 0.7997 0.0000
vt 0.5758 0.7998 0.0000
vt 0.5715 0.7847 0.0000
vt 0.5909 0.7822 0.0000
vt 0.5928 0.7972 0.0000
vt 0.6095 0.7811 0.0000
vt 0.6105 0.7960 0.0000
vt 0.6280 0.7805 0.0000
vt 0.6285 0.7955 0.0000
vt 0.6465 0.7803 0.0000
vt 0.6466 0.7953 0.0000
vt 0.6649 0.7805 0.0000
vt 0.6647 0.7955 0.0000
vt 0.6311 0.8286 0.0000
vt 0.6265 0.8286 0.0000
vt 0.6265 0.8092 0.8425
vt 0.6311 0.8092 0.0000
vt 0.6358 0.8286 0.0000
vt 0.6358 0.8092 0.0000
vt 0.6034 0.8286 0.0000
vt 0.5988 0.8286 0.0000
vt 0.5988 0.8092 0.0000
vt 0.6034 0.8092 0.0000
vt 0.6080 0.8286 0.0000
vt 0.6080 0.8092 0.8425
vt 0.6127 0.8286 0.0000
vt 0.6127 0.8092 0.0000
vt 0.6173 0.8286 0.0000
vt 0.6173 0.8092 0.0000
vt 0.6219 0.8286 0.0000
vt 0.6219 0.8092 0.0000
vt 0.6753 0.8455 0.0000
vt 0.7518 0.8475 0.0000
vt 0.7145 0.8082 0.0000
vt 0.6872 0.8187 0.0000
vt 0.7125 0.8848 0.0000
vt 0.6858 0.8729 0.0000
vt 0.7399 0.8743 0.0000
vt 0.7413 0.8202 0.0000
vt 0.6582 0.8733 1.0000
vt 0.6710 0.8605 1.0000
vt 0.6710 0.8733 1.0000
vt 0.6646 0.8760 1.0000
vt 0.6582 0.8605 1.0000
vt 0.6556 0.8669 1.0000
vt 0.6646 0.8579 1.0000
vt 0.6736 0.8669 1.0000
vt 0.6499 0.8617 0.7230
vt 0.6367 0.8767 0.0000
vt 0.6230 0.8551 0.0000
vt 0.6269 0.8508 0.0000
vt 0.6174 0.8823 0.0000
vt 0.6174 0.8568 0.0000
vt 0.5982 0.8767 0.0000
vt 0.6118 0.8551 0.0000
vt 0.5849 0.8617 0.7230
vt 0.6080 0.8508 0.0000
vt 0.5817 0.8419 0.0000
vt 0.6071 0.8450 0.0000
vt 0.5896 0.8238 0.0000
vt 0.6092 0.8397 0.0000
vt 0.6453 0.8238 0.0000
vt 0.6531 0.8419 0.0000
vt 0.6278 0.8450 0.0000
vt 0.6256 0.8397 0.0000
# 88 texture coords

g Cylinder026
usemtl wire_224198087
s 1
f 1/1/1 2/2/2 3/3/3 4/4/4 
f 5/5/5 1/1/1 4/4/4 6/6/6 
f 7/7/7 5/8/5 6/9/6 8/10/8 
f 9/11/9 7/7/7 8/10/8 10/12/10 
f 11/13/11 9/11/9 10/12/10 12/14/12 
f 13/15/13 11/13/11 12/14/12 14/16/14 
f 15/17/15 13/15/13 14/16/14 16/18/16 
f 2/2/2 15/17/15 16/18/16 3/3/3 
f 17/19/17 2/20/2 1/21/1 18/22/18 
f 18/22/18 1/21/1 5/23/5 19/24/19 
f 19/25/19 5/26/5 7/27/7 20/28/20 
f 20/28/20 7/27/7 9/29/9 21/30/21 
f 21/30/21 9/29/9 11/31/11 22/32/22 
f 22/32/22 11/31/11 13/33/13 23/34/23 
f 23/34/23 13/33/13 15/35/15 24/36/24 
f 24/36/24 15/35/15 2/20/2 17/19/17 
s 2
f 25/37/4 26/38/3 27/39/3 28/40/4 
f 29/41/6 25/37/4 28/40/4 30/42/6 
f 31/43/8 29/44/6 30/45/6 32/46/8 
f 33/47/10 31/43/8 32/46/8 34/48/10 
f 35/49/12 33/47/10 34/48/10 36/50/12 
f 37/51/14 35/49/12 36/50/12 38/52/14 
f 39/53/16 37/51/14 38/52/14 40/54/16 
f 26/38/3 39/53/16 40/54/16 27/39/3 
f 10/55/25 3/56/25 14/57/25 12/58/25 
f 6/59/25 3/56/25 10/55/25 8/60/25 
f 6/59/25 4/61/25 3/56/25 
f 16/62/25 14/57/25 3/56/25 
s 1
f 31/63/26 39/64/26 25/65/26 29/66/26 
f 35/67/26 39/64/26 31/63/26 33/68/26 
f 35/67/26 37/69/26 39/64/26 
f 26/70/26 25/65/26 39/64/26 
f 17/71/17 18/72/18 28/73/27 27/74/28 
f 18/72/18 19/75/19 30/76/29 28/73/27 
f 19/75/19 20/77/20 32/78/30 30/76/29 
f 20/77/20 21/79/21 34/80/31 32/78/30 
f 21/79/21 22/81/22 36/82/32 34/80/31 
f 22/81/22 23/83/23 38/84/33 36/82/32 
f 23/85/23 24/86/24 40/87/34 38/88/33 
f 24/86/24 17/71/17 27/74/28 40/87/34 
# 36 polygons - 4 triangles

