# 3ds Max Wavefront OBJ Exporter v0.97b - (c)2007 guruware
# File Created: 18.07.2016 21:57:43

mtllib hazard bottle04.mtl

#
# object Cylinder023
#

v  2.3047 -0.4542 -2.3047
v  3.2594 -0.4542 -0.0000
v  3.2594 -13.7590 -0.0000
v  2.3047 -13.7590 -2.3047
v  0.0000 -0.4542 -3.2594
v  0.0000 -13.7590 -3.2594
v  -2.3047 -0.4542 -2.3047
v  -2.3047 -13.7590 -2.3047
v  -3.2594 -0.4542 -0.0000
v  -3.2594 -13.7590 -0.0000
v  -2.3047 -0.4542 2.3047
v  -2.3047 -13.7590 2.3047
v  0.0000 -0.4542 3.2594
v  0.0000 -13.7590 3.2594
v  2.3047 -0.4542 2.3047
v  2.3047 -13.7590 2.3047
v  2.6679 2.1159 -0.0000
v  1.8865 2.1159 -1.8865
v  0.0000 2.1159 -2.6679
v  -1.8865 2.1159 -1.8865
v  -2.6679 2.1159 -0.0000
v  -1.8865 2.1159 1.8864
v  0.0000 2.1159 2.6678
v  1.8865 2.1159 1.8864
v  0.7141 13.7589 -0.7141
v  1.0098 13.7589 -0.0000
v  1.0098 5.2772 -0.0000
v  0.7141 5.2772 -0.7141
v  0.0000 13.7589 -1.0099
v  0.0000 5.2772 -1.0099
v  -0.7141 13.7589 -0.7141
v  -0.7141 5.2772 -0.7141
v  -1.0098 13.7589 -0.0000
v  -1.0098 5.2772 -0.0000
v  -0.7141 13.7589 0.7140
v  -0.7141 5.2772 0.7140
v  0.0000 13.7589 1.0098
v  0.0000 5.2772 1.0098
v  0.7141 13.7589 0.7140
v  0.7141 5.2772 0.7140
# 40 vertices

vn 0.7028 0.1099 -0.7028
vn 0.9939 0.1099 -0.0000
vn 1.0000 0.0000 -0.0000
vn 0.7071 0.0000 -0.7071
vn -0.0000 0.1099 -0.9939
vn -0.0000 0.0000 -1.0000
vn -0.7028 0.1099 -0.7028
vn -0.7071 0.0000 -0.7071
vn -0.9939 0.1099 0.0000
vn -1.0000 0.0000 0.0000
vn -0.7028 0.1099 0.7028
vn -0.7071 0.0000 0.7071
vn 0.0000 0.1099 0.9939
vn -0.0000 0.0000 1.0000
vn 0.7028 0.1099 0.7028
vn 0.7071 0.0000 0.7071
vn 0.9413 0.3374 0.0000
vn 0.6656 0.3374 -0.6656
vn -0.0000 0.3374 -0.9413
vn -0.6656 0.3374 -0.6656
vn -0.9413 0.3375 0.0000
vn -0.6656 0.3375 0.6656
vn 0.0000 0.3375 0.9413
vn 0.6656 0.3375 0.6656
vn 0.7072 0.0000 -0.7071
vn 1.0000 0.0000 0.0000
vn 0.9672 0.2539 0.0000
vn 0.6840 0.2539 -0.6839
vn -0.0000 0.2539 -0.9672
vn -0.7072 0.0000 -0.7071
vn -0.6840 0.2539 -0.6839
vn -0.9672 0.2539 0.0000
vn -0.6839 0.2539 0.6839
vn -0.0000 0.2539 0.9672
vn 0.6840 0.2539 0.6839
vn 0.0000 -1.0000 -0.0000
vn 0.0000 1.0000 -0.0000
# 37 vertex normals

vt 0.8425 0.7851 0.0000
vt 0.8249 0.7851 0.0000
vt 0.8249 0.7204 0.0000
vt 0.8425 0.7204 0.0000
vt 0.8602 0.7851 0.0000
vt 0.8602 0.7204 0.0000
vt 0.8778 0.7851 0.0000
vt 0.8778 0.7204 0.0000
vt 0.7544 0.7852 0.0000
vt 0.7367 0.7852 0.0000
vt 0.7367 0.7205 0.0000
vt 0.7543 0.7205 0.0000
vt 0.7720 0.7852 0.0000
vt 0.7720 0.7205 0.0000
vt 0.7897 0.7852 0.0000
vt 0.7896 0.7204 0.0000
vt 0.8073 0.7851 0.0000
vt 0.8072 0.7204 0.0000
vt 0.9732 0.7141 0.0000
vt 0.9846 0.7160 0.0000
vt 0.9816 0.7307 0.0000
vt 0.9702 0.7269 0.0000
vt 0.9762 0.7461 0.0000
vt 0.9646 0.7397 0.0000
vt 0.9681 0.7625 0.0000
vt 0.9550 0.7521 0.0000
vt 0.9552 0.6506 0.0000
vt 0.9680 0.6401 0.0000
vt 0.9765 0.6568 0.0000
vt 0.9648 0.6628 0.0000
vt 0.9816 0.6722 0.0000
vt 0.9703 0.6757 0.0000
vt 0.9846 0.6869 0.0000
vt 0.9732 0.6885 0.0000
vt 0.9856 0.7015 0.0000
vt 0.9741 0.7013 0.0000
vt 0.8502 0.6468 0.0000
vt 0.8446 0.6468 0.9083
vt 0.8446 0.6037 0.0000
vt 0.8502 0.6037 0.0000
vt 0.8559 0.6468 0.0000
vt 0.8559 0.6037 0.0000
vt 0.8615 0.6469 0.0000
vt 0.8615 0.6036 0.0000
vt 0.8220 0.6468 0.9083
vt 0.8163 0.6469 0.0000
vt 0.8163 0.6036 0.0000
vt 0.8220 0.6037 0.0000
vt 0.8276 0.6468 0.0000
vt 0.8276 0.6037 0.0000
vt 0.8333 0.6468 0.0000
vt 0.8333 0.6037 0.0000
vt 0.8389 0.6468 0.0000
vt 0.8389 0.6037 0.0000
vt 0.7323 0.6729 0.0000
vt 0.8105 0.6729 0.0000
vt 0.7714 0.7120 0.0000
vt 0.7437 0.7006 0.0000
vt 0.7714 0.6338 0.0000
vt 0.7437 0.6453 0.0000
vt 0.7990 0.6453 0.0000
vt 0.7990 0.7006 0.0000
vt 0.8436 0.6870 0.0000
vt 0.8607 0.6698 0.0000
vt 0.8607 0.6870 0.0000
vt 0.8521 0.6905 0.0000
vt 0.8436 0.6698 0.0000
vt 0.8400 0.6784 1.0000
vt 0.8521 0.6663 0.0000
vt 0.8643 0.6784 1.0000
vt 0.9516 0.7186 0.0000
vt 0.9538 0.7098 0.0000
vt 0.9479 0.7264 0.0000
vt 0.9427 0.7322 0.0000
vt 0.9475 0.6755 0.0000
vt 0.9429 0.6706 0.0000
vt 0.9512 0.6828 0.0000
vt 0.9535 0.6913 0.0000
vt 0.9544 0.7005 0.0000
# 79 texture coords

g Cylinder023
usemtl wire_177028149
s 1
f 1/1/1 2/2/2 3/3/3 4/4/4 
f 5/5/5 1/1/1 4/4/4 6/6/6 
f 7/7/7 5/5/5 6/6/6 8/8/8 
f 9/9/9 7/10/7 8/11/8 10/12/10 
f 11/13/11 9/9/9 10/12/10 12/14/12 
f 13/15/13 11/13/11 12/14/12 14/16/14 
f 15/17/15 13/15/13 14/16/14 16/18/16 
f 2/2/2 15/17/15 16/18/16 3/3/3 
f 17/19/17 2/20/2 1/21/1 18/22/18 
f 18/22/18 1/21/1 5/23/5 19/24/19 
f 19/24/19 5/23/5 7/25/7 20/26/20 
f 20/27/20 7/28/7 9/29/9 21/30/21 
f 21/30/21 9/29/9 11/31/11 22/32/22 
f 22/32/22 11/31/11 13/33/13 23/34/23 
f 23/34/23 13/33/13 15/35/15 24/36/24 
f 24/36/24 15/35/15 2/20/2 17/19/17 
f 25/37/25 26/38/26 27/39/27 28/40/28 
f 29/41/6 25/37/25 28/40/28 30/42/29 
f 31/43/30 29/41/6 30/42/29 32/44/31 
f 33/45/10 31/46/30 32/47/31 34/48/32 
f 35/49/12 33/45/10 34/48/32 36/50/33 
f 37/51/14 35/49/12 36/50/33 38/52/34 
f 39/53/16 37/51/14 38/52/34 40/54/35 
f 26/38/26 39/53/16 40/54/35 27/39/27 
s 2
f 10/55/36 3/56/36 14/57/36 12/58/36 
f 6/59/36 3/56/36 10/55/36 8/60/36 
f 6/59/36 4/61/36 3/56/36 
f 16/62/36 14/57/36 3/56/36 
f 31/63/37 39/64/37 25/65/37 29/66/37 
f 35/67/37 39/64/37 31/63/37 33/68/37 
f 35/67/37 37/69/37 39/64/37 
f 26/70/37 25/65/37 39/64/37 
s 1
f 17/19/17 18/22/18 28/71/28 27/72/27 
f 18/22/18 19/24/19 30/73/29 28/71/28 
f 19/24/19 20/26/20 32/74/31 30/73/29 
f 20/27/20 21/30/21 34/75/32 32/76/31 
f 21/30/21 22/32/22 36/77/33 34/75/32 
f 22/32/22 23/34/23 38/78/34 36/77/33 
f 23/34/23 24/36/24 40/79/35 38/78/34 
f 24/36/24 17/19/17 27/72/27 40/79/35 
# 36 polygons - 4 triangles

