# 3ds Max Wavefront OBJ Exporter v0.97b - (c)2007 guruware
# File Created: 18.07.2016 21:58:22

mtllib hazard jar 01.mtl

#
# object Cylinder028
#

v  3.5000 5.5889 -6.0622
v  7.0000 5.5889 -0.0000
v  7.0000 -10.0000 -0.0000
v  3.5000 -10.0000 -6.0622
v  -3.5000 5.5889 -6.0622
v  -3.5000 -10.0000 -6.0622
v  -7.0000 5.5889 -0.0000
v  -7.0000 -10.0000 -0.0000
v  -3.5000 5.5889 6.0622
v  -3.5000 -10.0000 6.0622
v  3.5000 5.5889 6.0622
v  3.5000 -10.0000 6.0622
v  5.5876 7.0914 -0.0000
v  2.7938 7.0914 -4.8390
v  -2.7938 7.0914 -4.8390
v  -5.5876 7.0914 -0.0000
v  -2.7938 7.0914 4.8390
v  2.7938 7.0914 4.8390
v  3.5000 10.0000 -6.0622
v  7.0000 10.0000 -0.0000
v  7.0000 7.8905 -0.0000
v  3.5000 7.8905 -6.0622
v  -3.5000 10.0000 -6.0622
v  -3.5000 7.8905 -6.0622
v  -7.0000 10.0000 -0.0000
v  -7.0000 7.8905 -0.0000
v  -3.5000 10.0000 6.0622
v  -3.5000 7.8905 6.0622
v  3.5000 10.0000 6.0622
v  3.5000 7.8905 6.0622
# 30 vertices

vn 0.4714 0.3334 -0.8165
vn 0.9428 0.3334 0.0000
vn 1.0000 0.0000 0.0000
vn 0.8660 0.0000 -0.5000
vn -0.4714 0.3334 -0.8165
vn 0.0000 0.0000 -1.0000
vn -0.9428 0.3334 0.0000
vn -0.8660 0.0000 -0.5000
vn -1.0000 0.0000 0.0000
vn -0.4714 0.3334 0.8165
vn -0.8660 0.0000 0.5000
vn 0.4714 0.3334 0.8165
vn 0.0000 0.0000 1.0000
vn 0.8660 0.0000 0.5000
vn 0.7286 0.6849 0.0000
vn 0.4890 -0.2087 -0.8469
vn -0.4890 -0.2087 -0.8469
vn -0.9780 -0.2087 -0.0000
vn -0.3643 0.6849 0.6310
vn 0.3643 0.6849 0.6310
vn 0.8958 -0.4444 0.0000
vn 0.4479 -0.4444 -0.7758
vn -0.4479 -0.4444 -0.7758
vn -0.8958 -0.4444 0.0000
vn -0.4479 -0.4444 0.7758
vn 0.4479 -0.4444 0.7758
vn 0.0000 -1.0000 -0.0000
vn 0.0000 1.0000 -0.0000
vn 0.4924 -0.8704 0.0000
vn -0.2462 -0.8704 0.4264
vn 0.2462 -0.8704 0.4264
# 31 vertex normals

vt 0.0494 0.4762 0.0000
vt 0.0162 0.4762 0.0000
vt 0.0162 0.4022 0.0000
vt 0.0494 0.4022 0.0000
vt 0.0827 0.4762 0.0000
vt 0.0827 0.4022 -0.0000
vt 0.1159 0.4762 0.0000
vt 0.1159 0.4022 0.0000
vt 0.1491 0.4762 0.0000
vt 0.1491 0.4022 -0.0000
vt 0.1823 0.4762 0.0000
vt 0.1823 0.4022 0.0000
vt 0.2155 0.4762 0.0000
vt 0.2155 0.4022 0.0000
vt 0.0068 0.4980 0.0000
vt 0.0019 0.4895 0.0000
vt 0.0346 0.4837 0.0000
vt 0.0329 0.4933 0.0000
vt 0.0634 0.5003 0.7537
vt 0.0559 0.5065 0.0000
vt 0.0748 0.5315 0.0000
vt 0.0650 0.5315 0.0000
vt 0.0634 0.5627 0.7537
vt 0.0559 0.5564 0.0000
vt 0.0346 0.5792 0.0000
vt 0.0329 0.5696 0.0000
vt 0.0019 0.5734 0.0000
vt 0.0068 0.5649 0.0000
vt 0.0490 0.3962 0.0000
vt 0.0157 0.3962 0.0000
vt 0.0157 0.3862 0.0000
vt 0.0490 0.3862 0.0000
vt 0.0822 0.3962 0.0000
vt 0.0822 0.3862 0.9206
vt 0.1154 0.3962 0.0000
vt 0.1154 0.3862 0.0000
vt 0.1486 0.3962 0.0000
vt 0.1486 0.3862 0.9206
vt 0.1818 0.3962 0.0000
vt 0.1818 0.3862 0.0000
vt 0.2150 0.3962 0.0000
vt 0.2150 0.3862 0.0000
vt 0.1667 0.5161 0.0000
vt 0.1833 0.4873 0.0000
vt 0.2165 0.4873 0.0000
vt 0.2331 0.5161 0.0000
vt 0.0964 0.3508 0.0000
vt 0.0798 0.3221 1.0292
vt 0.1462 0.3221 1.0292
vt 0.1296 0.3508 0.0000
vt 0.1482 0.5071 0.0000
vt 0.1276 0.4904 0.0000
vt 0.1294 0.4829 0.0000
vt 0.1552 0.5038 0.0000
vt 0.1018 0.4962 0.0000
vt 0.0970 0.4901 0.8289
vt 0.0902 0.5200 0.0000
vt 0.0825 0.5200 0.0000
vt 0.1018 0.5439 0.0000
vt 0.0970 0.5499 0.8289
vt 0.1276 0.5497 0.0000
vt 0.1294 0.5572 0.0000
vt 0.1482 0.5330 0.0000
vt 0.1552 0.5363 0.0000
vt 0.0964 0.2933 0.0000
vt 0.1296 0.2933 0.0000
vt 0.2165 0.5449 0.0000
vt 0.1833 0.5449 0.0000
# 68 texture coords

g Cylinder028
usemtl wire_143224087
s 20
f 1/1/1 2/2/2 3/3/3 4/4/4 
s 8
f 5/5/5 1/1/1 4/4/6 6/6/6 
s 52
f 7/7/7 5/5/5 6/6/8 8/8/9 
s 112
f 9/9/10 7/7/7 8/8/9 10/10/11 
s 136
f 11/11/12 9/9/10 10/10/13 12/12/13 
s 49
f 2/13/2 11/11/12 12/12/14 3/14/3 
s 37
f 13/15/15 2/16/2 1/17/1 14/18/16 
s 9
f 14/18/16 1/17/1 5/19/5 15/20/17 
s 69
f 15/20/17 5/19/5 7/21/7 16/22/18 
s 241
f 16/22/18 7/21/7 9/23/10 17/24/19 
s 169
f 17/24/19 9/23/10 11/25/12 18/26/20 
s 33
f 18/26/20 11/25/12 2/27/2 13/28/15 
s 280
f 19/29/4 20/30/3 21/31/21 22/32/22 
s 192
f 23/33/6 19/29/6 22/32/22 24/34/23 
s 792
f 25/35/9 23/33/8 24/34/23 26/36/24 
s 1544
f 27/37/11 25/35/9 26/36/24 28/38/25 
s 2052
f 29/39/13 27/37/13 28/38/25 30/40/26 
s 4354
f 20/41/3 29/39/14 30/40/26 21/42/21 
s 2
f 3/43/27 12/44/27 10/45/27 8/46/27 
s 1
f 29/47/28 20/48/28 25/49/28 27/50/28 
s 4122
f 13/51/29 14/52/16 22/53/22 21/54/21 
s 194
f 14/52/16 15/55/17 24/56/23 22/53/22 
s 1298
f 15/55/17 16/57/18 26/58/24 24/56/23 
s 3586
f 16/57/18 17/59/30 28/60/25 26/58/24 
s 6150
f 17/59/30 18/61/31 30/62/26 28/60/25 
s 4098
f 18/61/31 13/63/29 21/64/21 30/62/26 
s 1
f 25/49/28 20/48/28 19/65/28 23/66/28 
s 2
f 3/43/27 8/46/27 6/67/27 4/68/27 
# 28 polygons

